M48
; DRILL file {KiCad 7.0.7} date Fr 22 Sep 2023 21:21:00
; FORMAT={-:-/ absolute / inch / decimal}
; #@! TF.CreationDate,2023-09-22T21:21:00+02:00
; #@! TF.GenerationSoftware,Kicad,Pcbnew,7.0.7
; #@! TF.FileFunction,Plated,1,2,PTH
FMAT,2
INCH
; #@! TA.AperFunction,Plated,PTH,ComponentDrill
T1C0.0079
; #@! TA.AperFunction,Plated,PTH,ViaDrill
T2C0.0118
; #@! TA.AperFunction,Plated,PTH,ViaDrill
T3C0.0157
; #@! TA.AperFunction,Plated,PTH,ComponentDrill
T4C0.0236
; #@! TA.AperFunction,Plated,PTH,ComponentDrill
T5C0.0256
; #@! TA.AperFunction,Plated,PTH,ComponentDrill
T6C0.0394
; #@! TA.AperFunction,Plated,PTH,ComponentDrill
T7C0.0472
%
G90
G05
T1
X7.5945Y-2.8256
X7.5945Y-2.8807
X7.622Y-2.798
X7.622Y-2.8531
X7.622Y-2.9083
X7.6486Y-2.8256
X7.6486Y-2.8807
X7.6772Y-2.798
X7.6772Y-2.8531
X7.6772Y-2.9083
X7.7047Y-2.8256
X7.7047Y-2.8807
T2
X1.0492Y-6.1063
X1.0827Y-5.5413
X1.089Y-5.4764
X1.0996Y-5.9913
X1.128Y-5.561
X1.2264Y-6.4299
X1.2268Y-6.5744
X1.2402Y-6.2205
X1.2902Y-5.1055
X1.3272Y-6.4079
X1.3272Y-6.6006
X1.3425Y-5.6398
X1.372Y-6.5276
X1.4043Y-6.1925
X1.4723Y-5.3314
X1.4974Y-5.3064
X1.5039Y-6.1339
X1.5334Y-5.9559
X1.5473Y-5.3563
X1.5925Y-5.313
X1.6142Y-5.0039
X1.6327Y-5.0255
X1.6354Y-4.9822
X1.6496Y-5.0472
X1.9382Y-5.4154
X1.9394Y-4.6185
X1.9394Y-5.9071
X1.9398Y-6.1677
X1.9398Y-6.687
X1.9402Y-4.878
X1.9402Y-7.2075
X1.9406Y-5.6472
X1.9406Y-6.4276
X1.9722Y-4.3426
X1.9726Y-6.9265
X1.9816Y-4.0701
X1.9858Y-3.0535
X1.9858Y-3.5331
X1.9862Y-3.2728
X1.9866Y-3.7921
X2.0201Y-5.1877
X2.1339Y-2.624
X2.1465Y-7.2102
X2.2244Y-2.8898
X2.2535Y-5.2303
X2.3917Y-2.624
X2.4087Y-7.2122
X2.4862Y-2.8917
X2.513Y-5.2299
X2.6535Y-2.624
X2.6657Y-7.2098
X2.7461Y-2.8898
X2.7744Y-5.2299
X2.9134Y-2.624
X2.928Y-7.2098
X3.0059Y-2.8898
X3.0346Y-5.2307
X3.1732Y-2.624
X3.1858Y-7.2098
X3.2677Y-2.8898
X3.2945Y-5.2315
X3.435Y-2.626
X3.4457Y-7.2098
X3.5264Y-2.8894
X3.5535Y-5.2315
X3.6929Y-2.624
X3.7075Y-7.2114
X3.7543Y-2.8874
X3.9193Y-3.8929
X3.9193Y-5.9646
X3.9197Y-5.2937
X3.9197Y-6.2268
X3.9197Y-6.4874
X3.9201Y-3.6374
X3.9201Y-4.4134
X3.9201Y-4.6748
X3.9205Y-5.7067
X3.9205Y-6.7449
X3.9209Y-2.9067
X3.9213Y-3.1138
X3.9213Y-4.1539
X3.9217Y-7.0059
X3.922Y-3.374
X3.9509Y-7.2423
X3.9547Y-2.624
X3.9598Y-5.4547
X4.8965Y-3.098
X4.8969Y-4.0941
X4.8969Y-4.3602
X4.8972Y-4.6157
X4.8972Y-6.1618
X4.8972Y-6.9472
X4.8972Y-7.2063
X4.8976Y-3.8327
X4.8976Y-6.4248
X4.898Y-5.3984
X4.898Y-6.6862
X4.8984Y-4.8732
X4.8984Y-5.898
X4.8988Y-3.5791
X4.8988Y-5.6445
X4.9087Y-3.313
X4.9689Y-2.8433
X4.9933Y-5.0055
X5.0012Y-2.6228
X5.1035Y-7.2169
X5.1909Y-5.2413
X5.2287Y-2.7016
X5.3638Y-7.2169
X5.4437Y-5.2394
X5.4909Y-2.7039
X5.622Y-7.2157
X5.7071Y-5.2386
X5.7512Y-2.7031
X5.8823Y-7.2193
X5.965Y-5.2402
X6.013Y-2.7028
X6.1453Y-7.2165
X6.1949Y-2.0295
X6.2122Y-5.237
X6.2697Y-2.1575
X6.2713Y-2.7028
X6.2736Y-2.0866
X6.3563Y-1.9902
X6.4059Y-7.2169
X6.4193Y-2.2205
X6.4764Y-2.0787
X6.4807Y-5.2358
X6.5307Y-2.7024
X6.6669Y-7.2181
X6.7768Y-5.0969
X6.8622Y-2.7106
X6.8811Y-4.4138
X6.8811Y-5.9642
X6.8815Y-3.1094
X6.8815Y-3.8945
X6.8817Y-3.6338
X6.8819Y-6.2244
X6.8819Y-6.7457
X6.8819Y-7.0063
X6.8823Y-3.374
X6.8823Y-4.1539
X6.8823Y-5.4437
X6.8823Y-5.7031
X6.885Y-6.4843
X6.8898Y-2.748
X6.9127Y-7.2493
X6.9311Y-2.7736
X6.961Y-4.7823
X6.9618Y-5.2858
X7.002Y-2.6831
X7.0157Y-2.5709
X7.0453Y-2.9744
X7.1024Y-2.7717
X7.1319Y-2.565
X7.1535Y-2.9843
X7.1693Y-2.5886
X7.1703Y-2.8297
X7.2047Y-2.5394
X7.2185Y-3.2348
X7.2323Y-2.7461
X7.2402Y-3.252
X7.2677Y-2.7835
X7.4102Y-4.8791
X7.4193Y-2.6476
X7.4232Y-3.1654
X7.4311Y-2.5984
X7.4783Y-4.0472
X7.561Y-5.6307
X7.576Y-3.3858
X7.5866Y-5.3425
X7.5992Y-4.6016
X7.6988Y-3.3681
X7.8524Y-3.3917
X7.8583Y-5.5
X7.8618Y-3.587
X7.872Y-3.2992
X7.8902Y-2.6614
X7.8988Y-2.5736
X7.9193Y-3.1437
X7.9193Y-3.4036
X7.9461Y-2.5321
X7.9824Y-2.5169
X7.9941Y-2.7067
X7.9941Y-2.7539
X8.0193Y-4.6508
X8.0217Y-4.8783
X8.0264Y-5.6146
X8.0323Y-3.4768
X8.0496Y-3.9496
X8.0516Y-5.4043
X8.0724Y-3.2425
X8.1516Y-2.7972
X8.1516Y-3.2756
X8.1516Y-3.3091
X8.1535Y-3.3465
X8.1811Y-3.376
X8.2185Y-2.6594
X8.2283Y-2.5709
X8.2323Y-2.7854
X8.2579Y-2.6594
X8.2933Y-2.6594
X8.3228Y-2.8996
X8.3287Y-2.6594
X8.4291Y-2.7815
X8.4409Y-2.8406
X8.4547Y-2.9764
X8.4587Y-4.8213
X8.5268Y-7.2098
X8.5276Y-6.9492
X8.528Y-5.6453
X8.528Y-6.1606
X8.5283Y-5.8996
X8.5287Y-6.4244
X8.5291Y-4.0925
X8.5299Y-3.8357
X8.5299Y-4.3614
X8.5299Y-6.6791
X8.5303Y-2.889
X8.5307Y-4.6165
X8.5311Y-3.572
X8.5311Y-5.4331
X8.5335Y-3.3189
X8.598Y-5.124
X8.6923Y-2.4915
X8.7343Y-2.8925
X8.7362Y-7.2161
X8.8051Y-1.9882
X8.8142Y-2.8945
X8.8618Y-5.1276
X8.9965Y-7.2161
X9.0453Y-2.0669
X9.0748Y-2.8953
X9.1209Y-5.1272
X9.2571Y-7.2177
X9.3378Y-2.8949
X9.3823Y-5.1244
X9.5177Y-7.2173
X9.5961Y-2.8945
X9.6417Y-5.128
X9.7787Y-7.2165
X9.8583Y-2.8949
X9.9031Y-5.1248
X10.0406Y-7.2181
X10.1185Y-2.8937
X10.165Y-5.1276
X10.3012Y-7.2177
X10.3299Y-2.8941
X10.439Y-5.1547
X10.5024Y-7.337
X10.5209Y-6.5346
X10.5213Y-3.9457
X10.5213Y-7.0484
X10.5217Y-3.4252
X10.522Y-5.4898
X10.5224Y-3.1622
X10.5224Y-5.7531
X10.5224Y-6.7953
X10.5228Y-4.4681
X10.5228Y-4.7276
X10.5228Y-6.0126
X10.5232Y-3.6827
X10.5232Y-4.2012
X10.5236Y-6.2764
X10.5406Y-2.9197
X10.5957Y-5.289
X11.4862Y-4.8748
X11.4866Y-4.3563
X11.4866Y-4.6122
X11.487Y-4.098
X11.487Y-7.2024
X11.4874Y-5.902
X11.4874Y-6.1638
X11.4882Y-3.8354
X11.4882Y-5.4016
X11.4882Y-6.4303
X11.4886Y-6.6874
X11.4886Y-6.9452
X11.489Y-3.576
X11.4909Y-5.6437
X11.4913Y-3.315
X11.5598Y-5.0323
X11.5626Y-2.9945
X11.5815Y-2.6311
X11.6965Y-7.2161
X11.8189Y-5.0339
X11.8193Y-2.7071
X11.9516Y-7.2138
X12.0799Y-2.7063
X12.0819Y-5.0343
X12.2173Y-7.2122
X12.3402Y-5.0339
X12.3417Y-2.7079
X12.4768Y-7.2134
X12.5984Y-5.0358
X12.6039Y-2.7079
X12.737Y-7.2138
X12.8571Y-5.0398
X12.8634Y-2.7071
X12.9972Y-7.2138
X13.1232Y-5.0335
X13.1248Y-2.711
X13.2571Y-7.215
X13.3634Y-2.7264
X13.3925Y-4.9949
X13.4138Y-7.2843
X13.4795Y-3.1614
X13.4795Y-3.4244
X13.4795Y-3.6811
X13.4795Y-3.939
X13.4807Y-2.8996
X13.5492Y-5.8059
X13.5496Y-6.3276
X13.5496Y-6.5886
X13.55Y-6.8476
X13.5504Y-4.6909
X13.5508Y-5.5465
X13.5508Y-6.0681
X13.5508Y-7.1098
X13.5512Y-4.4311
X13.552Y-4.1713
X13.552Y-5.2858
T3
X1.4063Y-6.5276
X1.4417Y-6.5272
X1.478Y-6.5272
X1.5126Y-6.5283
X1.5488Y-6.5311
X1.8201Y-7.6585
X1.8446Y-7.6346
X1.8696Y-7.6095
T5
X1.2385Y-6.3884
X1.2385Y-6.6159
T6
X1.415Y-7.4417
T4
G00X1.1094Y-6.3321
M15
G01X1.0779Y-6.3321
M16
G05
G00X1.1094Y-6.6722
M15
G01X1.0779Y-6.6722
M16
G05
G00X1.2798Y-6.3321
M15
G01X1.2365Y-6.3321
M16
G05
G00X1.2798Y-6.6722
M15
G01X1.2365Y-6.6722
M16
G05
T7
G00X1.2894Y-6.9941
M15
G01X1.2894Y-6.8957
M16
G05
G00X1.3661Y-7.1299
M15
G01X1.4646Y-7.1299
M16
G05
G00X1.5335Y-6.8957
M15
G01X1.5335Y-6.9941
M16
G05
T0
M30
