%TF.GenerationSoftware,KiCad,Pcbnew,7.0.7*%
%TF.CreationDate,2023-09-22T21:21:00+02:00*%
%TF.ProjectId,ws2812-clock,77733238-3132-42d6-936c-6f636b2e6b69,rev?*%
%TF.SameCoordinates,Original*%
%TF.FileFunction,Copper,L2,Bot*%
%TF.FilePolarity,Positive*%
%FSLAX46Y46*%
G04 Gerber Fmt 4.6, Leading zero omitted, Abs format (unit mm)*
G04 Created by KiCad (PCBNEW 7.0.7) date 2023-09-22 21:21:00*
%MOMM*%
%LPD*%
G01*
G04 APERTURE LIST*
%TA.AperFunction,ComponentPad*%
%ADD10C,0.650000*%
%TD*%
%TA.AperFunction,ComponentPad*%
%ADD11O,2.100000X1.000000*%
%TD*%
%TA.AperFunction,ComponentPad*%
%ADD12O,1.800000X1.000000*%
%TD*%
%TA.AperFunction,ComponentPad*%
%ADD13C,2.000000*%
%TD*%
%TA.AperFunction,ComponentPad*%
%ADD14O,2.000000X4.600000*%
%TD*%
%TA.AperFunction,ComponentPad*%
%ADD15O,4.600000X2.000000*%
%TD*%
%TA.AperFunction,HeatsinkPad*%
%ADD16C,0.600000*%
%TD*%
%TA.AperFunction,ViaPad*%
%ADD17C,0.600000*%
%TD*%
%TA.AperFunction,ViaPad*%
%ADD18C,0.500000*%
%TD*%
%TA.AperFunction,ViaPad*%
%ADD19C,0.700000*%
%TD*%
%TA.AperFunction,ViaPad*%
%ADD20C,0.800000*%
%TD*%
%TA.AperFunction,Conductor*%
%ADD21C,0.200000*%
%TD*%
%TA.AperFunction,Conductor*%
%ADD22C,1.000000*%
%TD*%
%TA.AperFunction,Conductor*%
%ADD23C,0.500000*%
%TD*%
%TA.AperFunction,Conductor*%
%ADD24C,0.300000*%
%TD*%
%TA.AperFunction,Conductor*%
%ADD25C,0.400000*%
%TD*%
%TA.AperFunction,Conductor*%
%ADD26C,0.160000*%
%TD*%
%TA.AperFunction,Conductor*%
%ADD27C,0.150000*%
%TD*%
%TA.AperFunction,Conductor*%
%ADD28C,0.130000*%
%TD*%
G04 APERTURE END LIST*
D10*
%TO.P,USBC1,*%
%TO.N,*%
X31457500Y-162265000D03*
X31457500Y-168045000D03*
D11*
%TO.P,USBC1,1,SHIELD*%
%TO.N,GND*%
X31957500Y-160835000D03*
D12*
%TO.P,USBC1,2,SHIELD*%
X27777500Y-160835000D03*
%TO.P,USBC1,3,SHIELD*%
X27777500Y-169475000D03*
D11*
%TO.P,USBC1,4,SHIELD*%
X31957500Y-169475000D03*
%TD*%
D13*
%TO.P,J1,1,Pin_1*%
%TO.N,/BARREL_JACK_STATUS*%
X35940000Y-189020000D03*
%TD*%
D14*
%TO.P,DC1,1,1*%
%TO.N,Net-(JP2-B)*%
X38950000Y-176400000D03*
%TO.P,DC1,2,2*%
%TO.N,GND*%
X32750000Y-176400000D03*
D15*
%TO.P,DC1,3,3*%
%TO.N,Net-(JP1-A)*%
X35950000Y-181100000D03*
%TD*%
D16*
%TO.P,U1,39,GND*%
%TO.N,GND*%
X192900000Y-71770000D03*
X192900000Y-73170000D03*
X193600000Y-71070000D03*
X193600000Y-72470000D03*
X193600000Y-73870000D03*
X194275000Y-71770000D03*
X194275000Y-73170000D03*
X195000000Y-71070000D03*
X195000000Y-72470000D03*
X195000000Y-73870000D03*
X195700000Y-71770000D03*
X195700000Y-73170000D03*
%TD*%
D17*
%TO.N,+3.3V*%
X181150000Y-65150000D03*
D18*
X199690000Y-91110000D03*
D19*
X189950000Y-102800000D03*
X188750000Y-66000000D03*
D17*
X180400000Y-70400000D03*
D19*
X34100000Y-143250000D03*
D20*
X211550000Y-67550000D03*
D17*
X205040000Y-82360000D03*
D18*
X195550000Y-85550000D03*
D19*
X28650000Y-141250000D03*
D20*
X208750000Y-67550000D03*
D19*
X38200000Y-155800000D03*
D20*
X209750000Y-67550000D03*
X210650000Y-67550000D03*
D19*
X183700000Y-69750000D03*
X26650000Y-155100000D03*
D17*
%TO.N,+5V*%
X31160000Y-166990000D03*
D19*
X207800000Y-85750000D03*
D20*
X178950000Y-75550000D03*
D17*
X216670000Y-73380000D03*
D20*
X34850000Y-165800000D03*
X35720000Y-165800000D03*
X36620000Y-165790000D03*
X207050000Y-71050000D03*
X33710000Y-162760000D03*
X39340000Y-165890000D03*
X184600000Y-70700000D03*
D17*
X31150000Y-163320000D03*
D20*
X181700000Y-75800000D03*
X38420000Y-165820000D03*
D19*
X207050000Y-83200000D03*
D20*
X211400000Y-73650000D03*
D19*
X207100000Y-85000000D03*
X27500000Y-140750000D03*
D17*
X221850000Y-73470000D03*
D19*
X27660000Y-139100500D03*
D20*
X33710000Y-167654500D03*
X37540000Y-165790000D03*
D19*
X207050000Y-84050000D03*
D17*
%TO.N,GND*%
X344190000Y-140880002D03*
X267270000Y-172599998D03*
X310320002Y-183190000D03*
X174800000Y-158099998D03*
X124400000Y-163190002D03*
X165880000Y-68640000D03*
X255030002Y-183340000D03*
X344150000Y-147470002D03*
X99560000Y-158159998D03*
X69749998Y-73400000D03*
X164610000Y-132990000D03*
X225090000Y-130240000D03*
X267290000Y-93539998D03*
X124390000Y-183040002D03*
X344180000Y-119149998D03*
X176830000Y-134260002D03*
X267730000Y-74160000D03*
X342410000Y-73649998D03*
X216640000Y-103950002D03*
X49280000Y-183070002D03*
X124370000Y-78690002D03*
X340170000Y-126870000D03*
X326570000Y-128010000D03*
X223879998Y-73520000D03*
X151510000Y-133100000D03*
X131850000Y-133130000D03*
X204510000Y-137270000D03*
X243739998Y-73520000D03*
X291750000Y-123820002D03*
X221900002Y-183290000D03*
X192700000Y-135700000D03*
X291760000Y-117150002D03*
X124420000Y-123780002D03*
X174790000Y-98919998D03*
X74000002Y-66650000D03*
X99570000Y-118739998D03*
X49270000Y-169850002D03*
X49280000Y-123900002D03*
X339430000Y-69250000D03*
X89569998Y-73390000D03*
X136240002Y-183310000D03*
X99560000Y-134459998D03*
X93800002Y-66650000D03*
X216630000Y-163180002D03*
X80600002Y-66650000D03*
X313440000Y-127860000D03*
X293690000Y-76060000D03*
X237179998Y-73530000D03*
X124400000Y-97350002D03*
X241750002Y-183320000D03*
X267280000Y-152719998D03*
X124380000Y-110750002D03*
X267260000Y-139439998D03*
X344160000Y-160720002D03*
X132810000Y-68620000D03*
X49290000Y-143440002D03*
X159290000Y-68650000D03*
X174800000Y-171339998D03*
X174800000Y-177959998D03*
X266760000Y-186360002D03*
X57239998Y-132850000D03*
X174810000Y-85699998D03*
X49270000Y-156660002D03*
X126210000Y-72219998D03*
X297090002Y-183290000D03*
X50450002Y-83130000D03*
X251540000Y-130170000D03*
X90259998Y-132880000D03*
X267270000Y-146129998D03*
X333330000Y-127850000D03*
X203870000Y-142610002D03*
X188220000Y-123930000D03*
X76349998Y-73400000D03*
X176050000Y-70450000D03*
X124410000Y-169830002D03*
X229750000Y-52500000D03*
X129630002Y-183310000D03*
X174780000Y-112109998D03*
D18*
X204020000Y-88310000D03*
D17*
X216610000Y-143390002D03*
X216680000Y-117260002D03*
X146080000Y-68660000D03*
X291770000Y-182940002D03*
X63149998Y-73450000D03*
X244900000Y-130250000D03*
X70469998Y-132840000D03*
X231670000Y-130230000D03*
X38949500Y-151280000D03*
X261650002Y-183330000D03*
X99600000Y-79089998D03*
X214850000Y-122459998D03*
X316910002Y-183220000D03*
X300200000Y-127860000D03*
X336730002Y-183260000D03*
X161450000Y-50550000D03*
X142800002Y-183280000D03*
X193020000Y-116880000D03*
X267240000Y-100219998D03*
D19*
X214100000Y-70650000D03*
D17*
X175583174Y-184133174D03*
X320000000Y-127910000D03*
X267290000Y-106709998D03*
X323520002Y-183230000D03*
X99550000Y-98879998D03*
X200630000Y-65370000D03*
X313480000Y-68780000D03*
X157350000Y-51550000D03*
X138270000Y-133080000D03*
X344190000Y-180590002D03*
X176810000Y-121470002D03*
X174810000Y-138269998D03*
X50332463Y-103380087D03*
X200410000Y-67600000D03*
X126830000Y-127140000D03*
X159350000Y-53000000D03*
X333370000Y-68860000D03*
X216660000Y-110780002D03*
X35670000Y-157290000D03*
X267280000Y-113489998D03*
X216660000Y-169650002D03*
X267240000Y-179029998D03*
X267280000Y-120079998D03*
X94170002Y-183170000D03*
X216600000Y-176510002D03*
X203750000Y-123910002D03*
X235130002Y-183330000D03*
X291880000Y-84200002D03*
X340709998Y-185020000D03*
X216690000Y-138000002D03*
X192050000Y-143020000D03*
X51309913Y-131767537D03*
X342380000Y-93499998D03*
X31500000Y-158000000D03*
X124410000Y-137120002D03*
X174810000Y-144859998D03*
X344220000Y-105949998D03*
X344220000Y-134260002D03*
X269130000Y-134340002D03*
X124390000Y-176460002D03*
X306880000Y-127870000D03*
X342380000Y-86979998D03*
X342380000Y-100049998D03*
X177850000Y-68150000D03*
X124380000Y-103990002D03*
X32770000Y-129680000D03*
X174300000Y-68850000D03*
X49260000Y-117310002D03*
X188550000Y-80400000D03*
X216658298Y-97427789D03*
X95359998Y-73340000D03*
X124430000Y-90910002D03*
X83679998Y-132880000D03*
X63829998Y-132840000D03*
X291810446Y-176409136D03*
D20*
X47488858Y-193281592D03*
D17*
X87520002Y-183130000D03*
X238310000Y-130160000D03*
X216610000Y-156480002D03*
X178200000Y-65300000D03*
X99600000Y-105509998D03*
X127029998Y-66620000D03*
X257009998Y-73500000D03*
X267270000Y-80319998D03*
X172130000Y-129460000D03*
X344200000Y-112549998D03*
X99550000Y-151499998D03*
X203690000Y-118130002D03*
X258190000Y-130240000D03*
X77079998Y-132860000D03*
X99580000Y-144949998D03*
D20*
X46852462Y-193917990D03*
D17*
X124680000Y-84149500D03*
X344160000Y-167350002D03*
X250399998Y-73530000D03*
X291780000Y-149910002D03*
X216750000Y-84300002D03*
X99590000Y-73829998D03*
X67400002Y-66650000D03*
X27930000Y-152180000D03*
X54200000Y-66650000D03*
X50103174Y-175933174D03*
X100353174Y-183953174D03*
X267230000Y-165979998D03*
X320140000Y-68780000D03*
X82999998Y-73400000D03*
X216620000Y-149850002D03*
X99570000Y-112099998D03*
X49290000Y-163260002D03*
X330130002Y-183230000D03*
X300210000Y-68760000D03*
D20*
X46230209Y-194526102D03*
D17*
X223650000Y-50500000D03*
X216580000Y-183130002D03*
X169340002Y-183340000D03*
X201150000Y-79850000D03*
X291800000Y-97420002D03*
X56499998Y-73400000D03*
X60750000Y-66650000D03*
X174810000Y-105509998D03*
X306830000Y-68740000D03*
X230499998Y-73540000D03*
X149410002Y-183370000D03*
X218390000Y-130150000D03*
X291800000Y-137200002D03*
X99620000Y-85699998D03*
X87250002Y-66700000D03*
X54520002Y-183140000D03*
X228510002Y-183290000D03*
X74370002Y-183130000D03*
X50440002Y-89740000D03*
X183000000Y-64500000D03*
X342380000Y-80299998D03*
X157790000Y-133020000D03*
X174794739Y-92299165D03*
X162710002Y-183310000D03*
X291820000Y-90830002D03*
X139470000Y-68680000D03*
X124390000Y-117240002D03*
X99580000Y-171319998D03*
X248380002Y-183300000D03*
X49260000Y-150040002D03*
D19*
X209100000Y-70750000D03*
D17*
X303570002Y-183230000D03*
X294170000Y-66830000D03*
X344190000Y-154130002D03*
X124430000Y-143370002D03*
X99610000Y-177949998D03*
X50440002Y-77560000D03*
X124390000Y-156510002D03*
X175000000Y-69800000D03*
X265150000Y-130930000D03*
X291870000Y-143350002D03*
X67710002Y-183130000D03*
X49230000Y-137550002D03*
D19*
X209000000Y-65300000D03*
D17*
X174880000Y-164699998D03*
X293620000Y-127820000D03*
D19*
X192430000Y-86000000D03*
D17*
X188450000Y-67250000D03*
X344170000Y-173930002D03*
X291770000Y-104090002D03*
X291760000Y-110650002D03*
X144960000Y-133060000D03*
X174780000Y-151489998D03*
X124420000Y-149810002D03*
X61180002Y-183190000D03*
X80920002Y-183130000D03*
X326730000Y-68760000D03*
X267300000Y-159419998D03*
X50093174Y-110303174D03*
X262379998Y-73510000D03*
X291780000Y-156560002D03*
X100450002Y-66650000D03*
X174790000Y-78979998D03*
X99560000Y-164779998D03*
X99570000Y-92389998D03*
X50460002Y-96320000D03*
X156090002Y-183300000D03*
X291810000Y-169860002D03*
X291800000Y-163330002D03*
X216690000Y-90730002D03*
X267250000Y-86999998D03*
X152730000Y-68650000D03*
X100580000Y-138550000D03*
D18*
%TO.N,/EN*%
X183900000Y-82600500D03*
X182100000Y-65750000D03*
X182124414Y-71875586D03*
X41000000Y-127098346D03*
D17*
%TO.N,Net-(D120-DOUT)*%
X199600000Y-139700000D03*
X214750000Y-75600000D03*
D19*
%TO.N,/ESP_RX*%
X38033141Y-134782641D03*
X40450000Y-134950000D03*
D18*
X41900000Y-128200000D03*
X203050000Y-69950000D03*
%TO.N,/ESP_TX*%
X41470547Y-127647846D03*
X203050000Y-68750000D03*
D19*
X39300500Y-136050000D03*
X37397097Y-135418685D03*
D18*
%TO.N,/IO0*%
X41538796Y-126548846D03*
X183350500Y-82163524D03*
D20*
%TO.N,/AP_STATUS_LED*%
X199950000Y-83800000D03*
X163050000Y-56400000D03*
%TO.N,/STA_STATUS_LED*%
X201831035Y-64314616D03*
X159250000Y-54800000D03*
D18*
%TO.N,/ALARM_STATUS_LED*%
X214400000Y-72150000D03*
X220784770Y-63284770D03*
D20*
%TO.N,/TOGGLE_AP*%
X164500000Y-52800000D03*
X202752901Y-63928394D03*
D18*
%TO.N,/SCL*%
X199450000Y-86150000D03*
X201150000Y-86450500D03*
D17*
%TO.N,/BARREL_JACK_STATUS*%
X204460000Y-100320000D03*
%TD*%
D21*
%TO.N,+3.3V*%
X205040000Y-86990000D02*
X205050000Y-87000000D01*
D22*
X190360000Y-66600000D02*
X207800000Y-66600000D01*
D21*
X205050000Y-87000000D02*
X212750000Y-87000000D01*
D23*
X209400000Y-99100000D02*
X212750000Y-95750000D01*
X38199500Y-147350500D02*
X38199500Y-155799500D01*
D21*
X180400000Y-71750000D02*
X180400000Y-70400000D01*
D23*
X57050000Y-128500000D02*
X141050000Y-128500000D01*
X189950000Y-102800000D02*
X193650000Y-99100000D01*
D22*
X187450000Y-66000000D02*
X183700000Y-69750000D01*
D23*
X141050000Y-128500000D02*
X164250000Y-128500000D01*
X212750000Y-95750000D02*
X212750000Y-87000000D01*
X193650000Y-99100000D02*
X209400000Y-99100000D01*
D21*
X199620000Y-87000000D02*
X205050000Y-87000000D01*
D22*
X189760000Y-66000000D02*
X190360000Y-66600000D01*
D23*
X27350000Y-155800000D02*
X38200000Y-155800000D01*
D22*
X207800000Y-66600000D02*
X208750000Y-67550000D01*
D23*
X26650000Y-155100000D02*
X27350000Y-155800000D01*
D24*
X183350000Y-66000000D02*
X188750000Y-66000000D01*
D21*
X183024414Y-72425586D02*
X181075586Y-72425586D01*
D22*
X188750000Y-66000000D02*
X189760000Y-66000000D01*
X188750000Y-66000000D02*
X187450000Y-66000000D01*
D23*
X38200000Y-147350000D02*
X57050000Y-128500000D01*
X28650000Y-141250000D02*
X30650000Y-143250000D01*
X212750000Y-87000000D02*
X212750000Y-81850000D01*
D21*
X199690000Y-91110000D02*
X199690000Y-87070000D01*
D24*
X181150000Y-65150000D02*
X182500000Y-65150000D01*
X182500000Y-65150000D02*
X183350000Y-66000000D01*
D23*
X38199500Y-155799500D02*
X38200000Y-155800000D01*
D21*
X195550000Y-85550000D02*
X197000000Y-87000000D01*
D23*
X34100000Y-143250000D02*
X38200000Y-147350000D01*
D21*
X183700000Y-69750000D02*
X183700000Y-71750000D01*
D23*
X164250000Y-128500000D02*
X189950000Y-102800000D01*
D21*
X181075586Y-72425586D02*
X180400000Y-71750000D01*
D23*
X212750000Y-68750000D02*
X211550000Y-67550000D01*
X38200000Y-147350000D02*
X38199500Y-147350500D01*
D21*
X183700000Y-71750000D02*
X183024414Y-72425586D01*
X199690000Y-87070000D02*
X199620000Y-87000000D01*
D23*
X212750000Y-81850000D02*
X212750000Y-68750000D01*
X30650000Y-143250000D02*
X34100000Y-143250000D01*
X211550000Y-67550000D02*
X208750000Y-67550000D01*
D21*
X197000000Y-87000000D02*
X199620000Y-87000000D01*
X205040000Y-82360000D02*
X205040000Y-86990000D01*
D24*
%TO.N,+5V*%
X179200000Y-75800000D02*
X181700000Y-75800000D01*
D23*
X33045500Y-166990000D02*
X31160000Y-166990000D01*
X33150000Y-163320000D02*
X31150000Y-163320000D01*
D24*
X184600000Y-72900000D02*
X181700000Y-75800000D01*
D23*
X37530000Y-165800000D02*
X37540000Y-165790000D01*
X39070000Y-165800000D02*
X39160000Y-165890000D01*
X207100000Y-85050000D02*
X207800000Y-85750000D01*
D24*
X27500000Y-140750000D02*
X27500000Y-139260500D01*
D25*
X216670000Y-73380000D02*
X216760000Y-73470000D01*
D23*
X207360000Y-70740000D02*
X207958629Y-70740000D01*
D24*
X184600000Y-70700000D02*
X184600000Y-72900000D01*
X27500000Y-139260500D02*
X27660000Y-139100500D01*
D23*
X37540000Y-165790000D02*
X37550000Y-165800000D01*
X34250000Y-166400000D02*
X34850000Y-165800000D01*
X33710000Y-162760000D02*
X33150000Y-163320000D01*
X207100000Y-85000000D02*
X207100000Y-85050000D01*
X33710000Y-166400000D02*
X33710000Y-162760000D01*
X36630000Y-165800000D02*
X37530000Y-165800000D01*
D21*
X31160000Y-163330000D02*
X31150000Y-163320000D01*
D23*
X39340000Y-166070000D02*
X39090000Y-165820000D01*
X38440000Y-165800000D02*
X39070000Y-165800000D01*
X39160000Y-165890000D02*
X39340000Y-165890000D01*
X34850000Y-165800000D02*
X35720000Y-165800000D01*
X33710000Y-166400000D02*
X34250000Y-166400000D01*
X207050000Y-84050000D02*
X207050000Y-85000000D01*
X207958629Y-70740000D02*
X210868629Y-73650000D01*
X38400000Y-165800000D02*
X38420000Y-165820000D01*
X207050000Y-71050000D02*
X207050000Y-83200000D01*
X207050000Y-85000000D02*
X207100000Y-85000000D01*
D24*
X178950000Y-75550000D02*
X179200000Y-75800000D01*
D23*
X37550000Y-165800000D02*
X38400000Y-165800000D01*
X35720000Y-165800000D02*
X36610000Y-165800000D01*
X31160000Y-166990000D02*
X31160000Y-163330000D01*
X207050000Y-85000000D02*
X207050000Y-85000000D01*
X210868629Y-73650000D02*
X211400000Y-73650000D01*
D25*
X216760000Y-73470000D02*
X221850000Y-73470000D01*
D23*
X36620000Y-165790000D02*
X36630000Y-165800000D01*
X39340000Y-165890000D02*
X39340000Y-166070000D01*
X207050000Y-71050000D02*
X207360000Y-70740000D01*
X207050000Y-83200000D02*
X207050000Y-84050000D01*
X33710000Y-167654500D02*
X33045500Y-166990000D01*
X38420000Y-165820000D02*
X38440000Y-165800000D01*
X33710000Y-167654500D02*
X33710000Y-166400000D01*
X36610000Y-165800000D02*
X36620000Y-165790000D01*
D24*
%TO.N,GND*%
X293690000Y-76060000D02*
X294170000Y-75580000D01*
X178200000Y-65300000D02*
X178200000Y-67800000D01*
X179000000Y-64500000D02*
X183000000Y-64500000D01*
X126210000Y-67439998D02*
X127029998Y-66620000D01*
X126210000Y-72219998D02*
X126210000Y-67439998D01*
X178200000Y-67800000D02*
X177850000Y-68150000D01*
X294170000Y-75580000D02*
X294170000Y-66830000D01*
X178200000Y-65300000D02*
X179000000Y-64500000D01*
D25*
X208930000Y-65370000D02*
X209000000Y-65300000D01*
X200630000Y-65370000D02*
X208930000Y-65370000D01*
D21*
%TO.N,/EN*%
X44984314Y-123984314D02*
X86218628Y-82750000D01*
X86218628Y-82750000D02*
X90200000Y-82750000D01*
X90200000Y-82750000D02*
X183750500Y-82750000D01*
X41870282Y-127098346D02*
X41884314Y-127084314D01*
X183750500Y-82750000D02*
X183900000Y-82600500D01*
X182100000Y-71851172D02*
X182124414Y-71875586D01*
X182100000Y-65750000D02*
X182100000Y-71851172D01*
X41000000Y-127098346D02*
X41870282Y-127098346D01*
X41884314Y-127084314D02*
X44984314Y-123984314D01*
D26*
%TO.N,Net-(D120-DOUT)*%
X218500000Y-122250000D02*
X218500000Y-79350000D01*
X218500000Y-79350000D02*
X214750000Y-75600000D01*
X201050000Y-139700000D02*
X218500000Y-122250000D01*
X199600000Y-139700000D02*
X201050000Y-139700000D01*
D21*
%TO.N,/ESP_RX*%
X86550000Y-83550000D02*
X183505996Y-83550000D01*
X184905996Y-84950000D02*
X201100000Y-84950000D01*
X41900000Y-128200000D02*
X86550000Y-83550000D01*
X183505996Y-83550000D02*
X184905996Y-84950000D01*
X201100000Y-84950000D02*
X202650000Y-83400000D01*
X202650000Y-70350000D02*
X203050000Y-69950000D01*
X38200500Y-134950000D02*
X40450000Y-134950000D01*
X202650000Y-83400000D02*
X202650000Y-70350000D01*
X38033141Y-134782641D02*
X38200500Y-134950000D01*
%TO.N,/ESP_TX*%
X202250000Y-83234314D02*
X200934314Y-84550000D01*
X203050000Y-68750000D02*
X202250000Y-69550000D01*
X185071682Y-84550000D02*
X183671682Y-83150000D01*
X37749946Y-135418685D02*
X37763902Y-135432641D01*
X39300500Y-135850500D02*
X39300500Y-136050000D01*
X183671682Y-83150000D02*
X86384314Y-83150000D01*
X41886468Y-127647846D02*
X41470547Y-127647846D01*
X38882641Y-135432641D02*
X39300500Y-135850500D01*
X37763902Y-135432641D02*
X38882641Y-135432641D01*
X200934314Y-84550000D02*
X185071682Y-84550000D01*
X86384314Y-83150000D02*
X41886468Y-127647846D01*
X202250000Y-69550000D02*
X202250000Y-83234314D01*
X37397097Y-135418685D02*
X37749946Y-135418685D01*
%TO.N,/IO0*%
X182350000Y-82350000D02*
X160200000Y-82350000D01*
X183200000Y-82350000D02*
X182350000Y-82350000D01*
X102250000Y-82350000D02*
X86052942Y-82350000D01*
X81526471Y-86876471D02*
X65451471Y-102951471D01*
X183350500Y-82163524D02*
X183350500Y-82199500D01*
X183350500Y-82199500D02*
X183200000Y-82350000D01*
X41854096Y-126548846D02*
X41538796Y-126548846D01*
X131000000Y-82350000D02*
X102250000Y-82350000D01*
X160200000Y-82350000D02*
X131000000Y-82350000D01*
X86052942Y-82350000D02*
X81526471Y-86876471D01*
X65451471Y-102951471D02*
X42701471Y-125701471D01*
X42701471Y-125701471D02*
X41854096Y-126548846D01*
D27*
%TO.N,/AP_STATUS_LED*%
X163682268Y-56400000D02*
X163050000Y-56400000D01*
X199575000Y-84175000D02*
X185227012Y-84175000D01*
X184425000Y-82383037D02*
X183680487Y-81638524D01*
X183680487Y-81638524D02*
X181533929Y-81638524D01*
X178200000Y-70917732D02*
X163682268Y-56400000D01*
X199950000Y-83800000D02*
X199575000Y-84175000D01*
X181533929Y-81638524D02*
X178200000Y-78304595D01*
X178200000Y-78304595D02*
X178200000Y-70917732D01*
X184425000Y-83372988D02*
X184425000Y-82383037D01*
X185227012Y-84175000D02*
X184425000Y-83372988D01*
%TO.N,/STA_STATUS_LED*%
X162577242Y-54800000D02*
X159250000Y-54800000D01*
X201406419Y-63890000D02*
X171667241Y-63890000D01*
X201831035Y-64314616D02*
X201406419Y-63890000D01*
X171667241Y-63890000D02*
X162577242Y-54800000D01*
D28*
%TO.N,/ALARM_STATUS_LED*%
X220784770Y-65765230D02*
X214400000Y-72150000D01*
X220784770Y-63284770D02*
X220784770Y-65765230D01*
%TO.N,/TOGGLE_AP*%
X164500000Y-56241926D02*
X164500000Y-52800000D01*
X171808074Y-63550000D02*
X164500000Y-56241926D01*
X202374507Y-63550000D02*
X171808074Y-63550000D01*
X202752901Y-63928394D02*
X202374507Y-63550000D01*
D21*
%TO.N,/SCL*%
X199450000Y-86150000D02*
X200849500Y-86150000D01*
X200849500Y-86150000D02*
X201150000Y-86450500D01*
D24*
%TO.N,/BARREL_JACK_STATUS*%
X35940000Y-189020000D02*
X40580000Y-189020000D01*
X193278528Y-100320000D02*
X204460000Y-100320000D01*
X100500000Y-129100000D02*
X164498528Y-129100000D01*
X190650000Y-103089950D02*
X190650000Y-102948528D01*
X40580000Y-189020000D02*
X100500000Y-129100000D01*
X190650000Y-102948528D02*
X193278528Y-100320000D01*
X164498528Y-129100000D02*
X190098528Y-103500000D01*
X190098528Y-103500000D02*
X190239950Y-103500000D01*
X190239950Y-103500000D02*
X190650000Y-103089950D01*
%TD*%
%TA.AperFunction,Conductor*%
%TO.N,GND*%
G36*
X341211173Y-49019872D02*
G01*
X341912421Y-49060215D01*
X342232861Y-49079113D01*
X342861823Y-49139541D01*
X343251862Y-49177957D01*
X343847928Y-49258367D01*
X344266290Y-49316233D01*
X344842225Y-49416523D01*
X345274558Y-49493728D01*
X345836001Y-49613816D01*
X346275131Y-49710164D01*
X346824645Y-49849909D01*
X347266585Y-49965232D01*
X347805320Y-50124439D01*
X348247343Y-50258525D01*
X348775778Y-50436964D01*
X349216020Y-50589626D01*
X349734431Y-50787108D01*
X350171080Y-50958009D01*
X350679382Y-51174282D01*
X351111118Y-51363127D01*
X351608982Y-51597870D01*
X351664958Y-51625020D01*
X352034776Y-51804395D01*
X352521889Y-52057313D01*
X352820587Y-52216969D01*
X352940506Y-52281067D01*
X353205340Y-52431722D01*
X353416554Y-52551875D01*
X353440833Y-52566105D01*
X353827161Y-52792536D01*
X354012838Y-52907792D01*
X354291540Y-53080792D01*
X354693234Y-53337933D01*
X354900584Y-53477921D01*
X355145632Y-53643360D01*
X355537452Y-53916443D01*
X355931181Y-54204815D01*
X355977371Y-54238645D01*
X356358647Y-54527264D01*
X356785466Y-54865734D01*
X357155491Y-55169405D01*
X357358399Y-55343378D01*
X357568780Y-55523759D01*
X357767674Y-55700500D01*
X357926801Y-55841903D01*
X358078804Y-55982683D01*
X358326121Y-56211741D01*
X358671427Y-56543746D01*
X359056253Y-56928572D01*
X359388258Y-57273878D01*
X359412915Y-57300500D01*
X359743528Y-57657469D01*
X359758089Y-57673190D01*
X360076229Y-58031205D01*
X360403295Y-58412669D01*
X360430578Y-58444489D01*
X360734254Y-58814519D01*
X361072741Y-59241359D01*
X361361354Y-59622628D01*
X361577089Y-59917182D01*
X361661916Y-60033001D01*
X361683552Y-60062541D01*
X361705885Y-60094584D01*
X361956639Y-60454367D01*
X362262067Y-60906766D01*
X362312095Y-60984917D01*
X362519207Y-61308459D01*
X362807462Y-61772836D01*
X362860980Y-61864146D01*
X363048124Y-62183445D01*
X363318928Y-62659485D01*
X363542686Y-63078110D01*
X363795611Y-63565236D01*
X364002129Y-63991017D01*
X364236872Y-64488881D01*
X364425717Y-64920617D01*
X364641990Y-65428919D01*
X364812910Y-65865617D01*
X365010365Y-66383956D01*
X365163038Y-66824228D01*
X365341466Y-67352632D01*
X365404231Y-67559540D01*
X365475582Y-67794751D01*
X365634767Y-68333416D01*
X365750098Y-68775386D01*
X365848457Y-69162158D01*
X365873928Y-69262317D01*
X365889835Y-69324865D01*
X365986184Y-69764002D01*
X366106271Y-70325441D01*
X366183476Y-70757774D01*
X366283766Y-71333709D01*
X366341642Y-71752145D01*
X366422040Y-72348121D01*
X366460477Y-72738369D01*
X366520885Y-73367136D01*
X366539811Y-73688062D01*
X366580128Y-74388827D01*
X366599499Y-75399971D01*
X366621534Y-121958186D01*
X366649500Y-181049500D01*
X366649500Y-181050000D01*
X366630128Y-182061173D01*
X366589811Y-182761937D01*
X366570885Y-183082863D01*
X366510477Y-183711630D01*
X366472040Y-184101878D01*
X366391642Y-184697854D01*
X366333766Y-185116290D01*
X366233476Y-185692225D01*
X366156271Y-186124558D01*
X366036184Y-186685997D01*
X365939835Y-187125134D01*
X365800098Y-187674613D01*
X365684767Y-188116583D01*
X365525582Y-188655248D01*
X365391467Y-189097366D01*
X365213038Y-189625771D01*
X365060365Y-190066043D01*
X364862910Y-190584382D01*
X364691990Y-191021080D01*
X364475717Y-191529382D01*
X364286872Y-191961118D01*
X364052129Y-192458982D01*
X363845611Y-192884763D01*
X363592686Y-193371889D01*
X363368928Y-193790514D01*
X363098124Y-194266554D01*
X362857469Y-194677152D01*
X362569207Y-195141540D01*
X362312070Y-195543229D01*
X362006639Y-195995632D01*
X361733555Y-196387454D01*
X361411354Y-196827371D01*
X361122741Y-197208640D01*
X360784268Y-197635463D01*
X360639604Y-197811736D01*
X360480584Y-198005503D01*
X360126233Y-198418789D01*
X359808089Y-198776809D01*
X359438258Y-199176121D01*
X359106253Y-199521427D01*
X358721427Y-199906253D01*
X358376121Y-200238258D01*
X357976809Y-200608089D01*
X357618789Y-200926233D01*
X357205503Y-201280584D01*
X357011736Y-201439604D01*
X356835463Y-201584268D01*
X356408640Y-201922741D01*
X356027371Y-202211354D01*
X355587454Y-202533555D01*
X355195632Y-202806639D01*
X354743229Y-203112070D01*
X354341540Y-203369207D01*
X353877152Y-203657469D01*
X353466554Y-203898124D01*
X352990514Y-204168928D01*
X352571889Y-204392686D01*
X352084763Y-204645611D01*
X351658982Y-204852129D01*
X351161118Y-205086872D01*
X350729382Y-205275717D01*
X350221080Y-205491990D01*
X349784382Y-205662910D01*
X349266043Y-205860365D01*
X348825771Y-206013038D01*
X348297366Y-206191467D01*
X347855248Y-206325582D01*
X347316583Y-206484767D01*
X346874613Y-206600098D01*
X346325134Y-206739835D01*
X345885997Y-206836184D01*
X345324558Y-206956271D01*
X344892225Y-207033476D01*
X344316290Y-207133766D01*
X343897854Y-207191642D01*
X343301878Y-207272040D01*
X342911630Y-207310477D01*
X342282863Y-207370885D01*
X341961937Y-207389811D01*
X341261173Y-207430128D01*
X340250000Y-207449500D01*
X51300000Y-207449500D01*
X50288827Y-207430128D01*
X50288826Y-207430128D01*
X49588062Y-207389811D01*
X49267136Y-207370885D01*
X48638369Y-207310477D01*
X48248121Y-207272040D01*
X47652145Y-207191642D01*
X47233709Y-207133766D01*
X46657774Y-207033476D01*
X46225441Y-206956271D01*
X45664002Y-206836184D01*
X45224865Y-206739835D01*
X44675386Y-206600098D01*
X44233416Y-206484767D01*
X43694751Y-206325582D01*
X43252633Y-206191467D01*
X42724228Y-206013038D01*
X42283956Y-205860365D01*
X41765617Y-205662910D01*
X41328919Y-205491990D01*
X40820617Y-205275717D01*
X40388881Y-205086872D01*
X39891017Y-204852129D01*
X39465236Y-204645611D01*
X38978110Y-204392686D01*
X38559485Y-204168928D01*
X38083445Y-203898124D01*
X37815120Y-203740856D01*
X37672836Y-203657462D01*
X37208459Y-203369207D01*
X36806770Y-203112070D01*
X36354367Y-202806639D01*
X35962545Y-202533555D01*
X35522628Y-202211354D01*
X35141359Y-201922741D01*
X34714519Y-201584254D01*
X34344489Y-201280578D01*
X33931210Y-200926233D01*
X33573190Y-200608089D01*
X33173878Y-200238258D01*
X32828572Y-199906253D01*
X32443746Y-199521427D01*
X32111741Y-199176121D01*
X31741910Y-198776809D01*
X31423766Y-198418789D01*
X31069415Y-198005503D01*
X30765732Y-197635463D01*
X30427249Y-197208628D01*
X30138645Y-196827371D01*
X30064844Y-196726607D01*
X29816436Y-196387443D01*
X29801084Y-196365416D01*
X29543360Y-195995632D01*
X29458218Y-195869520D01*
X29237920Y-195543215D01*
X29182737Y-195457011D01*
X28980792Y-195141540D01*
X28907399Y-195023305D01*
X28692531Y-194677152D01*
X28451875Y-194266554D01*
X28442458Y-194250000D01*
X35594556Y-194250000D01*
X35602345Y-194373815D01*
X35602467Y-194377685D01*
X35602467Y-194407125D01*
X35602468Y-194407141D01*
X35606156Y-194436340D01*
X35606522Y-194440217D01*
X35614310Y-194564005D01*
X35614311Y-194564012D01*
X35637553Y-194685852D01*
X35638162Y-194689698D01*
X35641853Y-194718915D01*
X35641857Y-194718932D01*
X35649179Y-194747447D01*
X35650029Y-194751249D01*
X35673270Y-194873083D01*
X35711593Y-194991028D01*
X35712680Y-194994769D01*
X35720004Y-195023297D01*
X35720007Y-195023305D01*
X35730851Y-195050694D01*
X35732170Y-195054358D01*
X35770497Y-195172316D01*
X35770499Y-195172321D01*
X35823306Y-195284540D01*
X35824853Y-195288116D01*
X35835695Y-195315500D01*
X35849886Y-195341314D01*
X35851653Y-195344783D01*
X35877596Y-195399912D01*
X35904463Y-195457007D01*
X35970916Y-195561721D01*
X35970920Y-195561726D01*
X35972903Y-195565080D01*
X35987085Y-195590878D01*
X35987091Y-195590887D01*
X35987093Y-195590891D01*
X36004413Y-195614730D01*
X36006594Y-195617940D01*
X36073051Y-195722661D01*
X36073053Y-195722664D01*
X36152105Y-195818222D01*
X36154492Y-195821299D01*
X36171784Y-195845100D01*
X36171809Y-195845130D01*
X36171813Y-195845135D01*
X36181832Y-195855804D01*
X36191970Y-195866601D01*
X36194545Y-195869522D01*
X36258232Y-195946505D01*
X36273610Y-195965094D01*
X36364034Y-196050008D01*
X36366769Y-196052743D01*
X36386937Y-196074220D01*
X36386942Y-196074225D01*
X36386943Y-196074226D01*
X36409635Y-196092998D01*
X36412538Y-196095557D01*
X36502970Y-196180478D01*
X36603324Y-196253389D01*
X36606380Y-196255760D01*
X36629087Y-196274545D01*
X36629096Y-196274552D01*
X36653968Y-196290335D01*
X36657173Y-196292513D01*
X36747169Y-196357898D01*
X36757520Y-196365419D01*
X36866213Y-196425173D01*
X36869567Y-196427157D01*
X36881131Y-196434495D01*
X36894425Y-196442932D01*
X36905532Y-196448158D01*
X36921068Y-196455470D01*
X36924538Y-196457238D01*
X36992915Y-196494828D01*
X37033234Y-196516994D01*
X37148574Y-196562660D01*
X37152126Y-196564197D01*
X37178752Y-196576727D01*
X37178762Y-196576731D01*
X37178779Y-196576739D01*
X37178793Y-196576743D01*
X37178809Y-196576750D01*
X37206798Y-196585843D01*
X37210447Y-196587157D01*
X37325775Y-196632819D01*
X37445921Y-196663667D01*
X37449644Y-196664749D01*
X37458422Y-196667601D01*
X37477661Y-196673852D01*
X37494491Y-196677062D01*
X37506600Y-196679373D01*
X37510374Y-196680216D01*
X37630527Y-196711066D01*
X37753578Y-196726610D01*
X37757403Y-196727217D01*
X37786341Y-196732737D01*
X37786346Y-196732738D01*
X37786354Y-196732738D01*
X37786357Y-196732739D01*
X37815769Y-196734589D01*
X37819614Y-196734953D01*
X37884767Y-196743183D01*
X37942672Y-196750499D01*
X37942682Y-196750500D01*
X38066680Y-196750500D01*
X38070575Y-196750622D01*
X38099964Y-196752472D01*
X38100000Y-196752472D01*
X38100036Y-196752472D01*
X38129422Y-196750622D01*
X38133317Y-196750500D01*
X38257318Y-196750500D01*
X38380391Y-196734952D01*
X38384227Y-196734589D01*
X38413643Y-196732739D01*
X38413646Y-196732738D01*
X38413652Y-196732738D01*
X38413655Y-196732737D01*
X38442596Y-196727217D01*
X38446416Y-196726611D01*
X38569473Y-196711066D01*
X38689652Y-196680209D01*
X38693373Y-196679377D01*
X38722339Y-196673852D01*
X38750378Y-196664741D01*
X38754043Y-196663676D01*
X38874225Y-196632819D01*
X38989575Y-196587148D01*
X38993208Y-196585841D01*
X39021221Y-196576739D01*
X39047876Y-196564195D01*
X39051412Y-196562665D01*
X39166766Y-196516994D01*
X39275499Y-196457217D01*
X39278902Y-196455483D01*
X39305575Y-196442932D01*
X39330445Y-196427148D01*
X39333766Y-196425184D01*
X39442484Y-196365416D01*
X39542830Y-196292509D01*
X39546031Y-196290334D01*
X39570916Y-196274542D01*
X39593635Y-196255747D01*
X39596655Y-196253404D01*
X39697030Y-196180478D01*
X39787494Y-196095526D01*
X39790329Y-196093027D01*
X39813060Y-196074223D01*
X39833261Y-196052710D01*
X39835932Y-196050039D01*
X39926390Y-195965094D01*
X40005485Y-195869484D01*
X40008003Y-195866628D01*
X40028187Y-195845135D01*
X40028201Y-195845115D01*
X40028209Y-195845106D01*
X40045514Y-195821288D01*
X40047872Y-195818247D01*
X40126947Y-195722663D01*
X40193440Y-195617885D01*
X40195564Y-195614761D01*
X40212907Y-195590891D01*
X40227116Y-195565044D01*
X40229059Y-195561759D01*
X40295537Y-195457007D01*
X40348353Y-195344766D01*
X40350096Y-195341343D01*
X40364304Y-195315501D01*
X40375160Y-195288079D01*
X40376668Y-195284594D01*
X40429503Y-195172315D01*
X40467845Y-195054310D01*
X40469148Y-195050694D01*
X40479992Y-195023306D01*
X40487319Y-194994769D01*
X40488395Y-194991063D01*
X40526731Y-194873079D01*
X40549980Y-194751199D01*
X40550820Y-194747447D01*
X40558146Y-194718916D01*
X40561840Y-194689668D01*
X40562439Y-194685885D01*
X40585688Y-194564015D01*
X40585688Y-194564012D01*
X40585689Y-194564009D01*
X40588753Y-194515289D01*
X40593477Y-194440197D01*
X40593842Y-194436347D01*
X40597532Y-194407138D01*
X40597533Y-194407131D01*
X40598167Y-194366716D01*
X40598278Y-194363886D01*
X40605444Y-194250000D01*
X350944556Y-194250000D01*
X350952345Y-194373815D01*
X350952467Y-194377685D01*
X350952467Y-194407125D01*
X350952468Y-194407141D01*
X350956156Y-194436340D01*
X350956522Y-194440217D01*
X350964310Y-194564005D01*
X350964311Y-194564012D01*
X350987553Y-194685852D01*
X350988162Y-194689698D01*
X350991853Y-194718915D01*
X350991857Y-194718932D01*
X350999179Y-194747447D01*
X351000029Y-194751249D01*
X351023270Y-194873083D01*
X351061593Y-194991028D01*
X351062680Y-194994769D01*
X351070004Y-195023297D01*
X351070007Y-195023305D01*
X351080851Y-195050694D01*
X351082170Y-195054358D01*
X351120497Y-195172316D01*
X351120499Y-195172321D01*
X351173306Y-195284540D01*
X351174853Y-195288116D01*
X351185695Y-195315500D01*
X351199886Y-195341314D01*
X351201653Y-195344783D01*
X351227596Y-195399912D01*
X351254463Y-195457007D01*
X351320916Y-195561721D01*
X351320920Y-195561726D01*
X351322903Y-195565080D01*
X351337085Y-195590878D01*
X351337091Y-195590887D01*
X351337093Y-195590891D01*
X351354413Y-195614730D01*
X351356594Y-195617940D01*
X351423051Y-195722661D01*
X351423053Y-195722664D01*
X351502105Y-195818222D01*
X351504492Y-195821299D01*
X351521784Y-195845100D01*
X351521809Y-195845130D01*
X351521813Y-195845135D01*
X351531832Y-195855804D01*
X351541970Y-195866601D01*
X351544545Y-195869522D01*
X351608232Y-195946505D01*
X351623610Y-195965094D01*
X351714034Y-196050008D01*
X351716769Y-196052743D01*
X351736937Y-196074220D01*
X351736942Y-196074225D01*
X351736943Y-196074226D01*
X351759635Y-196092998D01*
X351762538Y-196095557D01*
X351852970Y-196180478D01*
X351953324Y-196253389D01*
X351956380Y-196255760D01*
X351979087Y-196274545D01*
X351979096Y-196274552D01*
X352003968Y-196290335D01*
X352007173Y-196292513D01*
X352097169Y-196357898D01*
X352107520Y-196365419D01*
X352216213Y-196425173D01*
X352219567Y-196427157D01*
X352231131Y-196434495D01*
X352244425Y-196442932D01*
X352255532Y-196448158D01*
X352271068Y-196455470D01*
X352274538Y-196457238D01*
X352342915Y-196494828D01*
X352383234Y-196516994D01*
X352498574Y-196562660D01*
X352502126Y-196564197D01*
X352528752Y-196576727D01*
X352528762Y-196576731D01*
X352528779Y-196576739D01*
X352528793Y-196576743D01*
X352528809Y-196576750D01*
X352556798Y-196585843D01*
X352560447Y-196587157D01*
X352675775Y-196632819D01*
X352795921Y-196663667D01*
X352799644Y-196664749D01*
X352808422Y-196667601D01*
X352827661Y-196673852D01*
X352844491Y-196677062D01*
X352856600Y-196679373D01*
X352860374Y-196680216D01*
X352980527Y-196711066D01*
X353103578Y-196726610D01*
X353107403Y-196727217D01*
X353136341Y-196732737D01*
X353136346Y-196732738D01*
X353136354Y-196732738D01*
X353136357Y-196732739D01*
X353165769Y-196734589D01*
X353169614Y-196734953D01*
X353234767Y-196743183D01*
X353292672Y-196750499D01*
X353292682Y-196750500D01*
X353416680Y-196750500D01*
X353420575Y-196750622D01*
X353449964Y-196752472D01*
X353450000Y-196752472D01*
X353450036Y-196752472D01*
X353479422Y-196750622D01*
X353483317Y-196750500D01*
X353607318Y-196750500D01*
X353730391Y-196734952D01*
X353734227Y-196734589D01*
X353763643Y-196732739D01*
X353763646Y-196732738D01*
X353763652Y-196732738D01*
X353763655Y-196732737D01*
X353792596Y-196727217D01*
X353796416Y-196726611D01*
X353919473Y-196711066D01*
X354039652Y-196680209D01*
X354043373Y-196679377D01*
X354072339Y-196673852D01*
X354100378Y-196664741D01*
X354104043Y-196663676D01*
X354224225Y-196632819D01*
X354339575Y-196587148D01*
X354343208Y-196585841D01*
X354371221Y-196576739D01*
X354397876Y-196564195D01*
X354401412Y-196562665D01*
X354516766Y-196516994D01*
X354625499Y-196457217D01*
X354628902Y-196455483D01*
X354655575Y-196442932D01*
X354680445Y-196427148D01*
X354683766Y-196425184D01*
X354792484Y-196365416D01*
X354892830Y-196292509D01*
X354896031Y-196290334D01*
X354920916Y-196274542D01*
X354943635Y-196255747D01*
X354946655Y-196253404D01*
X355047030Y-196180478D01*
X355137494Y-196095526D01*
X355140329Y-196093027D01*
X355163060Y-196074223D01*
X355183261Y-196052710D01*
X355185932Y-196050039D01*
X355276390Y-195965094D01*
X355355485Y-195869484D01*
X355358003Y-195866628D01*
X355378187Y-195845135D01*
X355378201Y-195845115D01*
X355378209Y-195845106D01*
X355395514Y-195821288D01*
X355397872Y-195818247D01*
X355476947Y-195722663D01*
X355543440Y-195617885D01*
X355545564Y-195614761D01*
X355562907Y-195590891D01*
X355577116Y-195565044D01*
X355579059Y-195561759D01*
X355645537Y-195457007D01*
X355698353Y-195344766D01*
X355700096Y-195341343D01*
X355714304Y-195315501D01*
X355725160Y-195288079D01*
X355726668Y-195284594D01*
X355779503Y-195172315D01*
X355817845Y-195054310D01*
X355819148Y-195050694D01*
X355829992Y-195023306D01*
X355837319Y-194994769D01*
X355838395Y-194991063D01*
X355876731Y-194873079D01*
X355899980Y-194751199D01*
X355900820Y-194747447D01*
X355908146Y-194718916D01*
X355911840Y-194689668D01*
X355912439Y-194685885D01*
X355935688Y-194564015D01*
X355935688Y-194564012D01*
X355935689Y-194564009D01*
X355938753Y-194515289D01*
X355943477Y-194440197D01*
X355943842Y-194436347D01*
X355947532Y-194407138D01*
X355947533Y-194407131D01*
X355948167Y-194366716D01*
X355948278Y-194363886D01*
X355955444Y-194250000D01*
X355948279Y-194136116D01*
X355948167Y-194133280D01*
X355947533Y-194092869D01*
X355947532Y-194092862D01*
X355947532Y-194092854D01*
X355943842Y-194063650D01*
X355943477Y-194059796D01*
X355939203Y-193991855D01*
X355935689Y-193935990D01*
X355935687Y-193935982D01*
X355912436Y-193814093D01*
X355911838Y-193810313D01*
X355911836Y-193810300D01*
X355908146Y-193781084D01*
X355900825Y-193752569D01*
X355899975Y-193748767D01*
X355877013Y-193628400D01*
X355876731Y-193626921D01*
X355838399Y-193508950D01*
X355837318Y-193505226D01*
X355829994Y-193476701D01*
X355829993Y-193476699D01*
X355829992Y-193476694D01*
X355819134Y-193449269D01*
X355817844Y-193445686D01*
X355779503Y-193327685D01*
X355726682Y-193215435D01*
X355725157Y-193211912D01*
X355714304Y-193184499D01*
X355714285Y-193184465D01*
X355700113Y-193158685D01*
X355698344Y-193155213D01*
X355679334Y-193114816D01*
X355645537Y-193042993D01*
X355579061Y-192938244D01*
X355577095Y-192934917D01*
X355562907Y-192909109D01*
X355545579Y-192885259D01*
X355543427Y-192882093D01*
X355476947Y-192777337D01*
X355476946Y-192777336D01*
X355476945Y-192777334D01*
X355397898Y-192681782D01*
X355395511Y-192678704D01*
X355378221Y-192654906D01*
X355378191Y-192654871D01*
X355378187Y-192654865D01*
X355364102Y-192639866D01*
X355358028Y-192633397D01*
X355355462Y-192630487D01*
X355276390Y-192534906D01*
X355276388Y-192534904D01*
X355276384Y-192534899D01*
X355185973Y-192449998D01*
X355183221Y-192447246D01*
X355181864Y-192445801D01*
X355163060Y-192425777D01*
X355163059Y-192425776D01*
X355163057Y-192425774D01*
X355163049Y-192425766D01*
X355140361Y-192406998D01*
X355137439Y-192404422D01*
X355047031Y-192319523D01*
X355047021Y-192319515D01*
X354946688Y-192246619D01*
X354943609Y-192244231D01*
X354920918Y-192225459D01*
X354920900Y-192225446D01*
X354896030Y-192209663D01*
X354892807Y-192207473D01*
X354792485Y-192134584D01*
X354683788Y-192074826D01*
X354680439Y-192072845D01*
X354656435Y-192057614D01*
X354655575Y-192057068D01*
X354655574Y-192057067D01*
X354655567Y-192057063D01*
X354628929Y-192044528D01*
X354625460Y-192042760D01*
X354516759Y-191983002D01*
X354516756Y-191983001D01*
X354401463Y-191937354D01*
X354397887Y-191935807D01*
X354371239Y-191923268D01*
X354371199Y-191923252D01*
X354343198Y-191914154D01*
X354339532Y-191912834D01*
X354224227Y-191867181D01*
X354104091Y-191836335D01*
X354100353Y-191835249D01*
X354072336Y-191826147D01*
X354043418Y-191820630D01*
X354039619Y-191819781D01*
X353919471Y-191788933D01*
X353796435Y-191773390D01*
X353792588Y-191772781D01*
X353763666Y-191767264D01*
X353763644Y-191767261D01*
X353763643Y-191767261D01*
X353763640Y-191767260D01*
X353763594Y-191767255D01*
X353734219Y-191765407D01*
X353730342Y-191765040D01*
X353607330Y-191749500D01*
X353607318Y-191749500D01*
X353483273Y-191749500D01*
X353479402Y-191749378D01*
X353454162Y-191747790D01*
X353450002Y-191747529D01*
X353449998Y-191747529D01*
X353445837Y-191747790D01*
X353420597Y-191749378D01*
X353416727Y-191749500D01*
X353292682Y-191749500D01*
X353292680Y-191749500D01*
X353292667Y-191749501D01*
X353169656Y-191765040D01*
X353165779Y-191765407D01*
X353136395Y-191767255D01*
X353136338Y-191767262D01*
X353107410Y-191772781D01*
X353103563Y-191773390D01*
X352980530Y-191788933D01*
X352980528Y-191788933D01*
X352860386Y-191819779D01*
X352856589Y-191820628D01*
X352827669Y-191826146D01*
X352827665Y-191826147D01*
X352827661Y-191826148D01*
X352817385Y-191829486D01*
X352799651Y-191835248D01*
X352795913Y-191836334D01*
X352675769Y-191867182D01*
X352560466Y-191912834D01*
X352556801Y-191914154D01*
X352528808Y-191923249D01*
X352528760Y-191923268D01*
X352502129Y-191935800D01*
X352498554Y-191937347D01*
X352383233Y-191983005D01*
X352274538Y-192042761D01*
X352271069Y-192044529D01*
X352244433Y-192057063D01*
X352244422Y-192057069D01*
X352219557Y-192072847D01*
X352216208Y-192074828D01*
X352107512Y-192134585D01*
X352107510Y-192134587D01*
X352007184Y-192207478D01*
X352003962Y-192209667D01*
X351979114Y-192225436D01*
X351979073Y-192225466D01*
X351956391Y-192244229D01*
X351953315Y-192246616D01*
X351852966Y-192319524D01*
X351852965Y-192319525D01*
X351762569Y-192404413D01*
X351759647Y-192406989D01*
X351736961Y-192425756D01*
X351736933Y-192425782D01*
X351730207Y-192432945D01*
X351716772Y-192447252D01*
X351714018Y-192450005D01*
X351623611Y-192534904D01*
X351544545Y-192630476D01*
X351541972Y-192633396D01*
X351531547Y-192644497D01*
X351521828Y-192654847D01*
X351521782Y-192654902D01*
X351504492Y-192678701D01*
X351502105Y-192681778D01*
X351423053Y-192777335D01*
X351423048Y-192777342D01*
X351356593Y-192882058D01*
X351354405Y-192885278D01*
X351337086Y-192909118D01*
X351337082Y-192909125D01*
X351322897Y-192934926D01*
X351320916Y-192938276D01*
X351254464Y-193042990D01*
X351201649Y-193155223D01*
X351199877Y-193158701D01*
X351198375Y-193161433D01*
X351185713Y-193184465D01*
X351185701Y-193184489D01*
X351185696Y-193184499D01*
X351185693Y-193184506D01*
X351185687Y-193184519D01*
X351174854Y-193211879D01*
X351173308Y-193215452D01*
X351120500Y-193327676D01*
X351120496Y-193327687D01*
X351082168Y-193445644D01*
X351080850Y-193449307D01*
X351070009Y-193476689D01*
X351070004Y-193476703D01*
X351062679Y-193505230D01*
X351061593Y-193508969D01*
X351023269Y-193626918D01*
X351023268Y-193626924D01*
X351000029Y-193748749D01*
X350999179Y-193752550D01*
X350991858Y-193781059D01*
X350991852Y-193781093D01*
X350988162Y-193810300D01*
X350987553Y-193814146D01*
X350964312Y-193935982D01*
X350964310Y-193935999D01*
X350956522Y-194059781D01*
X350956156Y-194063658D01*
X350952468Y-194092846D01*
X350952467Y-194092874D01*
X350952467Y-194122313D01*
X350952345Y-194126185D01*
X350944556Y-194250000D01*
X40605444Y-194250000D01*
X40598279Y-194136116D01*
X40598167Y-194133280D01*
X40597533Y-194092869D01*
X40597532Y-194092862D01*
X40597532Y-194092854D01*
X40593842Y-194063650D01*
X40593477Y-194059796D01*
X40589203Y-193991855D01*
X40585689Y-193935990D01*
X40585687Y-193935982D01*
X40562436Y-193814093D01*
X40561838Y-193810313D01*
X40561836Y-193810300D01*
X40558146Y-193781084D01*
X40550825Y-193752569D01*
X40549975Y-193748767D01*
X40527013Y-193628400D01*
X40526731Y-193626921D01*
X40488399Y-193508950D01*
X40487318Y-193505226D01*
X40479994Y-193476701D01*
X40479993Y-193476699D01*
X40479992Y-193476694D01*
X40469134Y-193449269D01*
X40467844Y-193445686D01*
X40429503Y-193327685D01*
X40376682Y-193215435D01*
X40375157Y-193211912D01*
X40364304Y-193184499D01*
X40364285Y-193184465D01*
X40350113Y-193158685D01*
X40348344Y-193155213D01*
X40329334Y-193114816D01*
X40295537Y-193042993D01*
X40229061Y-192938244D01*
X40227095Y-192934917D01*
X40212907Y-192909109D01*
X40195579Y-192885259D01*
X40193427Y-192882093D01*
X40126947Y-192777337D01*
X40126946Y-192777336D01*
X40126945Y-192777334D01*
X40047898Y-192681782D01*
X40045511Y-192678704D01*
X40028221Y-192654906D01*
X40028191Y-192654871D01*
X40028187Y-192654865D01*
X40014102Y-192639866D01*
X40008028Y-192633397D01*
X40005462Y-192630487D01*
X39926390Y-192534906D01*
X39926388Y-192534904D01*
X39926384Y-192534899D01*
X39835973Y-192449998D01*
X39833221Y-192447246D01*
X39831864Y-192445801D01*
X39813060Y-192425777D01*
X39813059Y-192425776D01*
X39813057Y-192425774D01*
X39813049Y-192425766D01*
X39790361Y-192406998D01*
X39787439Y-192404422D01*
X39697031Y-192319523D01*
X39697021Y-192319515D01*
X39596688Y-192246619D01*
X39593609Y-192244231D01*
X39570918Y-192225459D01*
X39570900Y-192225446D01*
X39546030Y-192209663D01*
X39542807Y-192207473D01*
X39442485Y-192134584D01*
X39333788Y-192074826D01*
X39330439Y-192072845D01*
X39306435Y-192057614D01*
X39305575Y-192057068D01*
X39305574Y-192057067D01*
X39305567Y-192057063D01*
X39278929Y-192044528D01*
X39275460Y-192042760D01*
X39166759Y-191983002D01*
X39166756Y-191983001D01*
X39051463Y-191937354D01*
X39047887Y-191935807D01*
X39021239Y-191923268D01*
X39021199Y-191923252D01*
X38993198Y-191914154D01*
X38989532Y-191912834D01*
X38874227Y-191867181D01*
X38754091Y-191836335D01*
X38750353Y-191835249D01*
X38722336Y-191826147D01*
X38693418Y-191820630D01*
X38689619Y-191819781D01*
X38569471Y-191788933D01*
X38446435Y-191773390D01*
X38442588Y-191772781D01*
X38413666Y-191767264D01*
X38413644Y-191767261D01*
X38413643Y-191767261D01*
X38413640Y-191767260D01*
X38413594Y-191767255D01*
X38384219Y-191765407D01*
X38380342Y-191765040D01*
X38257330Y-191749500D01*
X38257318Y-191749500D01*
X38133273Y-191749500D01*
X38129402Y-191749378D01*
X38104162Y-191747790D01*
X38100002Y-191747529D01*
X38099998Y-191747529D01*
X38095837Y-191747790D01*
X38070597Y-191749378D01*
X38066727Y-191749500D01*
X37942682Y-191749500D01*
X37942680Y-191749500D01*
X37942667Y-191749501D01*
X37819656Y-191765040D01*
X37815779Y-191765407D01*
X37786395Y-191767255D01*
X37786338Y-191767262D01*
X37757410Y-191772781D01*
X37753563Y-191773390D01*
X37630530Y-191788933D01*
X37630528Y-191788933D01*
X37510386Y-191819779D01*
X37506589Y-191820628D01*
X37477669Y-191826146D01*
X37477665Y-191826147D01*
X37477661Y-191826148D01*
X37467385Y-191829486D01*
X37449651Y-191835248D01*
X37445913Y-191836334D01*
X37325769Y-191867182D01*
X37210466Y-191912834D01*
X37206801Y-191914154D01*
X37178808Y-191923249D01*
X37178760Y-191923268D01*
X37152129Y-191935800D01*
X37148554Y-191937347D01*
X37033233Y-191983005D01*
X36924538Y-192042761D01*
X36921069Y-192044529D01*
X36894433Y-192057063D01*
X36894422Y-192057069D01*
X36869557Y-192072847D01*
X36866208Y-192074828D01*
X36757512Y-192134585D01*
X36757510Y-192134587D01*
X36657184Y-192207478D01*
X36653962Y-192209667D01*
X36629114Y-192225436D01*
X36629073Y-192225466D01*
X36606391Y-192244229D01*
X36603315Y-192246616D01*
X36502966Y-192319524D01*
X36502965Y-192319525D01*
X36412569Y-192404413D01*
X36409647Y-192406989D01*
X36386961Y-192425756D01*
X36386933Y-192425782D01*
X36380207Y-192432945D01*
X36366772Y-192447252D01*
X36364018Y-192450005D01*
X36273611Y-192534904D01*
X36194545Y-192630476D01*
X36191972Y-192633396D01*
X36181547Y-192644497D01*
X36171828Y-192654847D01*
X36171782Y-192654902D01*
X36154492Y-192678701D01*
X36152105Y-192681778D01*
X36073053Y-192777335D01*
X36073048Y-192777342D01*
X36006593Y-192882058D01*
X36004405Y-192885278D01*
X35987086Y-192909118D01*
X35987082Y-192909125D01*
X35972897Y-192934926D01*
X35970916Y-192938276D01*
X35904464Y-193042990D01*
X35851649Y-193155223D01*
X35849877Y-193158701D01*
X35848375Y-193161433D01*
X35835713Y-193184465D01*
X35835701Y-193184489D01*
X35835696Y-193184499D01*
X35835693Y-193184506D01*
X35835687Y-193184519D01*
X35824854Y-193211879D01*
X35823308Y-193215452D01*
X35770500Y-193327676D01*
X35770496Y-193327687D01*
X35732168Y-193445644D01*
X35730850Y-193449307D01*
X35720009Y-193476689D01*
X35720004Y-193476703D01*
X35712679Y-193505230D01*
X35711593Y-193508969D01*
X35673269Y-193626918D01*
X35673268Y-193626924D01*
X35650029Y-193748749D01*
X35649179Y-193752550D01*
X35641858Y-193781059D01*
X35641852Y-193781093D01*
X35638162Y-193810300D01*
X35637553Y-193814146D01*
X35614312Y-193935982D01*
X35614310Y-193935999D01*
X35606522Y-194059781D01*
X35606156Y-194063658D01*
X35602468Y-194092846D01*
X35602467Y-194092874D01*
X35602467Y-194122313D01*
X35602345Y-194126185D01*
X35594556Y-194250000D01*
X28442458Y-194250000D01*
X28263823Y-193935982D01*
X28181065Y-193790503D01*
X28176035Y-193781093D01*
X28030583Y-193508969D01*
X27957313Y-193371889D01*
X27730429Y-192934917D01*
X27704381Y-192884750D01*
X27652281Y-192777334D01*
X27581050Y-192630476D01*
X27497870Y-192458982D01*
X27263127Y-191961118D01*
X27074282Y-191529382D01*
X26858009Y-191021080D01*
X26687089Y-190584382D01*
X26662754Y-190520500D01*
X26489626Y-190066020D01*
X26336964Y-189625778D01*
X26158525Y-189097343D01*
X26024439Y-188655320D01*
X25865231Y-188116579D01*
X25811915Y-187912261D01*
X25749901Y-187674613D01*
X25610164Y-187125131D01*
X25513800Y-186685927D01*
X25489637Y-186572960D01*
X25393728Y-186124558D01*
X25316523Y-185692225D01*
X25296960Y-185579881D01*
X25216233Y-185116290D01*
X25158350Y-184697804D01*
X25077959Y-184101878D01*
X25039541Y-183711823D01*
X24979114Y-183082863D01*
X24960188Y-182761937D01*
X24919872Y-182061173D01*
X24903840Y-181224334D01*
X33149500Y-181224334D01*
X33190429Y-181469616D01*
X33271169Y-181704802D01*
X33271172Y-181704811D01*
X33389524Y-181923506D01*
X33389526Y-181923509D01*
X33542262Y-182119744D01*
X33701744Y-182266557D01*
X33725217Y-182288166D01*
X33933393Y-182424173D01*
X34161118Y-182524063D01*
X34329215Y-182566631D01*
X34402179Y-182585108D01*
X34402181Y-182585108D01*
X34402186Y-182585109D01*
X34535376Y-182596145D01*
X34587933Y-182600500D01*
X34587935Y-182600500D01*
X37312065Y-182600500D01*
X37312067Y-182600500D01*
X37373284Y-182595427D01*
X37497813Y-182585109D01*
X37497816Y-182585108D01*
X37497821Y-182585108D01*
X37738881Y-182524063D01*
X37966607Y-182424173D01*
X38174785Y-182288164D01*
X38357738Y-182119744D01*
X38510474Y-181923509D01*
X38628828Y-181704810D01*
X38709571Y-181469614D01*
X38750500Y-181224335D01*
X38750500Y-180975665D01*
X38709571Y-180730386D01*
X38628828Y-180495190D01*
X38510474Y-180276491D01*
X38357738Y-180080256D01*
X38174785Y-179911836D01*
X38174782Y-179911833D01*
X37966606Y-179775826D01*
X37738881Y-179675936D01*
X37497824Y-179614892D01*
X37497813Y-179614890D01*
X37332548Y-179601197D01*
X37312067Y-179599500D01*
X34587933Y-179599500D01*
X34568521Y-179601108D01*
X34402186Y-179614890D01*
X34402175Y-179614892D01*
X34161118Y-179675936D01*
X33933393Y-179775826D01*
X33725217Y-179911833D01*
X33542261Y-180080257D01*
X33389524Y-180276493D01*
X33271172Y-180495188D01*
X33271169Y-180495197D01*
X33190429Y-180730383D01*
X33149500Y-180975665D01*
X33149500Y-181224334D01*
X24903840Y-181224334D01*
X24900500Y-181050000D01*
X24900500Y-177762041D01*
X31250000Y-177762041D01*
X31265385Y-177947730D01*
X31265387Y-177947738D01*
X31326412Y-178188717D01*
X31426267Y-178416367D01*
X31562232Y-178624478D01*
X31730592Y-178807364D01*
X31730602Y-178807373D01*
X31926762Y-178960051D01*
X31926771Y-178960057D01*
X32145385Y-179078364D01*
X32145395Y-179078369D01*
X32380509Y-179159084D01*
X32399999Y-179162336D01*
X32400000Y-179162335D01*
X32400000Y-178340047D01*
X32419685Y-178273008D01*
X32472489Y-178227253D01*
X32541647Y-178217309D01*
X32571447Y-178225485D01*
X32593369Y-178234565D01*
X32750000Y-178255186D01*
X32906631Y-178234565D01*
X32928548Y-178225486D01*
X32998014Y-178218017D01*
X33060494Y-178249290D01*
X33096148Y-178309378D01*
X33100000Y-178340047D01*
X33100000Y-179162336D01*
X33119489Y-179159084D01*
X33119490Y-179159084D01*
X33354604Y-179078369D01*
X33354614Y-179078364D01*
X33573228Y-178960057D01*
X33573237Y-178960051D01*
X33769397Y-178807373D01*
X33769407Y-178807364D01*
X33937767Y-178624478D01*
X34073732Y-178416367D01*
X34173587Y-178188717D01*
X34234612Y-177947738D01*
X34234614Y-177947730D01*
X34249998Y-177762065D01*
X37449500Y-177762065D01*
X37464890Y-177947813D01*
X37464892Y-177947824D01*
X37525936Y-178188881D01*
X37625826Y-178416606D01*
X37761833Y-178624782D01*
X37761836Y-178624785D01*
X37930256Y-178807738D01*
X38126491Y-178960474D01*
X38126493Y-178960475D01*
X38344332Y-179078364D01*
X38345190Y-179078828D01*
X38580386Y-179159571D01*
X38825665Y-179200500D01*
X39074335Y-179200500D01*
X39319614Y-179159571D01*
X39554810Y-179078828D01*
X39773509Y-178960474D01*
X39969744Y-178807738D01*
X40138164Y-178624785D01*
X40274173Y-178416607D01*
X40374063Y-178188881D01*
X40435108Y-177947821D01*
X40450500Y-177762067D01*
X40450500Y-175037933D01*
X40446145Y-174985376D01*
X40435109Y-174852186D01*
X40435107Y-174852175D01*
X40374063Y-174611118D01*
X40274173Y-174383393D01*
X40138166Y-174175217D01*
X40116557Y-174151744D01*
X39969744Y-173992262D01*
X39773509Y-173839526D01*
X39773507Y-173839525D01*
X39773506Y-173839524D01*
X39554811Y-173721172D01*
X39554802Y-173721169D01*
X39319616Y-173640429D01*
X39074335Y-173599500D01*
X38825665Y-173599500D01*
X38580383Y-173640429D01*
X38345197Y-173721169D01*
X38345188Y-173721172D01*
X38126493Y-173839524D01*
X37930257Y-173992261D01*
X37761833Y-174175217D01*
X37625826Y-174383393D01*
X37525936Y-174611118D01*
X37464892Y-174852175D01*
X37464890Y-174852186D01*
X37449500Y-175037935D01*
X37449500Y-177762065D01*
X34249998Y-177762065D01*
X34250000Y-177762041D01*
X34250000Y-176750000D01*
X33473999Y-176750000D01*
X33406960Y-176730315D01*
X33361205Y-176677511D01*
X33349999Y-176626000D01*
X33349999Y-176174000D01*
X33369684Y-176106961D01*
X33422488Y-176061206D01*
X33473999Y-176050000D01*
X34250000Y-176050000D01*
X34250000Y-175037959D01*
X34234614Y-174852269D01*
X34234612Y-174852261D01*
X34173587Y-174611282D01*
X34073732Y-174383632D01*
X33937767Y-174175521D01*
X33769407Y-173992635D01*
X33769397Y-173992626D01*
X33573237Y-173839948D01*
X33573228Y-173839942D01*
X33354614Y-173721635D01*
X33354604Y-173721630D01*
X33119491Y-173640916D01*
X33119484Y-173640914D01*
X33100000Y-173637662D01*
X33099999Y-173637663D01*
X33099999Y-174459952D01*
X33080314Y-174526992D01*
X33027510Y-174572746D01*
X32958352Y-174582690D01*
X32928550Y-174574514D01*
X32906631Y-174565435D01*
X32750000Y-174544814D01*
X32593369Y-174565435D01*
X32593368Y-174565435D01*
X32571450Y-174574514D01*
X32501980Y-174581981D01*
X32439501Y-174550705D01*
X32403850Y-174490616D01*
X32399999Y-174459952D01*
X32399999Y-173637662D01*
X32380515Y-173640914D01*
X32380508Y-173640916D01*
X32145395Y-173721630D01*
X32145385Y-173721635D01*
X31926771Y-173839942D01*
X31926762Y-173839948D01*
X31730602Y-173992626D01*
X31730592Y-173992635D01*
X31562232Y-174175521D01*
X31426267Y-174383632D01*
X31326412Y-174611282D01*
X31265387Y-174852261D01*
X31265385Y-174852269D01*
X31250000Y-175037959D01*
X31250000Y-176050000D01*
X32026001Y-176050000D01*
X32093040Y-176069685D01*
X32138795Y-176122489D01*
X32150001Y-176174000D01*
X32150001Y-176626000D01*
X32130316Y-176693039D01*
X32077512Y-176738794D01*
X32026001Y-176750000D01*
X31250000Y-176750000D01*
X31250000Y-177762041D01*
X24900500Y-177762041D01*
X24900500Y-169125000D01*
X26435355Y-169125000D01*
X27016851Y-169125000D01*
X27083890Y-169144685D01*
X27129645Y-169197489D01*
X27139589Y-169266647D01*
X27115805Y-169323727D01*
X27104300Y-169338960D01*
X27104298Y-169338965D01*
X27073605Y-169446837D01*
X27083954Y-169558520D01*
X27127379Y-169645728D01*
X27139640Y-169714514D01*
X27112767Y-169779009D01*
X27055291Y-169818736D01*
X27016379Y-169825000D01*
X26440746Y-169825000D01*
X26475063Y-169917660D01*
X26475065Y-169917664D01*
X26582649Y-170090267D01*
X26722764Y-170237668D01*
X26722766Y-170237669D01*
X26889695Y-170353856D01*
X27076592Y-170434059D01*
X27275810Y-170475000D01*
X27427500Y-170475000D01*
X27427500Y-169899000D01*
X27447185Y-169831961D01*
X27499989Y-169786206D01*
X27551500Y-169775000D01*
X28003500Y-169775000D01*
X28070539Y-169794685D01*
X28116294Y-169847489D01*
X28127500Y-169899000D01*
X28127500Y-170475000D01*
X28228213Y-170475000D01*
X28379838Y-170459581D01*
X28573881Y-170398700D01*
X28573891Y-170398695D01*
X28751715Y-170299994D01*
X28751716Y-170299994D01*
X28906030Y-170167521D01*
X28906031Y-170167520D01*
X29030518Y-170006695D01*
X29119645Y-169825000D01*
X28538149Y-169825000D01*
X28471110Y-169805315D01*
X28425355Y-169752511D01*
X28415411Y-169683353D01*
X28439195Y-169626273D01*
X28450699Y-169611039D01*
X28450698Y-169611039D01*
X28450700Y-169611038D01*
X28456695Y-169589967D01*
X28481394Y-169503162D01*
X28481394Y-169503160D01*
X28471045Y-169391479D01*
X28427621Y-169304272D01*
X28415360Y-169235486D01*
X28442233Y-169170991D01*
X28499709Y-169131264D01*
X28538621Y-169125000D01*
X29114254Y-169125000D01*
X29079936Y-169032339D01*
X29079934Y-169032335D01*
X28972350Y-168859732D01*
X28832235Y-168712331D01*
X28832233Y-168712330D01*
X28665304Y-168596143D01*
X28478407Y-168515940D01*
X28279190Y-168475000D01*
X28127500Y-168475000D01*
X28127500Y-169051000D01*
X28107815Y-169118039D01*
X28055011Y-169163794D01*
X28003500Y-169175000D01*
X27551500Y-169175000D01*
X27484461Y-169155315D01*
X27438706Y-169102511D01*
X27427500Y-169051000D01*
X27427500Y-168475000D01*
X27326787Y-168475000D01*
X27175161Y-168490418D01*
X26981118Y-168551299D01*
X26981108Y-168551304D01*
X26803284Y-168650005D01*
X26803283Y-168650005D01*
X26648969Y-168782478D01*
X26648968Y-168782479D01*
X26524481Y-168943304D01*
X26435355Y-169125000D01*
X24900500Y-169125000D01*
X24900500Y-163320003D01*
X30344435Y-163320003D01*
X30364631Y-163499252D01*
X30402541Y-163607594D01*
X30409499Y-163648548D01*
X30409499Y-166690029D01*
X30402541Y-166730982D01*
X30374631Y-166810745D01*
X30374631Y-166810746D01*
X30354435Y-166989996D01*
X30354435Y-166990003D01*
X30374630Y-167169249D01*
X30374631Y-167169254D01*
X30434211Y-167339523D01*
X30530184Y-167492262D01*
X30656787Y-167618865D01*
X30690272Y-167680188D01*
X30687039Y-167744859D01*
X30681321Y-167762460D01*
X30679953Y-167766244D01*
X30675184Y-167778214D01*
X30657400Y-167822848D01*
X30657399Y-167822850D01*
X30654544Y-167840267D01*
X30650111Y-167858514D01*
X30645592Y-167872421D01*
X30645591Y-167872427D01*
X30639203Y-167933194D01*
X30638726Y-167936741D01*
X30628350Y-168000043D01*
X30629118Y-168014220D01*
X30628621Y-168033877D01*
X30627453Y-168044998D01*
X30627453Y-168045001D01*
X30634175Y-168108967D01*
X30634423Y-168112089D01*
X30638070Y-168179333D01*
X30638072Y-168179345D01*
X30640947Y-168189701D01*
X30644784Y-168209895D01*
X30645591Y-168217573D01*
X30645592Y-168217575D01*
X30645592Y-168217576D01*
X30666869Y-168283061D01*
X30678685Y-168325620D01*
X30686106Y-168352349D01*
X30689522Y-168358792D01*
X30697891Y-168378542D01*
X30699211Y-168382606D01*
X30699213Y-168382610D01*
X30699214Y-168382611D01*
X30735139Y-168444834D01*
X30770214Y-168510992D01*
X30772697Y-168513915D01*
X30785566Y-168532177D01*
X30785973Y-168532882D01*
X30789352Y-168537533D01*
X30812830Y-168603340D01*
X30797003Y-168671393D01*
X30769802Y-168704502D01*
X30678970Y-168782478D01*
X30678968Y-168782479D01*
X30554481Y-168943304D01*
X30465355Y-169125000D01*
X31046851Y-169125000D01*
X31113890Y-169144685D01*
X31159645Y-169197489D01*
X31169589Y-169266647D01*
X31145805Y-169323727D01*
X31134300Y-169338960D01*
X31134298Y-169338965D01*
X31103605Y-169446837D01*
X31113954Y-169558520D01*
X31157379Y-169645728D01*
X31169640Y-169714514D01*
X31142767Y-169779009D01*
X31085291Y-169818736D01*
X31046379Y-169825000D01*
X30470746Y-169825000D01*
X30505063Y-169917660D01*
X30505065Y-169917664D01*
X30612649Y-170090267D01*
X30752764Y-170237668D01*
X30752766Y-170237669D01*
X30919695Y-170353856D01*
X31106592Y-170434059D01*
X31305810Y-170475000D01*
X31607500Y-170475000D01*
X31607500Y-169899000D01*
X31627185Y-169831961D01*
X31679989Y-169786206D01*
X31731500Y-169775000D01*
X32183500Y-169775000D01*
X32250539Y-169794685D01*
X32296294Y-169847489D01*
X32307500Y-169899000D01*
X32307500Y-170475000D01*
X32558213Y-170475000D01*
X32709838Y-170459581D01*
X32903881Y-170398700D01*
X32903891Y-170398695D01*
X33081715Y-170299994D01*
X33081716Y-170299994D01*
X33236030Y-170167521D01*
X33236031Y-170167520D01*
X33360518Y-170006695D01*
X33449645Y-169825000D01*
X32868149Y-169825000D01*
X32801110Y-169805315D01*
X32755355Y-169752511D01*
X32745411Y-169683353D01*
X32769195Y-169626273D01*
X32780699Y-169611039D01*
X32780698Y-169611039D01*
X32780700Y-169611038D01*
X32786695Y-169589967D01*
X32811394Y-169503162D01*
X32811394Y-169503160D01*
X32801045Y-169391479D01*
X32757621Y-169304272D01*
X32745360Y-169235486D01*
X32772233Y-169170991D01*
X32829709Y-169131264D01*
X32868621Y-169125000D01*
X33444254Y-169125000D01*
X33409936Y-169032339D01*
X33409934Y-169032335D01*
X33302350Y-168859732D01*
X33162235Y-168712331D01*
X33162233Y-168712330D01*
X32995304Y-168596143D01*
X32808407Y-168515940D01*
X32609190Y-168475000D01*
X32357670Y-168475000D01*
X32290631Y-168455315D01*
X32244876Y-168402511D01*
X32234932Y-168333353D01*
X32242478Y-168305101D01*
X32251260Y-168283061D01*
X32257601Y-168267147D01*
X32260454Y-168249736D01*
X32264893Y-168231469D01*
X32269408Y-168217575D01*
X32272651Y-168186714D01*
X32275798Y-168156764D01*
X32276267Y-168153280D01*
X32286650Y-168089955D01*
X32285881Y-168075779D01*
X32286378Y-168056113D01*
X32287547Y-168045000D01*
X32280819Y-167980994D01*
X32280574Y-167977900D01*
X32276929Y-167910661D01*
X32274055Y-167900311D01*
X32270211Y-167880067D01*
X32269933Y-167877421D01*
X32282524Y-167808697D01*
X32330272Y-167757688D01*
X32393258Y-167740500D01*
X32683270Y-167740500D01*
X32750309Y-167760185D01*
X32770951Y-167776819D01*
X32797228Y-167803096D01*
X32827478Y-167852458D01*
X32882819Y-168022780D01*
X32882821Y-168022784D01*
X32977467Y-168186716D01*
X33064217Y-168283061D01*
X33104129Y-168327388D01*
X33257265Y-168438648D01*
X33257270Y-168438651D01*
X33430192Y-168515642D01*
X33430197Y-168515644D01*
X33615354Y-168555000D01*
X33615355Y-168555000D01*
X33804644Y-168555000D01*
X33804646Y-168555000D01*
X33989803Y-168515644D01*
X34162730Y-168438651D01*
X34315871Y-168327388D01*
X34442533Y-168186716D01*
X34537179Y-168022784D01*
X34595674Y-167842756D01*
X34615460Y-167654500D01*
X34595674Y-167466244D01*
X34537179Y-167286216D01*
X34520045Y-167256540D01*
X34503573Y-167188640D01*
X34526425Y-167122613D01*
X34564564Y-167090893D01*
X34563162Y-167088621D01*
X34567926Y-167085681D01*
X34574879Y-167082314D01*
X34575118Y-167082116D01*
X34575969Y-167081720D01*
X34575994Y-167081774D01*
X34582690Y-167078532D01*
X34582663Y-167078478D01*
X34589106Y-167075240D01*
X34589117Y-167075237D01*
X34653283Y-167033034D01*
X34718656Y-166992712D01*
X34718662Y-166992705D01*
X34724325Y-166988229D01*
X34724362Y-166988277D01*
X34730204Y-166983518D01*
X34730164Y-166983471D01*
X34735684Y-166978837D01*
X34735696Y-166978830D01*
X34788387Y-166922980D01*
X35002771Y-166708594D01*
X35064090Y-166675112D01*
X35064400Y-166675045D01*
X35129803Y-166661144D01*
X35234564Y-166614500D01*
X35303812Y-166605215D01*
X35335435Y-166614501D01*
X35440192Y-166661142D01*
X35440197Y-166661144D01*
X35625354Y-166700500D01*
X35625355Y-166700500D01*
X35814644Y-166700500D01*
X35814646Y-166700500D01*
X35999803Y-166661144D01*
X36130794Y-166602822D01*
X36200045Y-166593537D01*
X36231663Y-166602820D01*
X36340197Y-166651144D01*
X36525354Y-166690500D01*
X36525355Y-166690500D01*
X36714644Y-166690500D01*
X36714646Y-166690500D01*
X36899803Y-166651144D01*
X37029564Y-166593369D01*
X37098812Y-166584084D01*
X37130435Y-166593370D01*
X37260192Y-166651142D01*
X37260197Y-166651144D01*
X37445354Y-166690500D01*
X37445355Y-166690500D01*
X37634644Y-166690500D01*
X37634646Y-166690500D01*
X37819803Y-166651144D01*
X37895875Y-166617273D01*
X37965121Y-166607988D01*
X37996743Y-166617273D01*
X38140197Y-166681144D01*
X38325354Y-166720500D01*
X38325355Y-166720500D01*
X38514644Y-166720500D01*
X38514646Y-166720500D01*
X38699803Y-166681144D01*
X38756378Y-166655954D01*
X38825623Y-166646669D01*
X38882014Y-166673073D01*
X38882982Y-166671774D01*
X38888778Y-166676088D01*
X38888782Y-166676092D01*
X38909588Y-166688104D01*
X38924489Y-166698218D01*
X38943323Y-166713111D01*
X38990685Y-166735196D01*
X38995465Y-166737684D01*
X39040719Y-166763812D01*
X39063722Y-166770698D01*
X39080558Y-166777104D01*
X39102327Y-166787256D01*
X39153518Y-166797825D01*
X39158720Y-166799139D01*
X39208790Y-166814130D01*
X39232775Y-166815526D01*
X39250618Y-166817875D01*
X39274144Y-166822733D01*
X39309419Y-166821706D01*
X39326364Y-166821214D01*
X39331754Y-166821291D01*
X39383935Y-166824331D01*
X39407587Y-166820159D01*
X39425504Y-166818328D01*
X39449512Y-166817631D01*
X39499993Y-166804103D01*
X39505264Y-166802936D01*
X39556711Y-166793865D01*
X39578758Y-166784354D01*
X39595772Y-166778439D01*
X39618975Y-166772223D01*
X39618975Y-166772222D01*
X39618978Y-166772222D01*
X39664967Y-166747424D01*
X39669822Y-166745073D01*
X39717804Y-166724377D01*
X39737066Y-166710035D01*
X39752254Y-166700359D01*
X39773400Y-166688959D01*
X39775597Y-166687003D01*
X39787688Y-166678273D01*
X39787470Y-166677973D01*
X39857994Y-166626734D01*
X39945871Y-166562888D01*
X40072533Y-166422216D01*
X40167179Y-166258284D01*
X40225674Y-166078256D01*
X40245460Y-165890000D01*
X40225674Y-165701744D01*
X40167179Y-165521716D01*
X40072533Y-165357784D01*
X39945871Y-165217112D01*
X39945870Y-165217111D01*
X39792734Y-165105851D01*
X39792729Y-165105848D01*
X39619807Y-165028857D01*
X39619802Y-165028855D01*
X39464822Y-164995914D01*
X39434646Y-164989500D01*
X39245354Y-164989500D01*
X39220499Y-164994783D01*
X39060197Y-165028855D01*
X39060195Y-165028856D01*
X39037907Y-165038780D01*
X38987472Y-165049500D01*
X38929599Y-165049500D01*
X38879716Y-165036131D01*
X38878666Y-165038492D01*
X38699807Y-164958857D01*
X38699802Y-164958855D01*
X38554001Y-164927865D01*
X38514646Y-164919500D01*
X38325354Y-164919500D01*
X38299384Y-164925020D01*
X38140197Y-164958855D01*
X38140191Y-164958857D01*
X38064123Y-164992725D01*
X37994873Y-165002009D01*
X37963253Y-164992724D01*
X37819807Y-164928857D01*
X37819802Y-164928855D01*
X37674001Y-164897865D01*
X37634646Y-164889500D01*
X37445354Y-164889500D01*
X37412897Y-164896398D01*
X37260197Y-164928855D01*
X37130434Y-164986630D01*
X37061184Y-164995914D01*
X37029563Y-164986629D01*
X36899807Y-164928857D01*
X36899802Y-164928855D01*
X36754001Y-164897865D01*
X36714646Y-164889500D01*
X36525354Y-164889500D01*
X36478307Y-164899500D01*
X36340199Y-164928855D01*
X36209205Y-164987178D01*
X36139955Y-164996462D01*
X36108333Y-164987177D01*
X35999807Y-164938857D01*
X35999802Y-164938855D01*
X35854001Y-164907865D01*
X35814646Y-164899500D01*
X35625354Y-164899500D01*
X35585999Y-164907865D01*
X35440198Y-164938855D01*
X35440197Y-164938855D01*
X35335435Y-164985499D01*
X35266185Y-164994783D01*
X35234565Y-164985499D01*
X35129801Y-164938855D01*
X34994624Y-164910123D01*
X34944646Y-164899500D01*
X34755354Y-164899500D01*
X34610281Y-164930336D01*
X34540614Y-164925020D01*
X34484880Y-164882883D01*
X34460775Y-164817303D01*
X34460500Y-164809046D01*
X34460500Y-163294321D01*
X34477113Y-163232321D01*
X34537179Y-163128284D01*
X34595674Y-162948256D01*
X34615460Y-162760000D01*
X34595674Y-162571744D01*
X34537179Y-162391716D01*
X34442533Y-162227784D01*
X34315871Y-162087112D01*
X34304037Y-162078514D01*
X34162734Y-161975851D01*
X34162729Y-161975848D01*
X33989807Y-161898857D01*
X33989802Y-161898855D01*
X33831298Y-161865165D01*
X33804646Y-161859500D01*
X33615354Y-161859500D01*
X33588702Y-161865165D01*
X33430197Y-161898855D01*
X33430192Y-161898857D01*
X33257270Y-161975848D01*
X33257265Y-161975851D01*
X33104129Y-162087111D01*
X32977466Y-162227785D01*
X32882821Y-162391715D01*
X32882818Y-162391721D01*
X32852895Y-162483818D01*
X32813458Y-162541494D01*
X32749099Y-162568692D01*
X32734964Y-162569500D01*
X32393259Y-162569500D01*
X32326220Y-162549815D01*
X32280465Y-162497011D01*
X32269938Y-162432544D01*
X32273427Y-162399333D01*
X32275798Y-162376769D01*
X32276267Y-162373280D01*
X32286650Y-162309955D01*
X32285881Y-162295779D01*
X32286378Y-162276113D01*
X32287547Y-162265000D01*
X32280819Y-162200994D01*
X32280574Y-162197900D01*
X32276929Y-162130661D01*
X32274055Y-162120311D01*
X32270214Y-162100094D01*
X32269408Y-162092424D01*
X32248130Y-162026938D01*
X32248130Y-162026937D01*
X32238478Y-161992171D01*
X32239512Y-161922309D01*
X32278151Y-161864096D01*
X32342129Y-161836015D01*
X32357959Y-161835000D01*
X32558213Y-161835000D01*
X32709838Y-161819581D01*
X32903881Y-161758700D01*
X32903891Y-161758695D01*
X33081715Y-161659994D01*
X33081716Y-161659994D01*
X33236030Y-161527521D01*
X33236031Y-161527520D01*
X33360518Y-161366695D01*
X33449645Y-161185000D01*
X32868161Y-161185000D01*
X32801122Y-161165315D01*
X32755367Y-161112511D01*
X32745423Y-161043353D01*
X32769207Y-160986273D01*
X32780711Y-160971039D01*
X32780710Y-160971039D01*
X32780712Y-160971038D01*
X32786707Y-160949967D01*
X32811406Y-160863162D01*
X32811406Y-160863160D01*
X32801057Y-160751479D01*
X32757633Y-160664272D01*
X32745372Y-160595486D01*
X32772245Y-160530991D01*
X32829721Y-160491264D01*
X32868633Y-160485000D01*
X33444254Y-160485000D01*
X33409936Y-160392339D01*
X33409934Y-160392335D01*
X33302350Y-160219732D01*
X33162235Y-160072331D01*
X33162233Y-160072330D01*
X32995304Y-159956143D01*
X32808407Y-159875940D01*
X32609190Y-159835000D01*
X32307500Y-159835000D01*
X32307500Y-160411000D01*
X32287815Y-160478039D01*
X32235011Y-160523794D01*
X32183500Y-160535000D01*
X31731500Y-160535000D01*
X31664461Y-160515315D01*
X31618706Y-160462511D01*
X31607500Y-160411000D01*
X31607500Y-159835000D01*
X31356787Y-159835000D01*
X31205161Y-159850418D01*
X31011118Y-159911299D01*
X31011108Y-159911304D01*
X30833284Y-160010005D01*
X30833283Y-160010005D01*
X30678969Y-160142478D01*
X30678968Y-160142479D01*
X30554481Y-160303304D01*
X30465355Y-160485000D01*
X31046839Y-160485000D01*
X31113878Y-160504685D01*
X31159633Y-160557489D01*
X31169577Y-160626647D01*
X31145793Y-160683727D01*
X31134288Y-160698960D01*
X31134286Y-160698965D01*
X31103593Y-160806837D01*
X31113942Y-160918520D01*
X31157367Y-161005728D01*
X31169628Y-161074514D01*
X31142755Y-161139009D01*
X31085279Y-161178736D01*
X31046367Y-161185000D01*
X30470746Y-161185000D01*
X30505063Y-161277660D01*
X30505065Y-161277664D01*
X30612649Y-161450267D01*
X30752764Y-161597667D01*
X30757549Y-161600998D01*
X30801328Y-161655451D01*
X30808718Y-161724929D01*
X30788899Y-161771296D01*
X30789226Y-161771485D01*
X30787660Y-161774195D01*
X30787041Y-161775646D01*
X30785980Y-161777105D01*
X30758628Y-161824480D01*
X30756252Y-161828273D01*
X30723861Y-161876047D01*
X30723857Y-161876053D01*
X30716055Y-161895636D01*
X30708251Y-161911735D01*
X30699214Y-161927387D01*
X30681319Y-161982463D01*
X30679950Y-161986254D01*
X30657400Y-162042848D01*
X30657399Y-162042850D01*
X30654544Y-162060267D01*
X30650111Y-162078514D01*
X30645592Y-162092421D01*
X30645591Y-162092427D01*
X30639203Y-162153194D01*
X30638726Y-162156741D01*
X30628350Y-162220043D01*
X30629118Y-162234220D01*
X30628621Y-162253877D01*
X30627453Y-162264998D01*
X30627453Y-162265001D01*
X30634175Y-162328967D01*
X30634423Y-162332089D01*
X30638070Y-162399333D01*
X30638072Y-162399345D01*
X30640947Y-162409701D01*
X30644784Y-162429895D01*
X30645591Y-162437573D01*
X30645592Y-162437576D01*
X30666869Y-162503061D01*
X30677540Y-162541494D01*
X30684023Y-162564846D01*
X30682989Y-162634708D01*
X30652224Y-162685698D01*
X30520183Y-162817739D01*
X30424211Y-162970476D01*
X30364631Y-163140745D01*
X30364630Y-163140750D01*
X30344435Y-163319996D01*
X30344435Y-163320003D01*
X24900500Y-163320003D01*
X24900500Y-160485000D01*
X26435355Y-160485000D01*
X27016851Y-160485000D01*
X27083890Y-160504685D01*
X27129645Y-160557489D01*
X27139589Y-160626647D01*
X27115805Y-160683727D01*
X27104300Y-160698960D01*
X27104298Y-160698965D01*
X27073605Y-160806837D01*
X27083954Y-160918520D01*
X27127379Y-161005728D01*
X27139640Y-161074514D01*
X27112767Y-161139009D01*
X27055291Y-161178736D01*
X27016379Y-161185000D01*
X26440746Y-161185000D01*
X26475063Y-161277660D01*
X26475065Y-161277664D01*
X26582649Y-161450267D01*
X26722764Y-161597668D01*
X26722766Y-161597669D01*
X26889695Y-161713856D01*
X27076592Y-161794059D01*
X27275810Y-161835000D01*
X27427500Y-161835000D01*
X27427500Y-161259000D01*
X27447185Y-161191961D01*
X27499989Y-161146206D01*
X27551500Y-161135000D01*
X28003500Y-161135000D01*
X28070539Y-161154685D01*
X28116294Y-161207489D01*
X28127500Y-161259000D01*
X28127500Y-161835000D01*
X28228213Y-161835000D01*
X28379838Y-161819581D01*
X28573881Y-161758700D01*
X28573891Y-161758695D01*
X28751715Y-161659994D01*
X28751716Y-161659994D01*
X28906030Y-161527521D01*
X28906031Y-161527520D01*
X29030518Y-161366695D01*
X29119645Y-161185000D01*
X28538149Y-161185000D01*
X28471110Y-161165315D01*
X28425355Y-161112511D01*
X28415411Y-161043353D01*
X28439195Y-160986273D01*
X28450699Y-160971039D01*
X28450698Y-160971039D01*
X28450700Y-160971038D01*
X28456695Y-160949967D01*
X28481394Y-160863162D01*
X28481394Y-160863160D01*
X28471045Y-160751479D01*
X28427621Y-160664272D01*
X28415360Y-160595486D01*
X28442233Y-160530991D01*
X28499709Y-160491264D01*
X28538621Y-160485000D01*
X29114254Y-160485000D01*
X29079936Y-160392339D01*
X29079934Y-160392335D01*
X28972350Y-160219732D01*
X28832235Y-160072331D01*
X28832233Y-160072330D01*
X28665304Y-159956143D01*
X28478407Y-159875940D01*
X28279190Y-159835000D01*
X28127500Y-159835000D01*
X28127500Y-160411000D01*
X28107815Y-160478039D01*
X28055011Y-160523794D01*
X28003500Y-160535000D01*
X27551500Y-160535000D01*
X27484461Y-160515315D01*
X27438706Y-160462511D01*
X27427500Y-160411000D01*
X27427500Y-159835000D01*
X27326787Y-159835000D01*
X27175161Y-159850418D01*
X26981118Y-159911299D01*
X26981108Y-159911304D01*
X26803284Y-160010005D01*
X26803283Y-160010005D01*
X26648969Y-160142478D01*
X26648968Y-160142479D01*
X26524481Y-160303304D01*
X26435355Y-160485000D01*
X24900500Y-160485000D01*
X24900500Y-135418685D01*
X36541912Y-135418685D01*
X36560600Y-135596490D01*
X36560601Y-135596492D01*
X36615844Y-135766514D01*
X36615847Y-135766520D01*
X36705238Y-135921350D01*
X36746909Y-135967631D01*
X36824861Y-136054206D01*
X36824864Y-136054208D01*
X36824867Y-136054211D01*
X36969504Y-136159297D01*
X37132830Y-136232014D01*
X37307706Y-136269185D01*
X37307707Y-136269185D01*
X37486486Y-136269185D01*
X37486488Y-136269185D01*
X37661364Y-136232014D01*
X37824690Y-136159297D01*
X37965732Y-136056822D01*
X38031537Y-136033343D01*
X38038617Y-136033141D01*
X38331893Y-136033141D01*
X38398932Y-136052826D01*
X38444687Y-136105630D01*
X38455213Y-136144177D01*
X38456803Y-136159297D01*
X38464003Y-136227804D01*
X38464004Y-136227807D01*
X38519247Y-136397829D01*
X38519250Y-136397835D01*
X38608641Y-136552665D01*
X38650312Y-136598946D01*
X38728264Y-136685521D01*
X38728267Y-136685523D01*
X38728270Y-136685526D01*
X38872907Y-136790612D01*
X39036233Y-136863329D01*
X39211109Y-136900500D01*
X39211110Y-136900500D01*
X39389889Y-136900500D01*
X39389891Y-136900500D01*
X39564767Y-136863329D01*
X39728093Y-136790612D01*
X39872730Y-136685526D01*
X39992359Y-136552665D01*
X40081750Y-136397835D01*
X40136997Y-136227803D01*
X40155685Y-136050000D01*
X40142018Y-135919976D01*
X40154587Y-135851252D01*
X40202319Y-135800227D01*
X40270059Y-135783109D01*
X40291110Y-135785727D01*
X40360609Y-135800500D01*
X40360611Y-135800500D01*
X40539389Y-135800500D01*
X40539391Y-135800500D01*
X40714267Y-135763329D01*
X40877593Y-135690612D01*
X41022230Y-135585526D01*
X41141859Y-135452665D01*
X41231250Y-135297835D01*
X41286497Y-135127803D01*
X41305185Y-134950000D01*
X41286497Y-134772197D01*
X41255914Y-134678072D01*
X41231252Y-134602170D01*
X41231249Y-134602164D01*
X41141859Y-134447335D01*
X41053768Y-134349500D01*
X41022235Y-134314478D01*
X41022232Y-134314476D01*
X41022231Y-134314475D01*
X41022230Y-134314474D01*
X40877593Y-134209388D01*
X40714267Y-134136671D01*
X40714265Y-134136670D01*
X40586594Y-134109533D01*
X40539391Y-134099500D01*
X40360609Y-134099500D01*
X40329954Y-134106015D01*
X40185733Y-134136670D01*
X40185728Y-134136672D01*
X40022408Y-134209387D01*
X39877772Y-134314472D01*
X39874245Y-134317649D01*
X39811253Y-134347879D01*
X39791271Y-134349500D01*
X38836731Y-134349500D01*
X38769692Y-134329815D01*
X38729343Y-134287498D01*
X38728501Y-134286040D01*
X38725000Y-134279976D01*
X38605376Y-134147119D01*
X38605373Y-134147117D01*
X38605372Y-134147116D01*
X38605371Y-134147115D01*
X38460734Y-134042029D01*
X38297408Y-133969312D01*
X38297406Y-133969311D01*
X38169735Y-133942174D01*
X38122532Y-133932141D01*
X37943750Y-133932141D01*
X37913095Y-133938656D01*
X37768874Y-133969311D01*
X37768869Y-133969313D01*
X37605549Y-134042028D01*
X37460909Y-134147116D01*
X37341281Y-134279977D01*
X37251891Y-134434805D01*
X37251887Y-134434815D01*
X37223318Y-134522738D01*
X37183880Y-134580413D01*
X37138614Y-134602140D01*
X37139007Y-134603349D01*
X37132825Y-134605357D01*
X36969505Y-134678072D01*
X36824865Y-134783160D01*
X36705237Y-134916021D01*
X36615847Y-135070849D01*
X36615844Y-135070855D01*
X36560601Y-135240877D01*
X36560600Y-135240879D01*
X36541912Y-135418685D01*
X24900500Y-135418685D01*
X24900500Y-75600000D01*
X24919872Y-74588827D01*
X24930659Y-74401338D01*
X24960192Y-73887982D01*
X24966270Y-73784935D01*
X24979114Y-73567132D01*
X24979871Y-73559254D01*
X25039547Y-72938110D01*
X25077955Y-72548150D01*
X25158369Y-71952055D01*
X25216230Y-71533728D01*
X25316532Y-70957720D01*
X25317660Y-70951410D01*
X25393729Y-70525435D01*
X25513842Y-69963878D01*
X25610158Y-69524890D01*
X25749913Y-68975341D01*
X25865227Y-68533432D01*
X26024430Y-67994708D01*
X26158521Y-67552666D01*
X26336983Y-67024164D01*
X26489624Y-66583984D01*
X26687119Y-66065539D01*
X26857997Y-65628947D01*
X27074285Y-65120608D01*
X27102592Y-65055895D01*
X27263119Y-64688898D01*
X27497873Y-64191008D01*
X27519911Y-64145575D01*
X27704380Y-63765251D01*
X27953855Y-63284770D01*
X27957313Y-63278110D01*
X28052145Y-63100690D01*
X28181065Y-62859495D01*
X28451884Y-62383428D01*
X28461437Y-62367131D01*
X28500783Y-62300000D01*
X35574556Y-62300000D01*
X35582345Y-62423815D01*
X35582467Y-62427685D01*
X35582467Y-62457125D01*
X35582468Y-62457148D01*
X35584438Y-62472738D01*
X35586157Y-62486355D01*
X35586522Y-62490225D01*
X35594310Y-62614005D01*
X35594311Y-62614012D01*
X35617553Y-62735852D01*
X35618162Y-62739698D01*
X35621853Y-62768915D01*
X35621857Y-62768932D01*
X35629179Y-62797447D01*
X35630026Y-62801234D01*
X35641133Y-62859458D01*
X35653270Y-62923083D01*
X35691593Y-63041028D01*
X35692680Y-63044769D01*
X35700004Y-63073297D01*
X35700007Y-63073305D01*
X35710851Y-63100694D01*
X35712170Y-63104358D01*
X35750497Y-63222316D01*
X35750499Y-63222321D01*
X35803306Y-63334540D01*
X35804853Y-63338116D01*
X35815695Y-63365500D01*
X35829886Y-63391314D01*
X35831653Y-63394783D01*
X35869581Y-63475382D01*
X35884463Y-63507007D01*
X35950916Y-63611721D01*
X35950920Y-63611726D01*
X35952903Y-63615080D01*
X35967085Y-63640878D01*
X35967091Y-63640887D01*
X35967093Y-63640891D01*
X35984413Y-63664730D01*
X35986594Y-63667940D01*
X36053051Y-63772661D01*
X36053053Y-63772664D01*
X36132105Y-63868222D01*
X36134492Y-63871299D01*
X36151784Y-63895100D01*
X36151809Y-63895130D01*
X36151813Y-63895135D01*
X36161832Y-63905804D01*
X36171970Y-63916601D01*
X36174545Y-63919522D01*
X36181884Y-63928393D01*
X36253610Y-64015094D01*
X36344034Y-64100008D01*
X36346769Y-64102743D01*
X36366937Y-64124220D01*
X36366942Y-64124225D01*
X36366943Y-64124226D01*
X36389635Y-64142998D01*
X36392538Y-64145557D01*
X36482970Y-64230478D01*
X36583324Y-64303389D01*
X36586380Y-64305760D01*
X36609087Y-64324545D01*
X36609096Y-64324552D01*
X36633968Y-64340335D01*
X36637173Y-64342513D01*
X36698621Y-64387157D01*
X36737520Y-64415419D01*
X36846213Y-64475173D01*
X36849567Y-64477157D01*
X36861131Y-64484495D01*
X36874425Y-64492932D01*
X36885532Y-64498158D01*
X36901068Y-64505470D01*
X36904538Y-64507238D01*
X36960474Y-64537989D01*
X37013234Y-64566994D01*
X37128574Y-64612660D01*
X37132126Y-64614197D01*
X37158752Y-64626727D01*
X37158762Y-64626731D01*
X37158779Y-64626739D01*
X37158793Y-64626743D01*
X37158809Y-64626750D01*
X37186798Y-64635843D01*
X37190447Y-64637157D01*
X37305775Y-64682819D01*
X37425921Y-64713667D01*
X37429644Y-64714749D01*
X37438422Y-64717601D01*
X37457661Y-64723852D01*
X37474491Y-64727062D01*
X37486600Y-64729373D01*
X37490374Y-64730216D01*
X37610527Y-64761066D01*
X37733578Y-64776610D01*
X37737403Y-64777217D01*
X37766341Y-64782737D01*
X37766346Y-64782738D01*
X37766354Y-64782738D01*
X37766357Y-64782739D01*
X37795769Y-64784589D01*
X37799614Y-64784953D01*
X37864767Y-64793183D01*
X37922672Y-64800499D01*
X37922682Y-64800500D01*
X38046680Y-64800500D01*
X38050575Y-64800622D01*
X38079964Y-64802472D01*
X38080000Y-64802472D01*
X38080036Y-64802472D01*
X38109422Y-64800622D01*
X38113317Y-64800500D01*
X38237318Y-64800500D01*
X38360391Y-64784952D01*
X38364227Y-64784589D01*
X38393643Y-64782739D01*
X38393646Y-64782738D01*
X38393652Y-64782738D01*
X38393655Y-64782737D01*
X38422596Y-64777217D01*
X38426416Y-64776611D01*
X38549473Y-64761066D01*
X38669652Y-64730209D01*
X38673373Y-64729377D01*
X38702339Y-64723852D01*
X38730378Y-64714741D01*
X38734043Y-64713676D01*
X38854225Y-64682819D01*
X38969575Y-64637148D01*
X38973208Y-64635841D01*
X39001221Y-64626739D01*
X39027876Y-64614195D01*
X39031412Y-64612665D01*
X39146766Y-64566994D01*
X39255499Y-64507217D01*
X39258902Y-64505483D01*
X39285575Y-64492932D01*
X39310445Y-64477148D01*
X39313766Y-64475184D01*
X39422484Y-64415416D01*
X39522830Y-64342509D01*
X39526031Y-64340334D01*
X39550916Y-64324542D01*
X39573635Y-64305747D01*
X39576655Y-64303404D01*
X39677030Y-64230478D01*
X39767494Y-64145526D01*
X39770329Y-64143027D01*
X39793060Y-64124223D01*
X39813261Y-64102710D01*
X39815932Y-64100039D01*
X39906390Y-64015094D01*
X39985485Y-63919484D01*
X39988003Y-63916628D01*
X40008187Y-63895135D01*
X40008201Y-63895115D01*
X40008209Y-63895106D01*
X40025514Y-63871288D01*
X40027872Y-63868247D01*
X40106947Y-63772663D01*
X40173440Y-63667885D01*
X40175564Y-63664761D01*
X40192907Y-63640891D01*
X40207116Y-63615044D01*
X40209059Y-63611759D01*
X40275537Y-63507007D01*
X40328353Y-63394766D01*
X40330096Y-63391343D01*
X40344304Y-63365501D01*
X40355160Y-63338079D01*
X40356668Y-63334594D01*
X40409503Y-63222315D01*
X40447845Y-63104310D01*
X40449148Y-63100694D01*
X40459992Y-63073306D01*
X40467319Y-63044769D01*
X40468395Y-63041063D01*
X40506731Y-62923079D01*
X40529980Y-62801199D01*
X40530820Y-62797447D01*
X40538146Y-62768916D01*
X40541840Y-62739668D01*
X40542439Y-62735885D01*
X40565688Y-62614015D01*
X40565688Y-62614012D01*
X40565689Y-62614009D01*
X40569362Y-62555619D01*
X40573477Y-62490197D01*
X40573842Y-62486347D01*
X40577532Y-62457138D01*
X40577533Y-62457131D01*
X40578167Y-62416716D01*
X40578278Y-62413886D01*
X40585444Y-62300000D01*
X40578279Y-62186116D01*
X40578167Y-62183280D01*
X40577533Y-62142869D01*
X40577532Y-62142862D01*
X40577532Y-62142854D01*
X40573842Y-62113650D01*
X40573477Y-62109796D01*
X40568058Y-62023650D01*
X40565689Y-61985990D01*
X40565687Y-61985982D01*
X40563174Y-61972807D01*
X40542436Y-61864093D01*
X40541838Y-61860313D01*
X40541836Y-61860300D01*
X40538146Y-61831084D01*
X40534346Y-61816287D01*
X40530825Y-61802569D01*
X40529975Y-61798767D01*
X40512806Y-61708767D01*
X40506731Y-61676921D01*
X40468399Y-61558950D01*
X40467318Y-61555226D01*
X40459994Y-61526701D01*
X40459993Y-61526699D01*
X40459992Y-61526694D01*
X40449134Y-61499269D01*
X40447844Y-61495686D01*
X40409503Y-61377685D01*
X40356682Y-61265435D01*
X40355157Y-61261912D01*
X40344304Y-61234499D01*
X40344285Y-61234465D01*
X40330113Y-61208685D01*
X40328344Y-61205213D01*
X40287634Y-61118701D01*
X40275537Y-61092993D01*
X40209061Y-60988244D01*
X40207095Y-60984917D01*
X40192907Y-60959109D01*
X40175579Y-60935259D01*
X40173427Y-60932093D01*
X40106947Y-60827337D01*
X40106946Y-60827336D01*
X40106945Y-60827334D01*
X40027898Y-60731782D01*
X40025511Y-60728704D01*
X40008221Y-60704906D01*
X40008191Y-60704871D01*
X40008187Y-60704865D01*
X39994102Y-60689866D01*
X39988028Y-60683397D01*
X39985462Y-60680487D01*
X39906390Y-60584906D01*
X39906388Y-60584904D01*
X39906384Y-60584899D01*
X39815974Y-60499999D01*
X39813223Y-60497249D01*
X39793060Y-60475777D01*
X39793058Y-60475776D01*
X39793056Y-60475773D01*
X39793049Y-60475766D01*
X39770361Y-60456998D01*
X39767439Y-60454422D01*
X39677031Y-60369523D01*
X39677021Y-60369515D01*
X39576688Y-60296619D01*
X39573609Y-60294231D01*
X39550918Y-60275459D01*
X39550900Y-60275446D01*
X39526030Y-60259663D01*
X39522807Y-60257473D01*
X39422485Y-60184584D01*
X39313788Y-60124826D01*
X39310439Y-60122845D01*
X39286435Y-60107614D01*
X39285575Y-60107068D01*
X39285574Y-60107067D01*
X39285567Y-60107063D01*
X39258929Y-60094528D01*
X39255460Y-60092760D01*
X39146759Y-60033002D01*
X39146756Y-60033001D01*
X39031463Y-59987354D01*
X39027887Y-59985807D01*
X39001239Y-59973268D01*
X39001199Y-59973252D01*
X38973198Y-59964154D01*
X38969532Y-59962834D01*
X38854227Y-59917181D01*
X38734091Y-59886335D01*
X38730353Y-59885249D01*
X38702336Y-59876147D01*
X38673418Y-59870630D01*
X38669619Y-59869781D01*
X38549471Y-59838933D01*
X38426435Y-59823390D01*
X38422588Y-59822781D01*
X38393666Y-59817264D01*
X38393644Y-59817261D01*
X38393643Y-59817261D01*
X38393640Y-59817260D01*
X38393594Y-59817255D01*
X38364219Y-59815407D01*
X38360342Y-59815040D01*
X38237330Y-59799500D01*
X38237318Y-59799500D01*
X38113273Y-59799500D01*
X38109402Y-59799378D01*
X38084162Y-59797790D01*
X38080002Y-59797529D01*
X38079998Y-59797529D01*
X38075837Y-59797790D01*
X38050597Y-59799378D01*
X38046727Y-59799500D01*
X37922682Y-59799500D01*
X37922680Y-59799500D01*
X37922667Y-59799501D01*
X37799656Y-59815040D01*
X37795779Y-59815407D01*
X37766395Y-59817255D01*
X37766338Y-59817262D01*
X37737410Y-59822781D01*
X37733563Y-59823390D01*
X37610530Y-59838933D01*
X37610528Y-59838933D01*
X37490386Y-59869779D01*
X37486589Y-59870628D01*
X37457669Y-59876146D01*
X37457665Y-59876147D01*
X37457661Y-59876148D01*
X37447385Y-59879486D01*
X37429651Y-59885248D01*
X37425913Y-59886334D01*
X37305769Y-59917182D01*
X37190466Y-59962834D01*
X37186801Y-59964154D01*
X37158808Y-59973249D01*
X37158760Y-59973268D01*
X37132129Y-59985800D01*
X37128554Y-59987347D01*
X37013233Y-60033005D01*
X36904538Y-60092761D01*
X36901069Y-60094529D01*
X36874433Y-60107063D01*
X36874422Y-60107069D01*
X36849557Y-60122847D01*
X36846208Y-60124828D01*
X36737512Y-60184585D01*
X36737510Y-60184587D01*
X36637184Y-60257478D01*
X36633962Y-60259667D01*
X36609114Y-60275436D01*
X36609073Y-60275466D01*
X36586391Y-60294229D01*
X36583315Y-60296616D01*
X36482966Y-60369524D01*
X36482965Y-60369525D01*
X36392569Y-60454413D01*
X36389647Y-60456989D01*
X36366961Y-60475756D01*
X36366933Y-60475782D01*
X36360207Y-60482945D01*
X36346772Y-60497252D01*
X36344018Y-60500005D01*
X36253611Y-60584904D01*
X36174545Y-60680476D01*
X36171972Y-60683396D01*
X36161547Y-60694497D01*
X36151828Y-60704847D01*
X36151782Y-60704902D01*
X36134492Y-60728701D01*
X36132105Y-60731778D01*
X36053053Y-60827335D01*
X36053048Y-60827342D01*
X35986593Y-60932058D01*
X35984405Y-60935278D01*
X35967086Y-60959118D01*
X35967082Y-60959125D01*
X35952897Y-60984926D01*
X35950916Y-60988276D01*
X35884464Y-61092990D01*
X35831649Y-61205223D01*
X35829877Y-61208701D01*
X35828375Y-61211433D01*
X35815713Y-61234465D01*
X35815701Y-61234489D01*
X35815696Y-61234499D01*
X35815693Y-61234506D01*
X35815687Y-61234519D01*
X35804854Y-61261879D01*
X35803308Y-61265452D01*
X35750500Y-61377676D01*
X35750496Y-61377687D01*
X35712168Y-61495644D01*
X35710850Y-61499307D01*
X35700009Y-61526689D01*
X35700004Y-61526703D01*
X35692679Y-61555230D01*
X35691593Y-61558969D01*
X35653269Y-61676918D01*
X35653268Y-61676924D01*
X35630029Y-61798749D01*
X35629179Y-61802550D01*
X35621858Y-61831059D01*
X35621852Y-61831093D01*
X35618162Y-61860300D01*
X35617553Y-61864146D01*
X35594312Y-61985982D01*
X35594310Y-61985999D01*
X35586522Y-62109781D01*
X35586156Y-62113658D01*
X35582468Y-62142846D01*
X35582467Y-62142874D01*
X35582467Y-62172313D01*
X35582345Y-62176185D01*
X35574556Y-62300000D01*
X28500783Y-62300000D01*
X28692516Y-61972871D01*
X28980820Y-61508414D01*
X29237905Y-61106806D01*
X29543384Y-60654331D01*
X29816436Y-60262556D01*
X30138668Y-59822596D01*
X30427233Y-59441391D01*
X30765787Y-59014466D01*
X31069389Y-58644527D01*
X31423798Y-58231173D01*
X31741895Y-57873207D01*
X32111747Y-57473871D01*
X32443721Y-57128597D01*
X32828597Y-56743721D01*
X33173871Y-56411747D01*
X33573207Y-56041895D01*
X33931173Y-55723798D01*
X34344527Y-55369389D01*
X34714466Y-55065787D01*
X35141391Y-54727233D01*
X35522596Y-54438668D01*
X35962556Y-54116436D01*
X36354331Y-53843384D01*
X36806806Y-53537905D01*
X37208414Y-53280820D01*
X37672871Y-52992516D01*
X38083392Y-52751905D01*
X38559495Y-52481065D01*
X38848464Y-52326609D01*
X38978110Y-52257313D01*
X39080257Y-52204276D01*
X39465251Y-52004380D01*
X39891000Y-51797878D01*
X40388898Y-51563119D01*
X40820566Y-51374303D01*
X41328947Y-51157997D01*
X41765539Y-50987119D01*
X42283984Y-50789624D01*
X42724164Y-50636983D01*
X43252666Y-50458521D01*
X43694708Y-50324430D01*
X44233432Y-50165227D01*
X44675341Y-50049913D01*
X45224890Y-49910158D01*
X45663878Y-49813842D01*
X46225448Y-49693726D01*
X46657679Y-49616539D01*
X47233728Y-49516230D01*
X47651893Y-49458391D01*
X48248150Y-49377955D01*
X48638110Y-49339547D01*
X49267144Y-49279113D01*
X49587786Y-49260203D01*
X50288827Y-49219872D01*
X51300000Y-49200500D01*
X51300500Y-49200500D01*
X51351490Y-49200500D01*
X51351807Y-49200463D01*
X171675917Y-49117165D01*
X171742967Y-49136803D01*
X171788759Y-49189575D01*
X171800000Y-49241165D01*
X171800000Y-62442825D01*
X171780315Y-62509864D01*
X171727511Y-62555619D01*
X171658353Y-62565563D01*
X171594797Y-62536538D01*
X171588319Y-62530506D01*
X165101819Y-56044006D01*
X165068334Y-55982683D01*
X165065500Y-55956325D01*
X165065500Y-53564446D01*
X165085185Y-53497407D01*
X165101747Y-53477921D01*
X165101522Y-53477718D01*
X165134428Y-53441172D01*
X165232533Y-53332216D01*
X165327179Y-53168284D01*
X165385674Y-52988256D01*
X165405460Y-52800000D01*
X165385674Y-52611744D01*
X165327179Y-52431716D01*
X165232533Y-52267784D01*
X165105871Y-52127112D01*
X165009801Y-52057313D01*
X164952734Y-52015851D01*
X164952729Y-52015848D01*
X164779807Y-51938857D01*
X164779802Y-51938855D01*
X164634000Y-51907865D01*
X164594646Y-51899500D01*
X164405354Y-51899500D01*
X164372897Y-51906398D01*
X164220197Y-51938855D01*
X164220192Y-51938857D01*
X164047270Y-52015848D01*
X164047265Y-52015851D01*
X163894129Y-52127111D01*
X163767466Y-52267785D01*
X163672821Y-52431715D01*
X163672818Y-52431722D01*
X163629155Y-52566105D01*
X163614326Y-52611744D01*
X163594540Y-52800000D01*
X163614326Y-52988256D01*
X163614327Y-52988259D01*
X163672818Y-53168277D01*
X163672821Y-53168284D01*
X163767467Y-53332216D01*
X163865572Y-53441172D01*
X163898478Y-53477718D01*
X163897405Y-53478683D01*
X163930119Y-53531775D01*
X163934500Y-53564446D01*
X163934500Y-55044016D01*
X163914815Y-55111055D01*
X163862011Y-55156810D01*
X163792853Y-55166754D01*
X163729297Y-55137729D01*
X163722819Y-55131697D01*
X163013731Y-54422609D01*
X163008378Y-54416506D01*
X163005728Y-54413053D01*
X162987693Y-54389549D01*
X162987691Y-54389547D01*
X162987690Y-54389546D01*
X162959205Y-54367689D01*
X162959194Y-54367680D01*
X162867478Y-54297303D01*
X162867473Y-54297301D01*
X162867340Y-54297246D01*
X162796215Y-54267785D01*
X162727478Y-54239313D01*
X162674148Y-54232291D01*
X162611340Y-54224023D01*
X162611325Y-54224021D01*
X162584438Y-54220482D01*
X162577242Y-54219535D01*
X162577241Y-54219535D01*
X162577240Y-54219535D01*
X162558207Y-54222040D01*
X162543559Y-54223969D01*
X162535461Y-54224500D01*
X159998768Y-54224500D01*
X159931729Y-54204815D01*
X159906618Y-54183472D01*
X159855870Y-54127111D01*
X159855864Y-54127106D01*
X159702734Y-54015851D01*
X159702729Y-54015848D01*
X159529807Y-53938857D01*
X159529802Y-53938855D01*
X159384000Y-53907865D01*
X159344646Y-53899500D01*
X159155354Y-53899500D01*
X159122897Y-53906398D01*
X158970197Y-53938855D01*
X158970192Y-53938857D01*
X158797270Y-54015848D01*
X158797265Y-54015851D01*
X158644129Y-54127111D01*
X158517466Y-54267785D01*
X158422821Y-54431715D01*
X158422818Y-54431722D01*
X158364327Y-54611740D01*
X158364326Y-54611744D01*
X158344540Y-54800000D01*
X158364326Y-54988256D01*
X158364327Y-54988259D01*
X158422818Y-55168277D01*
X158422821Y-55168284D01*
X158517467Y-55332216D01*
X158574165Y-55395185D01*
X158644129Y-55472888D01*
X158797265Y-55584148D01*
X158797270Y-55584151D01*
X158970192Y-55661142D01*
X158970197Y-55661144D01*
X159155354Y-55700500D01*
X159155355Y-55700500D01*
X159344644Y-55700500D01*
X159344646Y-55700500D01*
X159529803Y-55661144D01*
X159702730Y-55584151D01*
X159855871Y-55472888D01*
X159906618Y-55416527D01*
X159966105Y-55379879D01*
X159998768Y-55375500D01*
X162287500Y-55375500D01*
X162354539Y-55395185D01*
X162375181Y-55411819D01*
X162484148Y-55520786D01*
X162517633Y-55582109D01*
X162512649Y-55651801D01*
X162470777Y-55707734D01*
X162469355Y-55708783D01*
X162444130Y-55727110D01*
X162444129Y-55727111D01*
X162317466Y-55867785D01*
X162222821Y-56031715D01*
X162222818Y-56031722D01*
X162164327Y-56211740D01*
X162164326Y-56211744D01*
X162144540Y-56400000D01*
X162164326Y-56588256D01*
X162164327Y-56588259D01*
X162222818Y-56768277D01*
X162222821Y-56768284D01*
X162317467Y-56932216D01*
X162444128Y-57072888D01*
X162444129Y-57072888D01*
X162597265Y-57184148D01*
X162597270Y-57184151D01*
X162770192Y-57261142D01*
X162770197Y-57261144D01*
X162955354Y-57300500D01*
X162955355Y-57300500D01*
X163144644Y-57300500D01*
X163144646Y-57300500D01*
X163329803Y-57261144D01*
X163502730Y-57184151D01*
X163503814Y-57183363D01*
X163504551Y-57183100D01*
X163508359Y-57180902D01*
X163508760Y-57181598D01*
X163569620Y-57159880D01*
X163637675Y-57175703D01*
X163664385Y-57195997D01*
X177588181Y-71119793D01*
X177621666Y-71181116D01*
X177624500Y-71207474D01*
X177624500Y-78262814D01*
X177623969Y-78270916D01*
X177619535Y-78304593D01*
X177624021Y-78338678D01*
X177624023Y-78338693D01*
X177639313Y-78454829D01*
X177639313Y-78454830D01*
X177697302Y-78594829D01*
X177767680Y-78686547D01*
X177767689Y-78686558D01*
X177789546Y-78715043D01*
X177789547Y-78715044D01*
X177789549Y-78715046D01*
X177813053Y-78733081D01*
X177816506Y-78735731D01*
X177822609Y-78741084D01*
X180619344Y-81537819D01*
X180652829Y-81599142D01*
X180647845Y-81668834D01*
X180605973Y-81724767D01*
X180540509Y-81749184D01*
X180531663Y-81749500D01*
X86096370Y-81749500D01*
X86088271Y-81748969D01*
X86052942Y-81744318D01*
X86013581Y-81749500D01*
X85896181Y-81764955D01*
X85896179Y-81764956D01*
X85750102Y-81825463D01*
X85624656Y-81921721D01*
X85602966Y-81949990D01*
X85597613Y-81956094D01*
X81071102Y-86482602D01*
X81071098Y-86482608D01*
X64996102Y-102557602D01*
X64996098Y-102557608D01*
X42287244Y-125266462D01*
X41779923Y-125773782D01*
X41718600Y-125807267D01*
X41678359Y-125809321D01*
X41538800Y-125793597D01*
X41538793Y-125793597D01*
X41370739Y-125812531D01*
X41211101Y-125868391D01*
X41211098Y-125868393D01*
X41067911Y-125958364D01*
X41067905Y-125958369D01*
X40948319Y-126077955D01*
X40948314Y-126077961D01*
X40858344Y-126221146D01*
X40858340Y-126221154D01*
X40825572Y-126314799D01*
X40784850Y-126371574D01*
X40749487Y-126390884D01*
X40672308Y-126417890D01*
X40672300Y-126417894D01*
X40529115Y-126507864D01*
X40529109Y-126507869D01*
X40409523Y-126627455D01*
X40409518Y-126627461D01*
X40319547Y-126770648D01*
X40319545Y-126770651D01*
X40263685Y-126930289D01*
X40244751Y-127098343D01*
X40244751Y-127098348D01*
X40263685Y-127266402D01*
X40319545Y-127426040D01*
X40319547Y-127426043D01*
X40409518Y-127569230D01*
X40409523Y-127569236D01*
X40529109Y-127688822D01*
X40529115Y-127688827D01*
X40672302Y-127778798D01*
X40678583Y-127781823D01*
X40677974Y-127783085D01*
X40728486Y-127819309D01*
X40747802Y-127854680D01*
X40790092Y-127975540D01*
X40790094Y-127975543D01*
X40880065Y-128118730D01*
X40880070Y-128118736D01*
X40999658Y-128238324D01*
X41114987Y-128310791D01*
X41161277Y-128363126D01*
X41166056Y-128374829D01*
X41219545Y-128527694D01*
X41219547Y-128527697D01*
X41309518Y-128670884D01*
X41309523Y-128670890D01*
X41429109Y-128790476D01*
X41429115Y-128790481D01*
X41572302Y-128880452D01*
X41572305Y-128880454D01*
X41572309Y-128880455D01*
X41572310Y-128880456D01*
X41644913Y-128905860D01*
X41731943Y-128936314D01*
X41899997Y-128955249D01*
X41900000Y-128955249D01*
X41900003Y-128955249D01*
X42068056Y-128936314D01*
X42068059Y-128936313D01*
X42227690Y-128880456D01*
X42227692Y-128880454D01*
X42227694Y-128880454D01*
X42227697Y-128880452D01*
X42370884Y-128790481D01*
X42370885Y-128790480D01*
X42370890Y-128790477D01*
X42490477Y-128670890D01*
X42580454Y-128527694D01*
X42580455Y-128527691D01*
X42580456Y-128527690D01*
X42636313Y-128368059D01*
X42638456Y-128349037D01*
X42665519Y-128284625D01*
X42673985Y-128275248D01*
X86762415Y-84186819D01*
X86823739Y-84153334D01*
X86850097Y-84150500D01*
X183205899Y-84150500D01*
X183272938Y-84170185D01*
X183293580Y-84186819D01*
X184450665Y-85343904D01*
X184456016Y-85350005D01*
X184477714Y-85378282D01*
X184572766Y-85451218D01*
X184603153Y-85474535D01*
X184603154Y-85474535D01*
X184603155Y-85474536D01*
X184749234Y-85535044D01*
X184827614Y-85545362D01*
X184905995Y-85555682D01*
X184905996Y-85555682D01*
X184941325Y-85551030D01*
X184949424Y-85550500D01*
X194683994Y-85550500D01*
X194751033Y-85570185D01*
X194796788Y-85622989D01*
X194807214Y-85660616D01*
X194813685Y-85718053D01*
X194869544Y-85877692D01*
X194869547Y-85877697D01*
X194959518Y-86020884D01*
X194959523Y-86020890D01*
X195079109Y-86140476D01*
X195079115Y-86140481D01*
X195222302Y-86230452D01*
X195222308Y-86230455D01*
X195222310Y-86230456D01*
X195381941Y-86286313D01*
X195400961Y-86288455D01*
X195465373Y-86315520D01*
X195474760Y-86323995D01*
X196544669Y-87393904D01*
X196550020Y-87400005D01*
X196571718Y-87428282D01*
X196646542Y-87485696D01*
X196697159Y-87524536D01*
X196697162Y-87524537D01*
X196697163Y-87524538D01*
X196770198Y-87554790D01*
X196843238Y-87585044D01*
X196921619Y-87595363D01*
X196999999Y-87605682D01*
X197000000Y-87605682D01*
X197035329Y-87601030D01*
X197043428Y-87600500D01*
X198965500Y-87600500D01*
X199032539Y-87620185D01*
X199078294Y-87672989D01*
X199089500Y-87724500D01*
X199089500Y-90619336D01*
X199070494Y-90685308D01*
X199009545Y-90782307D01*
X198953685Y-90941943D01*
X198934751Y-91109997D01*
X198934751Y-91110002D01*
X198953685Y-91278056D01*
X199009545Y-91437694D01*
X199009547Y-91437697D01*
X199099518Y-91580884D01*
X199099523Y-91580890D01*
X199219109Y-91700476D01*
X199219115Y-91700481D01*
X199362302Y-91790452D01*
X199362305Y-91790454D01*
X199362309Y-91790455D01*
X199362310Y-91790456D01*
X199434913Y-91815860D01*
X199521943Y-91846314D01*
X199689997Y-91865249D01*
X199690000Y-91865249D01*
X199690003Y-91865249D01*
X199858056Y-91846314D01*
X199858059Y-91846313D01*
X200017690Y-91790456D01*
X200017692Y-91790454D01*
X200017694Y-91790454D01*
X200017697Y-91790452D01*
X200160884Y-91700481D01*
X200160885Y-91700480D01*
X200160890Y-91700477D01*
X200280477Y-91580890D01*
X200370452Y-91437697D01*
X200370454Y-91437694D01*
X200370454Y-91437692D01*
X200370456Y-91437690D01*
X200426313Y-91278059D01*
X200426313Y-91278058D01*
X200426314Y-91278056D01*
X200445249Y-91110002D01*
X200445249Y-91109997D01*
X200426314Y-90941943D01*
X200412904Y-90903621D01*
X200370456Y-90782310D01*
X200359307Y-90764566D01*
X200309506Y-90685308D01*
X200290500Y-90619336D01*
X200290500Y-87724500D01*
X200310185Y-87657461D01*
X200362989Y-87611706D01*
X200414500Y-87600500D01*
X205006572Y-87600500D01*
X205014670Y-87601030D01*
X205050000Y-87605682D01*
X205085329Y-87601030D01*
X205093428Y-87600500D01*
X211875500Y-87600500D01*
X211942539Y-87620185D01*
X211988294Y-87672989D01*
X211999500Y-87724500D01*
X211999500Y-95387769D01*
X211979815Y-95454808D01*
X211963181Y-95475450D01*
X209125451Y-98313181D01*
X209064128Y-98346666D01*
X209037770Y-98349500D01*
X193713705Y-98349500D01*
X193695735Y-98348191D01*
X193671972Y-98344710D01*
X193626890Y-98348655D01*
X193619933Y-98349264D01*
X193614532Y-98349500D01*
X193606287Y-98349500D01*
X193580222Y-98352546D01*
X193573705Y-98353308D01*
X193568403Y-98353771D01*
X193497201Y-98360001D01*
X193490134Y-98361461D01*
X193490122Y-98361404D01*
X193482753Y-98363038D01*
X193482767Y-98363095D01*
X193475739Y-98364760D01*
X193420536Y-98384852D01*
X193403563Y-98391030D01*
X193330666Y-98415186D01*
X193330664Y-98415186D01*
X193330661Y-98415188D01*
X193324122Y-98418237D01*
X193324097Y-98418185D01*
X193317308Y-98421471D01*
X193317334Y-98421522D01*
X193310884Y-98424761D01*
X193246716Y-98466964D01*
X193181347Y-98507285D01*
X193175677Y-98511769D01*
X193175641Y-98511723D01*
X193169798Y-98516484D01*
X193169835Y-98516528D01*
X193164310Y-98521164D01*
X193111614Y-98577017D01*
X189730820Y-101957810D01*
X189690894Y-101982289D01*
X189691669Y-101984029D01*
X189685736Y-101986670D01*
X189685733Y-101986671D01*
X189522408Y-102059388D01*
X189522406Y-102059389D01*
X189377768Y-102164475D01*
X189258140Y-102297336D01*
X189168750Y-102452164D01*
X189168749Y-102452166D01*
X189145355Y-102524165D01*
X189115105Y-102573526D01*
X163975451Y-127713181D01*
X163914128Y-127746666D01*
X163887770Y-127749500D01*
X57113705Y-127749500D01*
X57095735Y-127748191D01*
X57071972Y-127744710D01*
X57026533Y-127748686D01*
X57019931Y-127749264D01*
X57014530Y-127749500D01*
X57006289Y-127749500D01*
X56984579Y-127752037D01*
X56973724Y-127753306D01*
X56958419Y-127754645D01*
X56897199Y-127760001D01*
X56890132Y-127761460D01*
X56890120Y-127761404D01*
X56882763Y-127763035D01*
X56882777Y-127763092D01*
X56875743Y-127764759D01*
X56803575Y-127791025D01*
X56730675Y-127815181D01*
X56724126Y-127818236D01*
X56724101Y-127818183D01*
X56717308Y-127821471D01*
X56717334Y-127821523D01*
X56710880Y-127824764D01*
X56646708Y-127866971D01*
X56581347Y-127907285D01*
X56575683Y-127911765D01*
X56575647Y-127911719D01*
X56569798Y-127916484D01*
X56569835Y-127916528D01*
X56564310Y-127921164D01*
X56511597Y-127977035D01*
X38287680Y-146200950D01*
X38226357Y-146234435D01*
X38156665Y-146229451D01*
X38112318Y-146200950D01*
X34934892Y-143023524D01*
X34904642Y-142974160D01*
X34881250Y-142902165D01*
X34881248Y-142902161D01*
X34850059Y-142848140D01*
X34791859Y-142747335D01*
X34672235Y-142614478D01*
X34672232Y-142614476D01*
X34672231Y-142614475D01*
X34672230Y-142614474D01*
X34527593Y-142509388D01*
X34364267Y-142436671D01*
X34364265Y-142436670D01*
X34236594Y-142409533D01*
X34189391Y-142399500D01*
X34010609Y-142399500D01*
X33979954Y-142406015D01*
X33835733Y-142436670D01*
X33718694Y-142488780D01*
X33668259Y-142499500D01*
X31012230Y-142499500D01*
X30945191Y-142479815D01*
X30924549Y-142463181D01*
X29484892Y-141023524D01*
X29454642Y-140974160D01*
X29431250Y-140902165D01*
X29431248Y-140902161D01*
X29400059Y-140848140D01*
X29341859Y-140747335D01*
X29222235Y-140614478D01*
X29222232Y-140614476D01*
X29222231Y-140614475D01*
X29222230Y-140614474D01*
X29077593Y-140509388D01*
X28914267Y-140436671D01*
X28914265Y-140436670D01*
X28751952Y-140402170D01*
X28739391Y-140399500D01*
X28560609Y-140399500D01*
X28548048Y-140402170D01*
X28398537Y-140433949D01*
X28328869Y-140428633D01*
X28273136Y-140386496D01*
X28265369Y-140374658D01*
X28191862Y-140247339D01*
X28191856Y-140247330D01*
X28182349Y-140236772D01*
X28152119Y-140173780D01*
X28150499Y-140153800D01*
X28150499Y-140049522D01*
X28150499Y-139858584D01*
X28170184Y-139791548D01*
X28201612Y-139758270D01*
X28232230Y-139736026D01*
X28351859Y-139603165D01*
X28441250Y-139448335D01*
X28496497Y-139278303D01*
X28515185Y-139100500D01*
X28496497Y-138922697D01*
X28441250Y-138752665D01*
X28351859Y-138597835D01*
X28305003Y-138545796D01*
X28232235Y-138464978D01*
X28232232Y-138464976D01*
X28232231Y-138464975D01*
X28232230Y-138464974D01*
X28087593Y-138359888D01*
X27924267Y-138287171D01*
X27924265Y-138287170D01*
X27796594Y-138260033D01*
X27749391Y-138250000D01*
X27570609Y-138250000D01*
X27539954Y-138256515D01*
X27395733Y-138287170D01*
X27395728Y-138287172D01*
X27232408Y-138359887D01*
X27087768Y-138464975D01*
X26968140Y-138597836D01*
X26878750Y-138752664D01*
X26878747Y-138752670D01*
X26823504Y-138922692D01*
X26823503Y-138922694D01*
X26804815Y-139100499D01*
X26823503Y-139278305D01*
X26823505Y-139278310D01*
X26843430Y-139339635D01*
X26849499Y-139377952D01*
X26849499Y-140153802D01*
X26829814Y-140220841D01*
X26817652Y-140236770D01*
X26808148Y-140247325D01*
X26808139Y-140247337D01*
X26718750Y-140402164D01*
X26718747Y-140402170D01*
X26663504Y-140572192D01*
X26663503Y-140572194D01*
X26644815Y-140750000D01*
X26663503Y-140927805D01*
X26663504Y-140927807D01*
X26718747Y-141097829D01*
X26718750Y-141097835D01*
X26808141Y-141252665D01*
X26849812Y-141298946D01*
X26927764Y-141385521D01*
X26927767Y-141385523D01*
X26927770Y-141385526D01*
X27072407Y-141490612D01*
X27235733Y-141563329D01*
X27410609Y-141600500D01*
X27410610Y-141600500D01*
X27589389Y-141600500D01*
X27589391Y-141600500D01*
X27751464Y-141566050D01*
X27821129Y-141571366D01*
X27876862Y-141613503D01*
X27884629Y-141625339D01*
X27958141Y-141752665D01*
X27999812Y-141798946D01*
X28077764Y-141885521D01*
X28077767Y-141885523D01*
X28077770Y-141885526D01*
X28222407Y-141990612D01*
X28385733Y-142063329D01*
X28385734Y-142063329D01*
X28391670Y-142065972D01*
X28390890Y-142067723D01*
X28430822Y-142092190D01*
X30074267Y-143735634D01*
X30086048Y-143749266D01*
X30100390Y-143768530D01*
X30140420Y-143802119D01*
X30144392Y-143805759D01*
X30150223Y-143811590D01*
X30150222Y-143811590D01*
X30175944Y-143831927D01*
X30234786Y-143881302D01*
X30234794Y-143881306D01*
X30240824Y-143885273D01*
X30240790Y-143885323D01*
X30247147Y-143889372D01*
X30247179Y-143889321D01*
X30253319Y-143893108D01*
X30253323Y-143893111D01*
X30288132Y-143909342D01*
X30322941Y-143925575D01*
X30391565Y-143960039D01*
X30391567Y-143960040D01*
X30391569Y-143960040D01*
X30398357Y-143962511D01*
X30398336Y-143962567D01*
X30405455Y-143965042D01*
X30405474Y-143964986D01*
X30412323Y-143967256D01*
X30412326Y-143967256D01*
X30412327Y-143967257D01*
X30487549Y-143982788D01*
X30487550Y-143982788D01*
X30562279Y-144000500D01*
X30569452Y-144001339D01*
X30569445Y-144001397D01*
X30576946Y-144002163D01*
X30576952Y-144002104D01*
X30584140Y-144002733D01*
X30584143Y-144002732D01*
X30584144Y-144002733D01*
X30660898Y-144000500D01*
X33668259Y-144000500D01*
X33718693Y-144011219D01*
X33835733Y-144063329D01*
X33835734Y-144063329D01*
X33841670Y-144065972D01*
X33840890Y-144067723D01*
X33880822Y-144092190D01*
X37412681Y-147624048D01*
X37446166Y-147685371D01*
X37449000Y-147711729D01*
X37449000Y-154925500D01*
X37429315Y-154992539D01*
X37376511Y-155038294D01*
X37325000Y-155049500D01*
X27712229Y-155049500D01*
X27645190Y-155029815D01*
X27624548Y-155013181D01*
X27484892Y-154873525D01*
X27454643Y-154824163D01*
X27431250Y-154752165D01*
X27431249Y-154752163D01*
X27431248Y-154752160D01*
X27377108Y-154658389D01*
X27341859Y-154597335D01*
X27222235Y-154464478D01*
X27222232Y-154464476D01*
X27222231Y-154464475D01*
X27222230Y-154464474D01*
X27077593Y-154359388D01*
X26914267Y-154286671D01*
X26914265Y-154286670D01*
X26786594Y-154259533D01*
X26739391Y-154249500D01*
X26560609Y-154249500D01*
X26529954Y-154256015D01*
X26385733Y-154286670D01*
X26385728Y-154286672D01*
X26222408Y-154359387D01*
X26077768Y-154464475D01*
X25958140Y-154597336D01*
X25868750Y-154752164D01*
X25868747Y-154752170D01*
X25813504Y-154922192D01*
X25813503Y-154922194D01*
X25794815Y-155100000D01*
X25813503Y-155277805D01*
X25813504Y-155277807D01*
X25868747Y-155447829D01*
X25868750Y-155447835D01*
X25958141Y-155602665D01*
X25975728Y-155622197D01*
X26077764Y-155735521D01*
X26077767Y-155735523D01*
X26077770Y-155735526D01*
X26222407Y-155840612D01*
X26385733Y-155913329D01*
X26385734Y-155913329D01*
X26391670Y-155915972D01*
X26390888Y-155917726D01*
X26430823Y-155942190D01*
X26774268Y-156285635D01*
X26786049Y-156299267D01*
X26800390Y-156318530D01*
X26840420Y-156352119D01*
X26844392Y-156355759D01*
X26850223Y-156361590D01*
X26875939Y-156381923D01*
X26934786Y-156431302D01*
X26934788Y-156431303D01*
X26940823Y-156435272D01*
X26940789Y-156435322D01*
X26947144Y-156439370D01*
X26947177Y-156439318D01*
X26953319Y-156443107D01*
X26953323Y-156443110D01*
X27022914Y-156475561D01*
X27091558Y-156510036D01*
X27091561Y-156510037D01*
X27091567Y-156510040D01*
X27091572Y-156510041D01*
X27098355Y-156512510D01*
X27098334Y-156512567D01*
X27105451Y-156515040D01*
X27105470Y-156514984D01*
X27112330Y-156517257D01*
X27187532Y-156532783D01*
X27187532Y-156532784D01*
X27262279Y-156550500D01*
X27262288Y-156550500D01*
X27269452Y-156551338D01*
X27269445Y-156551397D01*
X27276946Y-156552163D01*
X27276952Y-156552104D01*
X27284140Y-156552733D01*
X27284143Y-156552732D01*
X27284144Y-156552733D01*
X27360898Y-156550500D01*
X37768259Y-156550500D01*
X37818693Y-156561219D01*
X37935733Y-156613329D01*
X38110609Y-156650500D01*
X38110610Y-156650500D01*
X38289389Y-156650500D01*
X38289391Y-156650500D01*
X38464267Y-156613329D01*
X38627593Y-156540612D01*
X38772230Y-156435526D01*
X38776034Y-156431302D01*
X38798148Y-156406741D01*
X38891859Y-156302665D01*
X38981250Y-156147835D01*
X39036497Y-155977803D01*
X39055185Y-155800000D01*
X39036497Y-155622197D01*
X38981250Y-155452165D01*
X38966613Y-155426812D01*
X38950000Y-155364812D01*
X38950000Y-147712729D01*
X38969685Y-147645690D01*
X38986319Y-147625048D01*
X57324548Y-129286819D01*
X57385871Y-129253334D01*
X57412229Y-129250500D01*
X99130192Y-129250500D01*
X99197231Y-129270185D01*
X99242986Y-129322989D01*
X99252930Y-129392147D01*
X99223905Y-129455703D01*
X99217873Y-129462181D01*
X40346873Y-188333181D01*
X40285550Y-188366666D01*
X40259192Y-188369500D01*
X37373837Y-188369500D01*
X37306798Y-188349815D01*
X37267438Y-188307384D01*
X37266978Y-188307686D01*
X37265214Y-188304987D01*
X37264786Y-188304525D01*
X37264173Y-188303393D01*
X37128166Y-188095217D01*
X37082287Y-188045379D01*
X36959744Y-187912262D01*
X36763509Y-187759526D01*
X36763507Y-187759525D01*
X36763506Y-187759524D01*
X36544811Y-187641172D01*
X36544802Y-187641169D01*
X36309616Y-187560429D01*
X36064335Y-187519500D01*
X35815665Y-187519500D01*
X35570383Y-187560429D01*
X35335197Y-187641169D01*
X35335188Y-187641172D01*
X35116493Y-187759524D01*
X34920257Y-187912261D01*
X34751833Y-188095217D01*
X34615826Y-188303393D01*
X34515936Y-188531118D01*
X34454892Y-188772175D01*
X34454890Y-188772187D01*
X34434357Y-189019994D01*
X34434357Y-189020005D01*
X34454890Y-189267812D01*
X34454892Y-189267824D01*
X34515936Y-189508881D01*
X34615826Y-189736606D01*
X34751833Y-189944782D01*
X34751836Y-189944785D01*
X34920256Y-190127738D01*
X35116491Y-190280474D01*
X35335190Y-190398828D01*
X35570386Y-190479571D01*
X35815665Y-190520500D01*
X36064335Y-190520500D01*
X36309614Y-190479571D01*
X36544810Y-190398828D01*
X36763509Y-190280474D01*
X36959744Y-190127738D01*
X37128164Y-189944785D01*
X37264173Y-189736607D01*
X37264175Y-189736601D01*
X37264786Y-189735475D01*
X37265157Y-189735101D01*
X37266978Y-189732314D01*
X37267551Y-189732688D01*
X37314009Y-189685888D01*
X37373837Y-189670500D01*
X40494495Y-189670500D01*
X40510505Y-189672267D01*
X40510528Y-189672026D01*
X40518289Y-189672758D01*
X40518296Y-189672760D01*
X40590203Y-189670500D01*
X40620925Y-189670500D01*
X40628190Y-189669581D01*
X40634016Y-189669122D01*
X40682569Y-189667597D01*
X40702956Y-189661673D01*
X40721996Y-189657731D01*
X40743058Y-189655071D01*
X40788235Y-189637183D01*
X40793735Y-189635300D01*
X40840398Y-189621744D01*
X40858665Y-189610939D01*
X40876136Y-189602380D01*
X40895871Y-189594568D01*
X40935177Y-189566010D01*
X40940043Y-189562813D01*
X40981865Y-189538081D01*
X40996870Y-189523075D01*
X41011668Y-189510436D01*
X41028837Y-189497963D01*
X41059809Y-189460522D01*
X41063723Y-189456221D01*
X90819942Y-139700003D01*
X198794435Y-139700003D01*
X198814630Y-139879249D01*
X198814631Y-139879254D01*
X198874211Y-140049523D01*
X198969643Y-140201401D01*
X198970184Y-140202262D01*
X199097738Y-140329816D01*
X199169104Y-140374658D01*
X199212888Y-140402170D01*
X199250478Y-140425789D01*
X199385254Y-140472949D01*
X199420745Y-140485368D01*
X199420750Y-140485369D01*
X199599996Y-140505565D01*
X199600000Y-140505565D01*
X199600004Y-140505565D01*
X199779249Y-140485369D01*
X199779252Y-140485368D01*
X199779255Y-140485368D01*
X199949522Y-140425789D01*
X200102262Y-140329816D01*
X200115259Y-140316818D01*
X200176582Y-140283334D01*
X200202940Y-140280500D01*
X201007892Y-140280500D01*
X201015993Y-140281031D01*
X201049999Y-140285508D01*
X201050000Y-140285508D01*
X201050001Y-140285508D01*
X201086112Y-140280754D01*
X201086136Y-140280751D01*
X201088042Y-140280500D01*
X201088047Y-140280500D01*
X201201541Y-140265558D01*
X201342754Y-140207066D01*
X201349015Y-140202262D01*
X201433572Y-140137379D01*
X201433573Y-140137377D01*
X201441664Y-140131169D01*
X201441666Y-140131166D01*
X201464017Y-140114017D01*
X201484907Y-140086791D01*
X201490247Y-140080702D01*
X218880702Y-122690247D01*
X218886793Y-122684905D01*
X218914017Y-122664017D01*
X218937376Y-122633574D01*
X218937379Y-122633572D01*
X219007066Y-122542754D01*
X219065558Y-122401541D01*
X219085509Y-122250000D01*
X219081030Y-122215983D01*
X219080499Y-122207881D01*
X219080499Y-79392117D01*
X219081030Y-79384014D01*
X219081238Y-79382427D01*
X219085509Y-79350000D01*
X219065558Y-79198459D01*
X219007066Y-79057246D01*
X218937379Y-78966428D01*
X218936573Y-78965377D01*
X218936559Y-78965360D01*
X218914017Y-78935983D01*
X218914015Y-78935982D01*
X218914015Y-78935981D01*
X218901547Y-78926414D01*
X218886793Y-78915093D01*
X218880703Y-78909752D01*
X215584292Y-75613340D01*
X215550807Y-75552018D01*
X215548753Y-75539543D01*
X215535369Y-75420749D01*
X215535368Y-75420745D01*
X215475788Y-75250476D01*
X215379815Y-75097737D01*
X215252262Y-74970184D01*
X215099523Y-74874211D01*
X214929254Y-74814631D01*
X214929249Y-74814630D01*
X214750004Y-74794435D01*
X214749996Y-74794435D01*
X214570750Y-74814630D01*
X214570745Y-74814631D01*
X214400476Y-74874211D01*
X214247737Y-74970184D01*
X214120184Y-75097737D01*
X214024211Y-75250476D01*
X213964631Y-75420745D01*
X213964630Y-75420750D01*
X213944435Y-75599996D01*
X213944435Y-75600000D01*
X213964630Y-75779249D01*
X213964631Y-75779254D01*
X214024211Y-75949523D01*
X214048549Y-75988256D01*
X214120184Y-76102262D01*
X214247738Y-76229816D01*
X214400478Y-76325789D01*
X214570745Y-76385368D01*
X214570749Y-76385369D01*
X214689543Y-76398753D01*
X214753957Y-76425819D01*
X214763341Y-76434292D01*
X217883181Y-79554131D01*
X217916666Y-79615454D01*
X217919500Y-79641812D01*
X217919500Y-121958186D01*
X217899815Y-122025225D01*
X217883181Y-122045867D01*
X200845868Y-139083181D01*
X200784545Y-139116666D01*
X200758187Y-139119500D01*
X200202940Y-139119500D01*
X200135901Y-139099815D01*
X200115259Y-139083181D01*
X200102262Y-139070184D01*
X199949523Y-138974211D01*
X199779254Y-138914631D01*
X199779249Y-138914630D01*
X199600004Y-138894435D01*
X199599996Y-138894435D01*
X199420750Y-138914630D01*
X199420745Y-138914631D01*
X199250476Y-138974211D01*
X199097737Y-139070184D01*
X198970184Y-139197737D01*
X198874211Y-139350476D01*
X198814631Y-139520745D01*
X198814630Y-139520750D01*
X198794435Y-139699996D01*
X198794435Y-139700003D01*
X90819942Y-139700003D01*
X100733126Y-129786819D01*
X100794450Y-129753334D01*
X100820808Y-129750500D01*
X164413023Y-129750500D01*
X164429033Y-129752267D01*
X164429056Y-129752026D01*
X164436817Y-129752758D01*
X164436824Y-129752760D01*
X164508731Y-129750500D01*
X164539453Y-129750500D01*
X164546718Y-129749581D01*
X164552544Y-129749122D01*
X164601097Y-129747597D01*
X164621484Y-129741673D01*
X164640524Y-129737731D01*
X164661586Y-129735071D01*
X164706763Y-129717183D01*
X164712263Y-129715300D01*
X164758926Y-129701744D01*
X164777193Y-129690939D01*
X164794664Y-129682380D01*
X164814399Y-129674568D01*
X164853705Y-129646010D01*
X164858571Y-129642813D01*
X164900393Y-129618081D01*
X164915398Y-129603075D01*
X164930196Y-129590436D01*
X164947365Y-129577963D01*
X164978337Y-129540522D01*
X164982251Y-129536221D01*
X190352643Y-104165829D01*
X190396820Y-104140638D01*
X190395753Y-104137943D01*
X190403005Y-104135071D01*
X190403008Y-104135071D01*
X190448185Y-104117183D01*
X190453685Y-104115300D01*
X190500348Y-104101744D01*
X190518615Y-104090939D01*
X190536086Y-104082380D01*
X190555821Y-104074568D01*
X190595127Y-104046010D01*
X190599993Y-104042813D01*
X190641815Y-104018081D01*
X190656820Y-104003075D01*
X190671618Y-103990436D01*
X190688787Y-103977963D01*
X190719759Y-103940522D01*
X190723673Y-103936221D01*
X191049513Y-103610381D01*
X191062079Y-103600315D01*
X191061925Y-103600128D01*
X191067937Y-103595154D01*
X191067937Y-103595153D01*
X191067940Y-103595152D01*
X191117190Y-103542705D01*
X191138911Y-103520985D01*
X191143401Y-103515195D01*
X191147183Y-103510765D01*
X191180448Y-103475343D01*
X191190674Y-103456740D01*
X191201353Y-103440483D01*
X191214362Y-103423714D01*
X191233656Y-103379125D01*
X191236212Y-103373906D01*
X191259627Y-103331318D01*
X191264905Y-103310756D01*
X191271207Y-103292349D01*
X191279635Y-103272877D01*
X191279737Y-103272231D01*
X191279957Y-103271766D01*
X191281812Y-103265384D01*
X191282840Y-103265682D01*
X191309661Y-103209097D01*
X191314512Y-103203960D01*
X193511654Y-101006819D01*
X193572978Y-100973334D01*
X193599336Y-100970500D01*
X203954932Y-100970500D01*
X204020904Y-100989506D01*
X204110477Y-101045789D01*
X204110481Y-101045790D01*
X204280737Y-101105366D01*
X204280743Y-101105367D01*
X204280745Y-101105368D01*
X204280746Y-101105368D01*
X204280750Y-101105369D01*
X204459996Y-101125565D01*
X204460000Y-101125565D01*
X204460004Y-101125565D01*
X204639249Y-101105369D01*
X204639252Y-101105368D01*
X204639255Y-101105368D01*
X204809522Y-101045789D01*
X204962262Y-100949816D01*
X205089816Y-100822262D01*
X205185789Y-100669522D01*
X205245368Y-100499255D01*
X205265565Y-100320000D01*
X205245368Y-100140745D01*
X205245367Y-100140743D01*
X205245366Y-100140737D01*
X205201528Y-100015455D01*
X205197966Y-99945676D01*
X205232694Y-99885049D01*
X205294688Y-99852821D01*
X205318569Y-99850500D01*
X209336295Y-99850500D01*
X209354265Y-99851809D01*
X209378023Y-99855289D01*
X209430068Y-99850735D01*
X209435470Y-99850500D01*
X209443704Y-99850500D01*
X209443709Y-99850500D01*
X209455327Y-99849141D01*
X209476276Y-99846693D01*
X209489028Y-99845577D01*
X209552797Y-99839999D01*
X209552805Y-99839996D01*
X209559866Y-99838539D01*
X209559878Y-99838598D01*
X209567243Y-99836965D01*
X209567229Y-99836906D01*
X209574246Y-99835241D01*
X209574255Y-99835241D01*
X209646423Y-99808974D01*
X209719334Y-99784814D01*
X209719343Y-99784807D01*
X209725882Y-99781760D01*
X209725908Y-99781816D01*
X209732690Y-99778532D01*
X209732663Y-99778478D01*
X209739106Y-99775240D01*
X209739117Y-99775237D01*
X209803283Y-99733034D01*
X209868656Y-99692712D01*
X209868662Y-99692705D01*
X209874325Y-99688229D01*
X209874362Y-99688277D01*
X209880204Y-99683518D01*
X209880164Y-99683471D01*
X209885691Y-99678832D01*
X209885696Y-99678830D01*
X209938386Y-99622981D01*
X213235638Y-96325727D01*
X213249267Y-96313950D01*
X213268530Y-96299610D01*
X213268532Y-96299606D01*
X213268534Y-96299606D01*
X213286663Y-96277999D01*
X213302113Y-96259585D01*
X213305767Y-96255599D01*
X213311590Y-96249777D01*
X213331923Y-96224060D01*
X213381302Y-96165214D01*
X213381309Y-96165198D01*
X213385272Y-96159176D01*
X213385324Y-96159210D01*
X213389371Y-96152858D01*
X213389317Y-96152825D01*
X213393104Y-96146684D01*
X213393110Y-96146677D01*
X213425561Y-96077086D01*
X213460036Y-96008440D01*
X213460040Y-96008433D01*
X213460042Y-96008421D01*
X213462510Y-96001644D01*
X213462568Y-96001665D01*
X213465043Y-95994546D01*
X213464985Y-95994527D01*
X213467256Y-95987672D01*
X213482784Y-95912467D01*
X213500500Y-95837720D01*
X213501339Y-95830548D01*
X213501397Y-95830554D01*
X213502164Y-95823056D01*
X213502104Y-95823051D01*
X213502733Y-95815860D01*
X213500500Y-95739103D01*
X213500500Y-73380003D01*
X215864435Y-73380003D01*
X215884630Y-73559249D01*
X215884631Y-73559254D01*
X215944211Y-73729523D01*
X215969645Y-73770000D01*
X216040184Y-73882262D01*
X216167738Y-74009816D01*
X216320478Y-74105789D01*
X216424029Y-74142023D01*
X216490745Y-74165368D01*
X216490750Y-74165369D01*
X216669996Y-74185565D01*
X216670000Y-74185565D01*
X216670002Y-74185565D01*
X216704197Y-74181711D01*
X216800251Y-74170889D01*
X216807188Y-74170500D01*
X221424506Y-74170500D01*
X221490477Y-74189506D01*
X221500474Y-74195787D01*
X221500475Y-74195787D01*
X221500478Y-74195789D01*
X221670745Y-74255368D01*
X221670750Y-74255369D01*
X221849996Y-74275565D01*
X221850000Y-74275565D01*
X221850004Y-74275565D01*
X222029249Y-74255369D01*
X222029252Y-74255368D01*
X222029255Y-74255368D01*
X222199522Y-74195789D01*
X222352262Y-74099816D01*
X222479816Y-73972262D01*
X222575789Y-73819522D01*
X222635368Y-73649255D01*
X222641564Y-73594264D01*
X222655565Y-73470003D01*
X222655565Y-73469996D01*
X222635369Y-73290750D01*
X222635368Y-73290745D01*
X222604487Y-73202492D01*
X222575789Y-73120478D01*
X222564425Y-73102393D01*
X222520237Y-73032067D01*
X222479816Y-72967738D01*
X222352262Y-72840184D01*
X222270576Y-72788857D01*
X222199523Y-72744211D01*
X222029254Y-72684631D01*
X222029249Y-72684630D01*
X221850004Y-72664435D01*
X221849996Y-72664435D01*
X221670750Y-72684630D01*
X221670745Y-72684631D01*
X221500474Y-72744212D01*
X221490477Y-72750494D01*
X221424506Y-72769500D01*
X217238727Y-72769500D01*
X217172755Y-72750494D01*
X217162757Y-72744212D01*
X217067937Y-72684632D01*
X217019523Y-72654211D01*
X216849254Y-72594631D01*
X216849249Y-72594630D01*
X216670004Y-72574435D01*
X216669996Y-72574435D01*
X216490750Y-72594630D01*
X216490745Y-72594631D01*
X216320476Y-72654211D01*
X216167737Y-72750184D01*
X216040184Y-72877737D01*
X215944211Y-73030476D01*
X215884631Y-73200745D01*
X215884630Y-73200750D01*
X215864435Y-73379996D01*
X215864435Y-73380003D01*
X213500500Y-73380003D01*
X213500500Y-72559497D01*
X213520185Y-72492458D01*
X213572989Y-72446703D01*
X213642147Y-72436759D01*
X213705703Y-72465784D01*
X213729494Y-72493525D01*
X213809523Y-72620890D01*
X213929109Y-72740476D01*
X213929115Y-72740481D01*
X214072302Y-72830452D01*
X214072305Y-72830454D01*
X214072309Y-72830455D01*
X214072310Y-72830456D01*
X214136869Y-72853046D01*
X214231943Y-72886314D01*
X214399997Y-72905249D01*
X214400000Y-72905249D01*
X214400003Y-72905249D01*
X214568056Y-72886314D01*
X214592568Y-72877737D01*
X214727690Y-72830456D01*
X214727692Y-72830454D01*
X214727694Y-72830454D01*
X214727697Y-72830452D01*
X214870884Y-72740481D01*
X214870885Y-72740480D01*
X214870890Y-72740477D01*
X214990477Y-72620890D01*
X215006977Y-72594631D01*
X215080452Y-72477697D01*
X215080455Y-72477691D01*
X215080456Y-72477690D01*
X215136313Y-72318059D01*
X215144741Y-72243251D01*
X215171806Y-72178841D01*
X215180270Y-72169466D01*
X221155565Y-66194171D01*
X221161642Y-66188843D01*
X221188090Y-66168550D01*
X221278734Y-66050420D01*
X221326390Y-65935368D01*
X221335715Y-65912856D01*
X221355150Y-65765230D01*
X221350800Y-65732194D01*
X221350269Y-65724091D01*
X221350269Y-64755227D01*
X221350269Y-63830365D01*
X221369954Y-63763330D01*
X221373769Y-63758010D01*
X221375243Y-63755663D01*
X221375247Y-63755660D01*
X221465226Y-63612460D01*
X221521083Y-63452829D01*
X221521083Y-63452828D01*
X221521084Y-63452826D01*
X221540019Y-63284772D01*
X221540019Y-63284767D01*
X221521084Y-63116713D01*
X221465224Y-62957075D01*
X221465222Y-62957072D01*
X221375251Y-62813885D01*
X221375246Y-62813879D01*
X221255660Y-62694293D01*
X221255654Y-62694288D01*
X221112467Y-62604317D01*
X221112464Y-62604315D01*
X220952826Y-62548455D01*
X220784773Y-62529521D01*
X220784767Y-62529521D01*
X220616713Y-62548455D01*
X220457075Y-62604315D01*
X220457072Y-62604317D01*
X220313885Y-62694288D01*
X220313879Y-62694293D01*
X220194293Y-62813879D01*
X220194288Y-62813885D01*
X220104317Y-62957072D01*
X220104315Y-62957075D01*
X220048455Y-63116714D01*
X220047220Y-63127683D01*
X220020153Y-63192097D01*
X219962558Y-63231652D01*
X219892721Y-63233789D01*
X219832815Y-63197831D01*
X219801859Y-63135193D01*
X219800000Y-63113799D01*
X219800000Y-62210000D01*
X350904556Y-62210000D01*
X350912345Y-62333815D01*
X350912467Y-62337685D01*
X350912467Y-62367125D01*
X350912468Y-62367141D01*
X350916156Y-62396340D01*
X350916522Y-62400217D01*
X350924310Y-62524005D01*
X350924311Y-62524012D01*
X350947553Y-62645852D01*
X350948162Y-62649698D01*
X350951853Y-62678915D01*
X350951857Y-62678932D01*
X350959179Y-62707447D01*
X350960026Y-62711234D01*
X350979607Y-62813880D01*
X350983270Y-62833083D01*
X351021593Y-62951028D01*
X351022680Y-62954769D01*
X351030004Y-62983297D01*
X351030007Y-62983305D01*
X351040851Y-63010694D01*
X351042170Y-63014358D01*
X351080497Y-63132316D01*
X351080499Y-63132321D01*
X351133306Y-63244540D01*
X351134853Y-63248116D01*
X351145695Y-63275500D01*
X351159886Y-63301314D01*
X351161653Y-63304783D01*
X351190226Y-63365501D01*
X351214463Y-63417007D01*
X351280916Y-63521721D01*
X351280920Y-63521726D01*
X351282903Y-63525080D01*
X351297085Y-63550878D01*
X351297091Y-63550887D01*
X351297093Y-63550891D01*
X351314413Y-63574730D01*
X351316594Y-63577940D01*
X351383051Y-63682661D01*
X351383053Y-63682664D01*
X351462105Y-63778222D01*
X351464492Y-63781299D01*
X351481784Y-63805100D01*
X351481809Y-63805130D01*
X351481813Y-63805135D01*
X351491832Y-63815804D01*
X351501970Y-63826601D01*
X351504545Y-63829522D01*
X351558826Y-63895135D01*
X351583610Y-63925094D01*
X351674034Y-64010008D01*
X351676769Y-64012743D01*
X351678975Y-64015092D01*
X351696942Y-64034225D01*
X351696945Y-64034228D01*
X351704562Y-64040529D01*
X351719636Y-64052999D01*
X351722540Y-64055559D01*
X351812970Y-64140478D01*
X351913324Y-64213389D01*
X351916380Y-64215760D01*
X351939087Y-64234545D01*
X351939096Y-64234552D01*
X351963968Y-64250335D01*
X351967173Y-64252513D01*
X352040444Y-64305747D01*
X352067520Y-64325419D01*
X352176213Y-64385173D01*
X352179567Y-64387157D01*
X352191131Y-64394495D01*
X352204425Y-64402932D01*
X352215532Y-64408158D01*
X352231068Y-64415470D01*
X352234538Y-64417238D01*
X352302915Y-64454828D01*
X352343234Y-64476994D01*
X352458574Y-64522660D01*
X352462126Y-64524197D01*
X352488752Y-64536727D01*
X352488762Y-64536731D01*
X352488779Y-64536739D01*
X352488793Y-64536743D01*
X352488809Y-64536750D01*
X352516798Y-64545843D01*
X352520447Y-64547157D01*
X352635775Y-64592819D01*
X352755921Y-64623667D01*
X352759644Y-64624749D01*
X352765803Y-64626750D01*
X352787661Y-64633852D01*
X352804491Y-64637062D01*
X352816600Y-64639373D01*
X352820374Y-64640216D01*
X352940527Y-64671066D01*
X353063578Y-64686610D01*
X353067403Y-64687217D01*
X353096341Y-64692737D01*
X353096346Y-64692738D01*
X353096354Y-64692738D01*
X353096357Y-64692739D01*
X353125769Y-64694589D01*
X353129614Y-64694953D01*
X353194767Y-64703183D01*
X353252672Y-64710499D01*
X353252682Y-64710500D01*
X353376680Y-64710500D01*
X353380575Y-64710622D01*
X353409964Y-64712472D01*
X353410000Y-64712472D01*
X353410036Y-64712472D01*
X353439422Y-64710622D01*
X353443317Y-64710500D01*
X353567318Y-64710500D01*
X353690391Y-64694952D01*
X353694227Y-64694589D01*
X353723643Y-64692739D01*
X353723646Y-64692738D01*
X353723652Y-64692738D01*
X353723655Y-64692737D01*
X353752596Y-64687217D01*
X353756416Y-64686611D01*
X353879473Y-64671066D01*
X353999652Y-64640209D01*
X354003373Y-64639377D01*
X354032339Y-64633852D01*
X354060378Y-64624741D01*
X354064043Y-64623676D01*
X354184225Y-64592819D01*
X354299575Y-64547148D01*
X354303208Y-64545841D01*
X354331221Y-64536739D01*
X354357876Y-64524195D01*
X354361412Y-64522665D01*
X354476766Y-64476994D01*
X354585499Y-64417217D01*
X354588902Y-64415483D01*
X354615575Y-64402932D01*
X354640445Y-64387148D01*
X354643766Y-64385184D01*
X354752484Y-64325416D01*
X354852830Y-64252509D01*
X354856031Y-64250334D01*
X354880916Y-64234542D01*
X354903635Y-64215747D01*
X354906655Y-64213404D01*
X355007030Y-64140478D01*
X355097494Y-64055526D01*
X355100329Y-64053027D01*
X355123060Y-64034223D01*
X355143245Y-64012727D01*
X355145948Y-64010024D01*
X355236390Y-63925094D01*
X355315485Y-63829484D01*
X355318003Y-63826628D01*
X355338187Y-63805135D01*
X355338201Y-63805115D01*
X355338209Y-63805106D01*
X355355514Y-63781288D01*
X355357872Y-63778247D01*
X355436947Y-63682663D01*
X355503440Y-63577885D01*
X355505564Y-63574761D01*
X355522907Y-63550891D01*
X355537116Y-63525044D01*
X355539059Y-63521759D01*
X355605537Y-63417007D01*
X355658353Y-63304766D01*
X355660096Y-63301343D01*
X355674304Y-63275501D01*
X355685160Y-63248079D01*
X355686668Y-63244594D01*
X355739503Y-63132315D01*
X355777845Y-63014310D01*
X355779148Y-63010694D01*
X355789992Y-62983306D01*
X355797319Y-62954769D01*
X355798395Y-62951063D01*
X355836731Y-62833079D01*
X355859980Y-62711199D01*
X355860820Y-62707447D01*
X355868146Y-62678916D01*
X355871840Y-62649668D01*
X355872439Y-62645885D01*
X355895688Y-62524015D01*
X355895688Y-62524012D01*
X355895689Y-62524009D01*
X355899895Y-62457148D01*
X355903477Y-62400197D01*
X355903842Y-62396347D01*
X355907532Y-62367138D01*
X355907533Y-62367131D01*
X355908167Y-62326716D01*
X355908278Y-62323886D01*
X355915444Y-62210000D01*
X355908279Y-62096116D01*
X355908167Y-62093280D01*
X355907533Y-62052869D01*
X355907532Y-62052862D01*
X355907532Y-62052854D01*
X355903842Y-62023650D01*
X355903477Y-62019796D01*
X355896530Y-61909362D01*
X355895689Y-61895990D01*
X355895687Y-61895982D01*
X355872436Y-61774093D01*
X355871838Y-61770313D01*
X355871836Y-61770300D01*
X355868146Y-61741084D01*
X355860825Y-61712569D01*
X355859975Y-61708767D01*
X355837013Y-61588400D01*
X355836731Y-61586921D01*
X355798399Y-61468950D01*
X355797318Y-61465226D01*
X355789994Y-61436701D01*
X355789993Y-61436699D01*
X355789992Y-61436694D01*
X355779134Y-61409269D01*
X355777844Y-61405686D01*
X355739503Y-61287685D01*
X355686682Y-61175435D01*
X355685157Y-61171912D01*
X355674304Y-61144499D01*
X355674285Y-61144465D01*
X355660113Y-61118685D01*
X355658344Y-61115213D01*
X355627698Y-61050088D01*
X355605537Y-61002993D01*
X355539061Y-60898244D01*
X355537095Y-60894917D01*
X355522907Y-60869109D01*
X355505579Y-60845259D01*
X355503427Y-60842093D01*
X355436947Y-60737337D01*
X355436946Y-60737336D01*
X355436945Y-60737334D01*
X355357898Y-60641782D01*
X355355511Y-60638704D01*
X355338221Y-60614906D01*
X355338191Y-60614871D01*
X355338187Y-60614865D01*
X355324102Y-60599866D01*
X355318028Y-60593397D01*
X355315462Y-60590487D01*
X355236390Y-60494906D01*
X355236388Y-60494904D01*
X355236384Y-60494899D01*
X355145973Y-60409998D01*
X355143221Y-60407246D01*
X355141864Y-60405801D01*
X355123060Y-60385777D01*
X355123059Y-60385776D01*
X355123057Y-60385774D01*
X355123049Y-60385766D01*
X355100361Y-60366998D01*
X355097439Y-60364422D01*
X355007031Y-60279523D01*
X355007021Y-60279515D01*
X354906688Y-60206619D01*
X354903609Y-60204231D01*
X354880918Y-60185459D01*
X354880900Y-60185446D01*
X354856030Y-60169663D01*
X354852807Y-60167473D01*
X354752485Y-60094584D01*
X354643788Y-60034826D01*
X354640439Y-60032845D01*
X354616435Y-60017614D01*
X354615575Y-60017068D01*
X354615574Y-60017067D01*
X354615567Y-60017063D01*
X354588929Y-60004528D01*
X354585460Y-60002760D01*
X354476759Y-59943002D01*
X354476756Y-59943001D01*
X354361463Y-59897354D01*
X354357887Y-59895807D01*
X354331239Y-59883268D01*
X354331199Y-59883252D01*
X354303198Y-59874154D01*
X354299532Y-59872834D01*
X354184227Y-59827181D01*
X354064091Y-59796335D01*
X354060353Y-59795249D01*
X354032336Y-59786147D01*
X354003418Y-59780630D01*
X353999619Y-59779781D01*
X353879471Y-59748933D01*
X353756435Y-59733390D01*
X353752588Y-59732781D01*
X353723666Y-59727264D01*
X353723644Y-59727261D01*
X353723643Y-59727261D01*
X353723640Y-59727260D01*
X353723594Y-59727255D01*
X353694219Y-59725407D01*
X353690342Y-59725040D01*
X353567330Y-59709500D01*
X353567318Y-59709500D01*
X353443273Y-59709500D01*
X353439402Y-59709378D01*
X353414162Y-59707790D01*
X353410002Y-59707529D01*
X353409998Y-59707529D01*
X353405837Y-59707790D01*
X353380597Y-59709378D01*
X353376727Y-59709500D01*
X353252682Y-59709500D01*
X353252680Y-59709500D01*
X353252667Y-59709501D01*
X353129656Y-59725040D01*
X353125779Y-59725407D01*
X353096395Y-59727255D01*
X353096338Y-59727262D01*
X353067410Y-59732781D01*
X353063563Y-59733390D01*
X352940530Y-59748933D01*
X352940528Y-59748933D01*
X352820386Y-59779779D01*
X352816589Y-59780628D01*
X352787669Y-59786146D01*
X352787665Y-59786147D01*
X352787661Y-59786148D01*
X352777385Y-59789486D01*
X352759651Y-59795248D01*
X352755913Y-59796334D01*
X352635769Y-59827182D01*
X352520466Y-59872834D01*
X352516801Y-59874154D01*
X352488808Y-59883249D01*
X352488760Y-59883268D01*
X352462129Y-59895800D01*
X352458554Y-59897347D01*
X352343233Y-59943005D01*
X352234538Y-60002761D01*
X352231069Y-60004529D01*
X352204433Y-60017063D01*
X352204422Y-60017069D01*
X352179557Y-60032847D01*
X352176208Y-60034828D01*
X352067512Y-60094585D01*
X352067510Y-60094587D01*
X351967184Y-60167478D01*
X351963962Y-60169667D01*
X351939114Y-60185436D01*
X351939073Y-60185466D01*
X351916391Y-60204229D01*
X351913315Y-60206616D01*
X351812966Y-60279524D01*
X351812965Y-60279525D01*
X351722569Y-60364413D01*
X351719647Y-60366989D01*
X351696961Y-60385756D01*
X351696933Y-60385782D01*
X351690207Y-60392945D01*
X351676772Y-60407252D01*
X351674018Y-60410005D01*
X351583611Y-60494904D01*
X351504545Y-60590476D01*
X351501972Y-60593396D01*
X351491547Y-60604497D01*
X351481828Y-60614847D01*
X351481782Y-60614902D01*
X351464492Y-60638701D01*
X351462105Y-60641778D01*
X351383053Y-60737335D01*
X351383048Y-60737342D01*
X351316593Y-60842058D01*
X351314405Y-60845278D01*
X351297086Y-60869118D01*
X351297082Y-60869125D01*
X351282897Y-60894926D01*
X351280916Y-60898276D01*
X351214464Y-61002990D01*
X351161649Y-61115223D01*
X351159877Y-61118701D01*
X351158375Y-61121433D01*
X351145713Y-61144465D01*
X351145701Y-61144489D01*
X351145696Y-61144499D01*
X351145693Y-61144506D01*
X351145687Y-61144519D01*
X351134854Y-61171879D01*
X351133308Y-61175452D01*
X351080500Y-61287676D01*
X351080496Y-61287687D01*
X351042168Y-61405644D01*
X351040850Y-61409307D01*
X351030009Y-61436689D01*
X351030004Y-61436703D01*
X351022679Y-61465230D01*
X351021593Y-61468969D01*
X350983269Y-61586918D01*
X350983268Y-61586924D01*
X350960029Y-61708749D01*
X350959179Y-61712550D01*
X350951858Y-61741059D01*
X350951852Y-61741093D01*
X350948162Y-61770300D01*
X350947553Y-61774146D01*
X350924312Y-61895982D01*
X350924310Y-61895999D01*
X350916522Y-62019781D01*
X350916156Y-62023658D01*
X350912468Y-62052846D01*
X350912467Y-62052874D01*
X350912467Y-62082313D01*
X350912345Y-62086185D01*
X350908779Y-62142874D01*
X350906056Y-62186164D01*
X350904556Y-62210000D01*
X219800000Y-62210000D01*
X219800000Y-49207764D01*
X219819685Y-49140725D01*
X219872489Y-49094970D01*
X219923912Y-49083764D01*
X340200003Y-49000500D01*
X341211173Y-49019872D01*
G37*
%TD.AperFunction*%
%TA.AperFunction,Conductor*%
G36*
X189361257Y-67020185D02*
G01*
X189381899Y-67036819D01*
X189643548Y-67298468D01*
X189704941Y-67363053D01*
X189704944Y-67363055D01*
X189704947Y-67363058D01*
X189739053Y-67386795D01*
X189755303Y-67398106D01*
X189759044Y-67400926D01*
X189806593Y-67439698D01*
X189837045Y-67455604D01*
X189843756Y-67459671D01*
X189871951Y-67479295D01*
X189928332Y-67503490D01*
X189932567Y-67505501D01*
X189986951Y-67533909D01*
X190019973Y-67543356D01*
X190027365Y-67545989D01*
X190058940Y-67559539D01*
X190058941Y-67559540D01*
X190072054Y-67562234D01*
X190119055Y-67571892D01*
X190123595Y-67573006D01*
X190182582Y-67589886D01*
X190216841Y-67592494D01*
X190224609Y-67593585D01*
X190258255Y-67600500D01*
X190258259Y-67600500D01*
X190319601Y-67600500D01*
X190324308Y-67600678D01*
X190360651Y-67603446D01*
X190385475Y-67605337D01*
X190385475Y-67605336D01*
X190385476Y-67605337D01*
X190419559Y-67600996D01*
X190427389Y-67600500D01*
X207334217Y-67600500D01*
X207401256Y-67620185D01*
X207421898Y-67636819D01*
X208078420Y-68293340D01*
X208196593Y-68389698D01*
X208376951Y-68483909D01*
X208572582Y-68539887D01*
X208640213Y-68545037D01*
X208775474Y-68555337D01*
X208775476Y-68555337D01*
X208775477Y-68555337D01*
X208977321Y-68529631D01*
X208977321Y-68529630D01*
X208977328Y-68529630D01*
X209169872Y-68463816D01*
X209295133Y-68390079D01*
X209362889Y-68373035D01*
X209408468Y-68383660D01*
X209470197Y-68411144D01*
X209655354Y-68450500D01*
X209655355Y-68450500D01*
X209844644Y-68450500D01*
X209844646Y-68450500D01*
X210029803Y-68411144D01*
X210149564Y-68357821D01*
X210218812Y-68348536D01*
X210250435Y-68357822D01*
X210370192Y-68411142D01*
X210370195Y-68411143D01*
X210370197Y-68411144D01*
X210555354Y-68450500D01*
X210555355Y-68450500D01*
X210744644Y-68450500D01*
X210744646Y-68450500D01*
X210929803Y-68411144D01*
X211049564Y-68357821D01*
X211118813Y-68348536D01*
X211150434Y-68357821D01*
X211270197Y-68411144D01*
X211299348Y-68417340D01*
X211335329Y-68424988D01*
X211396811Y-68458180D01*
X211397230Y-68458597D01*
X211963181Y-69024548D01*
X211996666Y-69085871D01*
X211999500Y-69112229D01*
X211999500Y-72740252D01*
X211979815Y-72807291D01*
X211927011Y-72853046D01*
X211857853Y-72862990D01*
X211825064Y-72853531D01*
X211679807Y-72788857D01*
X211679802Y-72788855D01*
X211499322Y-72750494D01*
X211494646Y-72749500D01*
X211305354Y-72749500D01*
X211143706Y-72783859D01*
X211074039Y-72778542D01*
X211030245Y-72750249D01*
X209802317Y-71522321D01*
X208534358Y-70254361D01*
X208522578Y-70240730D01*
X208515111Y-70230701D01*
X208508241Y-70221472D01*
X208469371Y-70188856D01*
X208468216Y-70187886D01*
X208464241Y-70184244D01*
X208461319Y-70181322D01*
X208458409Y-70178411D01*
X208432669Y-70158059D01*
X208373838Y-70108694D01*
X208367809Y-70104729D01*
X208367841Y-70104680D01*
X208361482Y-70100628D01*
X208361451Y-70100679D01*
X208355309Y-70096891D01*
X208355307Y-70096890D01*
X208355306Y-70096889D01*
X208312741Y-70077040D01*
X208285687Y-70064424D01*
X208251523Y-70047267D01*
X208217062Y-70029960D01*
X208217060Y-70029959D01*
X208217059Y-70029959D01*
X208210274Y-70027489D01*
X208210294Y-70027433D01*
X208203178Y-70024959D01*
X208203160Y-70025015D01*
X208196300Y-70022742D01*
X208168470Y-70016996D01*
X208121063Y-70007207D01*
X208072101Y-69995603D01*
X208046348Y-69989499D01*
X208039176Y-69988661D01*
X208039182Y-69988601D01*
X208031684Y-69987835D01*
X208031679Y-69987895D01*
X208024489Y-69987265D01*
X207947712Y-69989500D01*
X207423705Y-69989500D01*
X207405735Y-69988191D01*
X207381972Y-69984710D01*
X207336890Y-69988655D01*
X207329933Y-69989264D01*
X207324532Y-69989500D01*
X207316287Y-69989500D01*
X207290222Y-69992546D01*
X207283705Y-69993308D01*
X207278403Y-69993771D01*
X207207201Y-70000001D01*
X207200134Y-70001461D01*
X207200122Y-70001404D01*
X207192753Y-70003038D01*
X207192767Y-70003095D01*
X207185739Y-70004760D01*
X207116505Y-70029959D01*
X207113568Y-70031028D01*
X207040665Y-70055186D01*
X207040663Y-70055186D01*
X207040660Y-70055188D01*
X207034123Y-70058236D01*
X207034098Y-70058184D01*
X207027310Y-70061470D01*
X207027336Y-70061521D01*
X207020885Y-70064761D01*
X206956723Y-70106961D01*
X206891338Y-70147290D01*
X206886732Y-70150933D01*
X206835611Y-70174951D01*
X206770196Y-70188856D01*
X206770192Y-70188857D01*
X206597270Y-70265848D01*
X206597265Y-70265851D01*
X206444129Y-70377111D01*
X206317466Y-70517785D01*
X206222821Y-70681715D01*
X206222818Y-70681722D01*
X206164327Y-70861740D01*
X206164326Y-70861744D01*
X206144540Y-71050000D01*
X206164326Y-71238256D01*
X206164327Y-71238259D01*
X206222818Y-71418277D01*
X206222821Y-71418284D01*
X206270729Y-71501264D01*
X206282887Y-71522321D01*
X206299500Y-71584321D01*
X206299500Y-82765678D01*
X206282887Y-82827678D01*
X206268750Y-82852163D01*
X206213504Y-83022192D01*
X206213503Y-83022194D01*
X206194815Y-83200000D01*
X206213503Y-83377805D01*
X206213504Y-83377807D01*
X206268747Y-83547829D01*
X206268749Y-83547832D01*
X206268750Y-83547835D01*
X206277506Y-83563000D01*
X206293977Y-83630900D01*
X206277506Y-83686997D01*
X206268750Y-83702162D01*
X206213504Y-83872192D01*
X206213503Y-83872194D01*
X206194815Y-84049999D01*
X206213503Y-84227805D01*
X206213504Y-84227807D01*
X206268747Y-84397829D01*
X206268748Y-84397830D01*
X206268750Y-84397835D01*
X206282887Y-84422322D01*
X206299500Y-84484320D01*
X206299500Y-84691770D01*
X206293431Y-84730088D01*
X206263504Y-84822192D01*
X206263503Y-84822194D01*
X206244815Y-84999999D01*
X206263503Y-85177805D01*
X206263504Y-85177807D01*
X206318747Y-85347829D01*
X206318750Y-85347835D01*
X206408141Y-85502665D01*
X206449812Y-85548946D01*
X206527764Y-85635521D01*
X206527767Y-85635523D01*
X206527770Y-85635526D01*
X206672407Y-85740612D01*
X206753864Y-85776879D01*
X206791109Y-85802477D01*
X206965105Y-85976473D01*
X206995355Y-86025835D01*
X207018748Y-86097831D01*
X207018750Y-86097835D01*
X207085529Y-86213500D01*
X207102002Y-86281401D01*
X207079149Y-86347427D01*
X207024228Y-86390618D01*
X206978142Y-86399500D01*
X205764500Y-86399500D01*
X205697461Y-86379815D01*
X205651706Y-86327011D01*
X205640500Y-86275500D01*
X205640500Y-82942412D01*
X205660185Y-82875373D01*
X205667555Y-82865097D01*
X205669810Y-82862267D01*
X205669816Y-82862262D01*
X205765789Y-82709522D01*
X205825368Y-82539255D01*
X205839175Y-82416715D01*
X205845565Y-82360003D01*
X205845565Y-82359996D01*
X205825369Y-82180750D01*
X205825368Y-82180745D01*
X205765788Y-82010476D01*
X205669815Y-81857737D01*
X205542262Y-81730184D01*
X205389523Y-81634211D01*
X205219254Y-81574631D01*
X205219249Y-81574630D01*
X205040004Y-81554435D01*
X205039996Y-81554435D01*
X204860750Y-81574630D01*
X204860745Y-81574631D01*
X204690476Y-81634211D01*
X204537737Y-81730184D01*
X204410184Y-81857737D01*
X204314211Y-82010476D01*
X204254631Y-82180745D01*
X204254630Y-82180750D01*
X204234435Y-82359996D01*
X204234435Y-82360003D01*
X204254630Y-82539249D01*
X204254631Y-82539254D01*
X204314211Y-82709523D01*
X204349496Y-82765678D01*
X204403838Y-82852163D01*
X204410185Y-82862263D01*
X204412445Y-82865097D01*
X204413334Y-82867275D01*
X204413889Y-82868158D01*
X204413734Y-82868255D01*
X204438855Y-82929783D01*
X204439500Y-82942412D01*
X204439500Y-86275500D01*
X204419815Y-86342539D01*
X204367011Y-86388294D01*
X204315500Y-86399500D01*
X202010316Y-86399500D01*
X201943277Y-86379815D01*
X201897522Y-86327011D01*
X201887096Y-86289384D01*
X201886314Y-86282446D01*
X201886313Y-86282444D01*
X201886313Y-86282441D01*
X201830456Y-86122810D01*
X201830455Y-86122807D01*
X201830452Y-86122802D01*
X201740481Y-85979615D01*
X201740476Y-85979609D01*
X201620890Y-85860023D01*
X201620884Y-85860018D01*
X201477697Y-85770047D01*
X201477686Y-85770042D01*
X201357006Y-85727814D01*
X201300230Y-85687093D01*
X201274483Y-85622140D01*
X201287939Y-85553578D01*
X201336327Y-85503176D01*
X201350493Y-85496218D01*
X201402841Y-85474536D01*
X201433230Y-85451218D01*
X201528282Y-85378282D01*
X201549983Y-85349999D01*
X201555311Y-85343922D01*
X203043922Y-83855311D01*
X203049999Y-83849983D01*
X203078282Y-83828282D01*
X203174536Y-83702841D01*
X203235044Y-83556762D01*
X203250500Y-83439361D01*
X203255682Y-83400000D01*
X203251030Y-83364669D01*
X203250500Y-83356571D01*
X203250500Y-70762944D01*
X203270185Y-70695905D01*
X203322989Y-70650150D01*
X203333547Y-70645902D01*
X203377690Y-70630456D01*
X203377693Y-70630453D01*
X203377697Y-70630452D01*
X203520884Y-70540481D01*
X203520885Y-70540480D01*
X203520890Y-70540477D01*
X203640477Y-70420890D01*
X203653606Y-70399996D01*
X203730452Y-70277697D01*
X203730454Y-70277694D01*
X203730454Y-70277692D01*
X203730456Y-70277690D01*
X203786313Y-70118059D01*
X203786313Y-70118058D01*
X203786314Y-70118056D01*
X203805249Y-69950002D01*
X203805249Y-69949997D01*
X203786314Y-69781943D01*
X203730454Y-69622305D01*
X203730452Y-69622302D01*
X203640481Y-69479115D01*
X203640475Y-69479108D01*
X203599047Y-69437679D01*
X203565563Y-69376356D01*
X203570548Y-69306664D01*
X203599047Y-69262319D01*
X203640477Y-69220890D01*
X203677381Y-69162158D01*
X203730452Y-69077697D01*
X203730454Y-69077694D01*
X203730454Y-69077692D01*
X203730456Y-69077690D01*
X203786313Y-68918059D01*
X203786313Y-68918058D01*
X203786314Y-68918056D01*
X203805249Y-68750002D01*
X203805249Y-68749997D01*
X203786314Y-68581943D01*
X203733381Y-68430670D01*
X203730456Y-68422310D01*
X203730455Y-68422309D01*
X203730454Y-68422305D01*
X203730452Y-68422302D01*
X203640481Y-68279115D01*
X203640476Y-68279109D01*
X203520890Y-68159523D01*
X203520884Y-68159518D01*
X203377697Y-68069547D01*
X203377694Y-68069545D01*
X203218056Y-68013685D01*
X203050003Y-67994751D01*
X203049997Y-67994751D01*
X202881943Y-68013685D01*
X202722305Y-68069545D01*
X202722302Y-68069547D01*
X202579115Y-68159518D01*
X202579109Y-68159523D01*
X202459523Y-68279109D01*
X202459518Y-68279115D01*
X202369547Y-68422302D01*
X202369544Y-68422307D01*
X202315855Y-68575745D01*
X202313687Y-68581941D01*
X202313149Y-68586717D01*
X202311543Y-68600966D01*
X202284473Y-68665379D01*
X202276004Y-68674759D01*
X201856096Y-69094668D01*
X201849994Y-69100019D01*
X201821717Y-69121718D01*
X201773521Y-69184530D01*
X201725462Y-69247162D01*
X201725461Y-69247163D01*
X201664957Y-69393234D01*
X201664955Y-69393239D01*
X201644318Y-69549998D01*
X201644318Y-69550000D01*
X201648969Y-69585326D01*
X201649500Y-69593427D01*
X201649500Y-82934215D01*
X201629815Y-83001254D01*
X201613181Y-83021896D01*
X201024777Y-83610300D01*
X200963454Y-83643785D01*
X200893762Y-83638801D01*
X200837829Y-83596929D01*
X200819165Y-83560936D01*
X200817808Y-83556760D01*
X200777179Y-83431716D01*
X200682533Y-83267784D01*
X200555871Y-83127112D01*
X200531772Y-83109603D01*
X200402734Y-83015851D01*
X200402729Y-83015848D01*
X200229807Y-82938857D01*
X200229802Y-82938855D01*
X200084001Y-82907865D01*
X200044646Y-82899500D01*
X199855354Y-82899500D01*
X199822897Y-82906398D01*
X199670197Y-82938855D01*
X199670192Y-82938857D01*
X199497270Y-83015848D01*
X199497265Y-83015851D01*
X199344129Y-83127111D01*
X199217466Y-83267785D01*
X199122821Y-83431715D01*
X199122818Y-83431722D01*
X199096144Y-83513818D01*
X199056706Y-83571494D01*
X198992348Y-83598692D01*
X198978213Y-83599500D01*
X185516754Y-83599500D01*
X185449715Y-83579815D01*
X185429073Y-83563181D01*
X185036819Y-83170926D01*
X185003334Y-83109603D01*
X185000500Y-83083245D01*
X185000500Y-82424817D01*
X185001031Y-82416715D01*
X185005465Y-82383036D01*
X185004797Y-82377966D01*
X185000766Y-82347350D01*
X185000765Y-82347331D01*
X185000500Y-82345317D01*
X184985687Y-82232801D01*
X184956692Y-82162802D01*
X184927699Y-82092805D01*
X184911839Y-82072136D01*
X184857660Y-82001528D01*
X184857656Y-82001523D01*
X184835449Y-81972584D01*
X184813958Y-81956094D01*
X184808490Y-81951898D01*
X184802400Y-81946557D01*
X184116976Y-81261132D01*
X184111623Y-81255030D01*
X184108973Y-81251577D01*
X184090938Y-81228073D01*
X184090936Y-81228071D01*
X184090935Y-81228070D01*
X184062450Y-81206213D01*
X184062439Y-81206204D01*
X183970721Y-81135826D01*
X183898400Y-81105870D01*
X183830723Y-81077837D01*
X183777393Y-81070815D01*
X183714585Y-81062547D01*
X183714570Y-81062545D01*
X183687683Y-81059006D01*
X183680487Y-81058059D01*
X183680486Y-81058059D01*
X183680485Y-81058059D01*
X183661452Y-81060564D01*
X183646804Y-81062493D01*
X183638706Y-81063024D01*
X181823671Y-81063024D01*
X181756632Y-81043339D01*
X181735990Y-81026705D01*
X178811819Y-78102533D01*
X178778334Y-78041210D01*
X178775500Y-78014852D01*
X178775500Y-76574500D01*
X178795185Y-76507461D01*
X178847989Y-76461706D01*
X178899500Y-76450500D01*
X179044643Y-76450500D01*
X179044646Y-76450500D01*
X179056232Y-76448037D01*
X179112853Y-76449223D01*
X179117823Y-76450500D01*
X179139051Y-76450500D01*
X179158448Y-76452026D01*
X179179403Y-76455345D01*
X179179404Y-76455346D01*
X179179404Y-76455345D01*
X179179405Y-76455346D01*
X179227760Y-76450775D01*
X179233599Y-76450500D01*
X181023025Y-76450500D01*
X181090064Y-76470185D01*
X181095910Y-76474182D01*
X181247265Y-76584148D01*
X181247270Y-76584151D01*
X181420192Y-76661142D01*
X181420197Y-76661144D01*
X181605354Y-76700500D01*
X181605355Y-76700500D01*
X181794644Y-76700500D01*
X181794646Y-76700500D01*
X181979803Y-76661144D01*
X182152730Y-76584151D01*
X182305871Y-76472888D01*
X182432533Y-76332216D01*
X182527179Y-76168284D01*
X182585674Y-75988256D01*
X182599168Y-75859855D01*
X182625752Y-75795242D01*
X182634799Y-75785145D01*
X183812107Y-74607837D01*
X193286424Y-74607837D01*
X193420858Y-74654877D01*
X193420861Y-74654878D01*
X193599997Y-74675062D01*
X193600003Y-74675062D01*
X193779138Y-74654878D01*
X193779141Y-74654877D01*
X193913574Y-74607837D01*
X194686424Y-74607837D01*
X194820858Y-74654877D01*
X194820861Y-74654878D01*
X194999997Y-74675062D01*
X195000003Y-74675062D01*
X195179138Y-74654878D01*
X195179141Y-74654877D01*
X195313573Y-74607837D01*
X195000001Y-74294264D01*
X195000000Y-74294264D01*
X194686424Y-74607837D01*
X193913574Y-74607837D01*
X193600001Y-74294264D01*
X193600000Y-74294264D01*
X193286424Y-74607837D01*
X183812107Y-74607837D01*
X184512107Y-73907837D01*
X192586424Y-73907837D01*
X192720859Y-73954877D01*
X192721644Y-73955057D01*
X192722099Y-73955311D01*
X192727430Y-73957177D01*
X192727103Y-73958110D01*
X192782623Y-73989166D01*
X192811953Y-74042875D01*
X192812823Y-74042571D01*
X192814670Y-74047851D01*
X192814939Y-74048343D01*
X192815120Y-74049135D01*
X192862160Y-74183573D01*
X192862161Y-74183574D01*
X193143244Y-73902492D01*
X193500000Y-73902492D01*
X193527751Y-73940687D01*
X193538059Y-73954876D01*
X193538197Y-73955065D01*
X193584162Y-73970000D01*
X193584163Y-73970000D01*
X193615837Y-73970000D01*
X193615838Y-73970000D01*
X193661803Y-73955065D01*
X193700000Y-73902492D01*
X193700000Y-73870000D01*
X194024263Y-73870000D01*
X194299998Y-74145736D01*
X194543243Y-73902492D01*
X194900000Y-73902492D01*
X194927751Y-73940687D01*
X194938059Y-73954876D01*
X194938197Y-73955065D01*
X194984162Y-73970000D01*
X194984163Y-73970000D01*
X195015837Y-73970000D01*
X195015838Y-73970000D01*
X195061803Y-73955065D01*
X195100000Y-73902492D01*
X195100000Y-73869999D01*
X195424264Y-73869999D01*
X195737837Y-74183574D01*
X195737837Y-74183573D01*
X195784876Y-74049144D01*
X195785056Y-74048358D01*
X195785311Y-74047901D01*
X195787177Y-74042570D01*
X195788110Y-74042896D01*
X195819164Y-73987379D01*
X195872875Y-73958049D01*
X195872570Y-73957177D01*
X195877870Y-73955322D01*
X195878358Y-73955056D01*
X195879144Y-73954876D01*
X196013574Y-73907837D01*
X195700001Y-73594264D01*
X195700000Y-73594264D01*
X195424264Y-73869998D01*
X195424264Y-73869999D01*
X195100000Y-73869999D01*
X195100000Y-73837508D01*
X195061803Y-73784935D01*
X195061802Y-73784935D01*
X195015839Y-73770000D01*
X195015838Y-73770000D01*
X194984162Y-73770000D01*
X194984160Y-73770000D01*
X194938196Y-73784935D01*
X194913067Y-73819523D01*
X194900000Y-73837508D01*
X194900000Y-73902492D01*
X194543243Y-73902492D01*
X194563236Y-73882499D01*
X194287501Y-73606764D01*
X194024263Y-73870000D01*
X193700000Y-73870000D01*
X193700000Y-73837508D01*
X193661803Y-73784935D01*
X193661802Y-73784935D01*
X193615839Y-73770000D01*
X193615838Y-73770000D01*
X193584162Y-73770000D01*
X193584160Y-73770000D01*
X193538196Y-73784935D01*
X193513067Y-73819523D01*
X193500000Y-73837508D01*
X193500000Y-73902492D01*
X193143244Y-73902492D01*
X193175736Y-73870000D01*
X193175736Y-73869999D01*
X192900001Y-73594264D01*
X192900000Y-73594264D01*
X192586424Y-73907837D01*
X184512107Y-73907837D01*
X184999513Y-73420431D01*
X185012079Y-73410365D01*
X185011925Y-73410178D01*
X185017937Y-73405204D01*
X185017937Y-73405203D01*
X185017940Y-73405202D01*
X185067190Y-73352755D01*
X185088911Y-73331035D01*
X185093401Y-73325245D01*
X185097183Y-73320815D01*
X185130448Y-73285393D01*
X185140674Y-73266790D01*
X185151353Y-73250533D01*
X185164362Y-73233764D01*
X185183656Y-73189175D01*
X185186212Y-73183956D01*
X185193884Y-73170002D01*
X192094938Y-73170002D01*
X192115122Y-73349142D01*
X192162160Y-73483573D01*
X192162161Y-73483574D01*
X192443244Y-73202492D01*
X192800000Y-73202492D01*
X192838197Y-73255065D01*
X192884162Y-73270000D01*
X192884163Y-73270000D01*
X192915837Y-73270000D01*
X192915838Y-73270000D01*
X192961803Y-73255065D01*
X193000000Y-73202492D01*
X193000000Y-73170000D01*
X193324263Y-73170000D01*
X193587500Y-73433235D01*
X193818241Y-73202492D01*
X194175000Y-73202492D01*
X194213197Y-73255065D01*
X194259162Y-73270000D01*
X194259163Y-73270000D01*
X194290837Y-73270000D01*
X194290838Y-73270000D01*
X194336803Y-73255065D01*
X194375000Y-73202492D01*
X194375000Y-73169999D01*
X194724264Y-73169999D01*
X194999999Y-73445736D01*
X195000001Y-73445736D01*
X195243243Y-73202492D01*
X195600000Y-73202492D01*
X195638197Y-73255065D01*
X195684162Y-73270000D01*
X195684163Y-73270000D01*
X195715837Y-73270000D01*
X195715838Y-73270000D01*
X195761803Y-73255065D01*
X195800000Y-73202492D01*
X195800000Y-73169999D01*
X196124264Y-73169999D01*
X196437837Y-73483574D01*
X196437837Y-73483573D01*
X196484877Y-73349141D01*
X196484878Y-73349138D01*
X196505062Y-73170002D01*
X196505062Y-73169997D01*
X196484878Y-72990861D01*
X196484877Y-72990858D01*
X196437837Y-72856425D01*
X196124264Y-73169999D01*
X195800000Y-73169999D01*
X195800000Y-73137508D01*
X195761803Y-73084935D01*
X195755623Y-73082927D01*
X195715839Y-73070000D01*
X195715838Y-73070000D01*
X195684162Y-73070000D01*
X195684160Y-73070000D01*
X195638196Y-73084935D01*
X195612373Y-73120478D01*
X195600000Y-73137508D01*
X195600000Y-73202492D01*
X195243243Y-73202492D01*
X195275736Y-73169999D01*
X195275736Y-73169998D01*
X195000000Y-72894264D01*
X194724264Y-73169998D01*
X194724264Y-73169999D01*
X194375000Y-73169999D01*
X194375000Y-73137508D01*
X194336803Y-73084935D01*
X194330623Y-73082927D01*
X194290839Y-73070000D01*
X194290838Y-73070000D01*
X194259162Y-73070000D01*
X194259160Y-73070000D01*
X194213196Y-73084935D01*
X194187373Y-73120478D01*
X194175000Y-73137508D01*
X194175000Y-73202492D01*
X193818241Y-73202492D01*
X193850735Y-73169998D01*
X193587500Y-72906764D01*
X193324263Y-73170000D01*
X193000000Y-73170000D01*
X193000000Y-73137508D01*
X192961803Y-73084935D01*
X192955623Y-73082927D01*
X192915839Y-73070000D01*
X192915838Y-73070000D01*
X192884162Y-73070000D01*
X192884160Y-73070000D01*
X192838196Y-73084935D01*
X192812373Y-73120478D01*
X192800000Y-73137508D01*
X192800000Y-73202492D01*
X192443244Y-73202492D01*
X192475736Y-73170000D01*
X192162160Y-72856424D01*
X192115122Y-72990857D01*
X192094938Y-73169997D01*
X192094938Y-73170002D01*
X185193884Y-73170002D01*
X185209627Y-73141368D01*
X185214905Y-73120806D01*
X185221207Y-73102399D01*
X185229635Y-73082927D01*
X185237233Y-73034953D01*
X185238414Y-73029247D01*
X185250500Y-72982177D01*
X185250500Y-72960949D01*
X185252027Y-72941549D01*
X185252469Y-72938758D01*
X185255346Y-72920595D01*
X185250775Y-72872238D01*
X185250500Y-72866400D01*
X185250500Y-72470000D01*
X192624264Y-72470000D01*
X192900000Y-72745736D01*
X193143244Y-72502492D01*
X193500000Y-72502492D01*
X193538197Y-72555065D01*
X193584162Y-72570000D01*
X193584163Y-72570000D01*
X193615837Y-72570000D01*
X193615838Y-72570000D01*
X193661803Y-72555065D01*
X193700000Y-72502492D01*
X193700000Y-72469999D01*
X194024264Y-72469999D01*
X194287500Y-72733234D01*
X194518242Y-72502492D01*
X194900000Y-72502492D01*
X194938197Y-72555065D01*
X194984162Y-72570000D01*
X194984163Y-72570000D01*
X195015837Y-72570000D01*
X195015838Y-72570000D01*
X195061803Y-72555065D01*
X195100000Y-72502492D01*
X195100000Y-72470000D01*
X195424264Y-72470000D01*
X195700000Y-72745736D01*
X195975735Y-72470000D01*
X195700000Y-72194264D01*
X195424264Y-72469999D01*
X195424264Y-72470000D01*
X195100000Y-72470000D01*
X195100000Y-72437508D01*
X195061803Y-72384935D01*
X195023271Y-72372415D01*
X195015839Y-72370000D01*
X195015838Y-72370000D01*
X194984162Y-72370000D01*
X194984160Y-72370000D01*
X194938196Y-72384935D01*
X194900544Y-72436759D01*
X194900000Y-72437508D01*
X194900000Y-72502492D01*
X194518242Y-72502492D01*
X194550735Y-72469999D01*
X194287500Y-72206764D01*
X194024264Y-72469999D01*
X193700000Y-72469999D01*
X193700000Y-72437508D01*
X193661803Y-72384935D01*
X193623271Y-72372415D01*
X193615839Y-72370000D01*
X193615838Y-72370000D01*
X193584162Y-72370000D01*
X193584160Y-72370000D01*
X193538196Y-72384935D01*
X193500544Y-72436759D01*
X193500000Y-72437508D01*
X193500000Y-72502492D01*
X193143244Y-72502492D01*
X193175736Y-72470000D01*
X192900000Y-72194264D01*
X192624264Y-72470000D01*
X185250500Y-72470000D01*
X185250500Y-71770002D01*
X192094938Y-71770002D01*
X192115122Y-71949142D01*
X192162160Y-72083573D01*
X192162161Y-72083574D01*
X192443244Y-71802492D01*
X192800000Y-71802492D01*
X192823646Y-71835038D01*
X192833707Y-71848886D01*
X192838197Y-71855065D01*
X192884162Y-71870000D01*
X192884163Y-71870000D01*
X192915837Y-71870000D01*
X192915838Y-71870000D01*
X192961803Y-71855065D01*
X193000000Y-71802492D01*
X193000000Y-71770000D01*
X193324264Y-71770000D01*
X193587500Y-72033235D01*
X193818244Y-71802492D01*
X194175000Y-71802492D01*
X194198646Y-71835038D01*
X194208707Y-71848886D01*
X194213197Y-71855065D01*
X194259162Y-71870000D01*
X194259163Y-71870000D01*
X194290837Y-71870000D01*
X194290838Y-71870000D01*
X194336803Y-71855065D01*
X194375000Y-71802492D01*
X194375000Y-71769999D01*
X194724263Y-71769999D01*
X195000000Y-72045736D01*
X195243244Y-71802492D01*
X195600000Y-71802492D01*
X195623646Y-71835038D01*
X195633707Y-71848886D01*
X195638197Y-71855065D01*
X195684162Y-71870000D01*
X195684163Y-71870000D01*
X195715837Y-71870000D01*
X195715838Y-71870000D01*
X195761803Y-71855065D01*
X195800000Y-71802492D01*
X195800000Y-71769999D01*
X196124263Y-71769999D01*
X196437837Y-72083574D01*
X196437837Y-72083573D01*
X196484877Y-71949141D01*
X196484878Y-71949138D01*
X196505062Y-71770002D01*
X196505062Y-71769997D01*
X196484878Y-71590861D01*
X196484877Y-71590858D01*
X196437837Y-71456425D01*
X196124263Y-71769999D01*
X195800000Y-71769999D01*
X195800000Y-71737508D01*
X195761803Y-71684935D01*
X195743876Y-71679110D01*
X195715839Y-71670000D01*
X195715838Y-71670000D01*
X195684162Y-71670000D01*
X195684160Y-71670000D01*
X195638196Y-71684935D01*
X195609337Y-71724657D01*
X195600000Y-71737508D01*
X195600000Y-71802492D01*
X195243244Y-71802492D01*
X195275736Y-71770000D01*
X195000000Y-71494264D01*
X194724263Y-71769999D01*
X194375000Y-71769999D01*
X194375000Y-71737508D01*
X194336803Y-71684935D01*
X194318876Y-71679110D01*
X194290839Y-71670000D01*
X194290838Y-71670000D01*
X194259162Y-71670000D01*
X194259160Y-71670000D01*
X194213196Y-71684935D01*
X194184337Y-71724657D01*
X194175000Y-71737508D01*
X194175000Y-71802492D01*
X193818244Y-71802492D01*
X193850736Y-71770000D01*
X193587500Y-71506764D01*
X193324264Y-71770000D01*
X193000000Y-71770000D01*
X193000000Y-71737508D01*
X192961803Y-71684935D01*
X192943876Y-71679110D01*
X192915839Y-71670000D01*
X192915838Y-71670000D01*
X192884162Y-71670000D01*
X192884160Y-71670000D01*
X192838196Y-71684935D01*
X192809337Y-71724657D01*
X192800000Y-71737508D01*
X192800000Y-71802492D01*
X192443244Y-71802492D01*
X192475736Y-71770000D01*
X192162160Y-71456424D01*
X192115122Y-71590857D01*
X192094938Y-71769997D01*
X192094938Y-71770002D01*
X185250500Y-71770002D01*
X185250500Y-71370921D01*
X185270185Y-71303882D01*
X185282351Y-71287948D01*
X185332533Y-71232216D01*
X185427179Y-71068284D01*
X185438916Y-71032160D01*
X192586424Y-71032160D01*
X192900000Y-71345736D01*
X193143243Y-71102492D01*
X193500000Y-71102492D01*
X193538197Y-71155065D01*
X193584162Y-71170000D01*
X193584163Y-71170000D01*
X193615837Y-71170000D01*
X193615838Y-71170000D01*
X193661803Y-71155065D01*
X193700000Y-71102492D01*
X193700000Y-71070000D01*
X194024264Y-71070000D01*
X194287500Y-71333236D01*
X194518244Y-71102492D01*
X194900000Y-71102492D01*
X194938197Y-71155065D01*
X194984162Y-71170000D01*
X194984163Y-71170000D01*
X195015837Y-71170000D01*
X195015838Y-71170000D01*
X195061803Y-71155065D01*
X195100000Y-71102492D01*
X195100000Y-71070000D01*
X195424264Y-71070000D01*
X195700000Y-71345736D01*
X195700001Y-71345736D01*
X196013574Y-71032161D01*
X196013573Y-71032160D01*
X195879135Y-70985120D01*
X195878343Y-70984939D01*
X195877883Y-70984681D01*
X195872571Y-70982823D01*
X195872896Y-70981891D01*
X195817368Y-70950824D01*
X195788049Y-70897124D01*
X195787177Y-70897430D01*
X195785322Y-70892130D01*
X195785057Y-70891644D01*
X195784877Y-70890859D01*
X195737837Y-70756425D01*
X195737837Y-70756424D01*
X195424264Y-71069999D01*
X195424264Y-71070000D01*
X195100000Y-71070000D01*
X195100000Y-71037508D01*
X195061803Y-70984935D01*
X195054038Y-70982412D01*
X195015839Y-70970000D01*
X195015838Y-70970000D01*
X194984162Y-70970000D01*
X194984160Y-70970000D01*
X194938196Y-70984935D01*
X194903885Y-71032161D01*
X194900000Y-71037508D01*
X194900000Y-71102492D01*
X194518244Y-71102492D01*
X194563236Y-71057500D01*
X194300000Y-70794264D01*
X194024264Y-71070000D01*
X193700000Y-71070000D01*
X193700000Y-71037508D01*
X193661803Y-70984935D01*
X193654038Y-70982412D01*
X193615839Y-70970000D01*
X193615838Y-70970000D01*
X193584162Y-70970000D01*
X193584160Y-70970000D01*
X193538196Y-70984935D01*
X193503885Y-71032161D01*
X193500000Y-71037508D01*
X193500000Y-71102492D01*
X193143243Y-71102492D01*
X193175736Y-71069999D01*
X192862160Y-70756424D01*
X192815119Y-70890866D01*
X192814938Y-70891660D01*
X192814680Y-70892119D01*
X192812823Y-70897429D01*
X192811892Y-70897103D01*
X192780822Y-70952634D01*
X192727124Y-70981954D01*
X192727429Y-70982823D01*
X192722151Y-70984669D01*
X192721660Y-70984938D01*
X192720866Y-70985119D01*
X192586424Y-71032160D01*
X185438916Y-71032160D01*
X185485674Y-70888256D01*
X185505460Y-70700000D01*
X185485674Y-70511744D01*
X185427323Y-70332160D01*
X193286424Y-70332160D01*
X193600000Y-70645736D01*
X193600001Y-70645736D01*
X193913574Y-70332161D01*
X193913573Y-70332160D01*
X194686424Y-70332160D01*
X195000000Y-70645736D01*
X195000001Y-70645736D01*
X195313574Y-70332161D01*
X195313573Y-70332160D01*
X195179142Y-70285122D01*
X195000003Y-70264938D01*
X194999997Y-70264938D01*
X194820857Y-70285122D01*
X194686424Y-70332160D01*
X193913573Y-70332160D01*
X193779142Y-70285122D01*
X193600003Y-70264938D01*
X193599997Y-70264938D01*
X193420857Y-70285122D01*
X193286424Y-70332160D01*
X185427323Y-70332160D01*
X185427179Y-70331716D01*
X185332533Y-70167784D01*
X185205871Y-70027112D01*
X185199858Y-70022743D01*
X185110148Y-69957565D01*
X185067482Y-69902235D01*
X185061503Y-69832622D01*
X185094109Y-69770827D01*
X185095280Y-69769638D01*
X187828100Y-67036819D01*
X187889424Y-67003334D01*
X187915782Y-67000500D01*
X188648259Y-67000500D01*
X189294218Y-67000500D01*
X189361257Y-67020185D01*
G37*
%TD.AperFunction*%
%TA.AperFunction,Conductor*%
G36*
X180477370Y-64485185D02*
G01*
X180523125Y-64537989D01*
X180533069Y-64607147D01*
X180515324Y-64655472D01*
X180424212Y-64800473D01*
X180364631Y-64970745D01*
X180364630Y-64970750D01*
X180344435Y-65149996D01*
X180344435Y-65150003D01*
X180364630Y-65329249D01*
X180364631Y-65329254D01*
X180424211Y-65499523D01*
X180491873Y-65607205D01*
X180520184Y-65652262D01*
X180647738Y-65779816D01*
X180800478Y-65875789D01*
X180934671Y-65922745D01*
X180970745Y-65935368D01*
X180970750Y-65935369D01*
X181149996Y-65955565D01*
X181150000Y-65955565D01*
X181150003Y-65955565D01*
X181269942Y-65942051D01*
X181338764Y-65954105D01*
X181390144Y-66001454D01*
X181400867Y-66024315D01*
X181419544Y-66077690D01*
X181476634Y-66168548D01*
X181480494Y-66174690D01*
X181499500Y-66240662D01*
X181499500Y-71423777D01*
X181480494Y-71489748D01*
X181443956Y-71547897D01*
X181406273Y-71655590D01*
X181365551Y-71712366D01*
X181300599Y-71738113D01*
X181232037Y-71724657D01*
X181201551Y-71702316D01*
X181036819Y-71537584D01*
X181003334Y-71476261D01*
X181000500Y-71449903D01*
X181000500Y-70982412D01*
X181020185Y-70915373D01*
X181027555Y-70905097D01*
X181029810Y-70902267D01*
X181029816Y-70902262D01*
X181125789Y-70749522D01*
X181185368Y-70579255D01*
X181185986Y-70573770D01*
X181205565Y-70400003D01*
X181205565Y-70399996D01*
X181185369Y-70220750D01*
X181185368Y-70220745D01*
X181159664Y-70147288D01*
X181125789Y-70050478D01*
X181097062Y-70004760D01*
X181062654Y-69950000D01*
X181029816Y-69897738D01*
X180902262Y-69770184D01*
X180892423Y-69764002D01*
X180749523Y-69674211D01*
X180579254Y-69614631D01*
X180579249Y-69614630D01*
X180400004Y-69594435D01*
X180399996Y-69594435D01*
X180220750Y-69614630D01*
X180220745Y-69614631D01*
X180050476Y-69674211D01*
X179897737Y-69770184D01*
X179770184Y-69897737D01*
X179674211Y-70050476D01*
X179614631Y-70220745D01*
X179614630Y-70220750D01*
X179594435Y-70399996D01*
X179594435Y-70400003D01*
X179614630Y-70579249D01*
X179614631Y-70579254D01*
X179674211Y-70749523D01*
X179702324Y-70794264D01*
X179767147Y-70897429D01*
X179770185Y-70902263D01*
X179772445Y-70905097D01*
X179773334Y-70907275D01*
X179773889Y-70908158D01*
X179773734Y-70908255D01*
X179798855Y-70969783D01*
X179799500Y-70982412D01*
X179799500Y-71706571D01*
X179798969Y-71714669D01*
X179796126Y-71736266D01*
X179794318Y-71749999D01*
X179794318Y-71750001D01*
X179809433Y-71864810D01*
X179814955Y-71906760D01*
X179814956Y-71906762D01*
X179875464Y-72052841D01*
X179971718Y-72178282D01*
X179999995Y-72199980D01*
X180006085Y-72205320D01*
X180348878Y-72548113D01*
X180620255Y-72819490D01*
X180625606Y-72825591D01*
X180647304Y-72853868D01*
X180726659Y-72914759D01*
X180772745Y-72950122D01*
X180772747Y-72950122D01*
X180772749Y-72950124D01*
X180826729Y-72972483D01*
X180918824Y-73010630D01*
X180997205Y-73020948D01*
X181075585Y-73031268D01*
X181075586Y-73031268D01*
X181110915Y-73026616D01*
X181119014Y-73026086D01*
X182980986Y-73026086D01*
X182989084Y-73026616D01*
X183024414Y-73031268D01*
X183024415Y-73031268D01*
X183076667Y-73024388D01*
X183181176Y-73010630D01*
X183268020Y-72974657D01*
X183337488Y-72967189D01*
X183399968Y-72998464D01*
X183435620Y-73058553D01*
X183433126Y-73128378D01*
X183403153Y-73176900D01*
X181716873Y-74863181D01*
X181655550Y-74896666D01*
X181629192Y-74899500D01*
X181605354Y-74899500D01*
X181572897Y-74906398D01*
X181420197Y-74938855D01*
X181420192Y-74938857D01*
X181247270Y-75015848D01*
X181247265Y-75015851D01*
X181095910Y-75125818D01*
X181030104Y-75149298D01*
X181023025Y-75149500D01*
X179830171Y-75149500D01*
X179763132Y-75129815D01*
X179722784Y-75087500D01*
X179702431Y-75052249D01*
X179682533Y-75017784D01*
X179555871Y-74877112D01*
X179536697Y-74863181D01*
X179402734Y-74765851D01*
X179402729Y-74765848D01*
X179229807Y-74688857D01*
X179229802Y-74688855D01*
X179084000Y-74657865D01*
X179044646Y-74649500D01*
X178899500Y-74649500D01*
X178832461Y-74629815D01*
X178786706Y-74577011D01*
X178775500Y-74525500D01*
X178775500Y-70959512D01*
X178776031Y-70951410D01*
X178780465Y-70917731D01*
X178779088Y-70907275D01*
X178775766Y-70882045D01*
X178775765Y-70882026D01*
X178775500Y-70880012D01*
X178760687Y-70767496D01*
X178702698Y-70627499D01*
X178695273Y-70617823D01*
X178661470Y-70573770D01*
X178632660Y-70536222D01*
X178632656Y-70536218D01*
X178618510Y-70517784D01*
X178610451Y-70507281D01*
X178610449Y-70507280D01*
X178610449Y-70507279D01*
X178596027Y-70496213D01*
X178583490Y-70486593D01*
X178577400Y-70481252D01*
X172773329Y-64677181D01*
X172739844Y-64615858D01*
X172744828Y-64546166D01*
X172786700Y-64490233D01*
X172852164Y-64465816D01*
X172861010Y-64465500D01*
X180410331Y-64465500D01*
X180477370Y-64485185D01*
G37*
%TD.AperFunction*%
%TA.AperFunction,Conductor*%
G36*
X220005203Y-63362027D02*
G01*
X220042977Y-63420805D01*
X220047220Y-63441857D01*
X220048455Y-63452825D01*
X220104315Y-63612463D01*
X220197998Y-63761556D01*
X220196157Y-63762712D01*
X220218625Y-63817738D01*
X220219270Y-63830369D01*
X220219270Y-65479629D01*
X220199585Y-65546668D01*
X220182951Y-65567310D01*
X214380542Y-71369718D01*
X214319219Y-71403203D01*
X214306746Y-71405257D01*
X214231946Y-71413685D01*
X214072307Y-71469544D01*
X214072302Y-71469547D01*
X213929115Y-71559518D01*
X213929109Y-71559523D01*
X213809521Y-71679111D01*
X213729493Y-71806475D01*
X213677159Y-71852765D01*
X213608105Y-71863413D01*
X213544257Y-71835038D01*
X213505885Y-71776648D01*
X213500500Y-71740502D01*
X213500500Y-68813705D01*
X213501809Y-68795735D01*
X213502223Y-68792905D01*
X213505289Y-68771977D01*
X213500735Y-68719933D01*
X213500500Y-68714532D01*
X213500500Y-68706296D01*
X213500500Y-68706291D01*
X213496691Y-68673705D01*
X213489998Y-68597203D01*
X213489995Y-68597194D01*
X213488538Y-68590135D01*
X213488598Y-68590122D01*
X213486965Y-68582757D01*
X213486906Y-68582772D01*
X213485241Y-68575749D01*
X213485241Y-68575745D01*
X213458971Y-68503568D01*
X213445799Y-68463816D01*
X213434816Y-68430670D01*
X213431761Y-68424118D01*
X213431815Y-68424092D01*
X213428533Y-68417312D01*
X213428480Y-68417340D01*
X213425238Y-68410886D01*
X213425237Y-68410883D01*
X213383038Y-68346723D01*
X213342712Y-68281344D01*
X213342711Y-68281343D01*
X213342710Y-68281341D01*
X213338234Y-68275681D01*
X213338280Y-68275643D01*
X213333519Y-68269799D01*
X213333474Y-68269838D01*
X213328834Y-68264308D01*
X213272982Y-68211613D01*
X212462770Y-67401402D01*
X212432521Y-67352041D01*
X212377179Y-67181716D01*
X212282533Y-67017784D01*
X212155871Y-66877112D01*
X212155870Y-66877111D01*
X212002734Y-66765851D01*
X212002729Y-66765848D01*
X211829807Y-66688857D01*
X211829802Y-66688855D01*
X211672154Y-66655347D01*
X211644646Y-66649500D01*
X211455354Y-66649500D01*
X211427846Y-66655347D01*
X211270197Y-66688855D01*
X211270196Y-66688855D01*
X211150435Y-66742177D01*
X211081185Y-66751461D01*
X211049565Y-66742177D01*
X210929802Y-66688855D01*
X210772154Y-66655347D01*
X210744646Y-66649500D01*
X210555354Y-66649500D01*
X210527846Y-66655347D01*
X210370197Y-66688855D01*
X210370196Y-66688855D01*
X210250435Y-66742177D01*
X210181185Y-66751461D01*
X210149565Y-66742177D01*
X210029802Y-66688855D01*
X209872154Y-66655347D01*
X209844646Y-66649500D01*
X209655354Y-66649500D01*
X209627846Y-66655347D01*
X209470197Y-66688855D01*
X209470195Y-66688856D01*
X209432899Y-66705462D01*
X209363649Y-66714746D01*
X209300373Y-66685118D01*
X209294783Y-66679863D01*
X208516451Y-65901531D01*
X208455061Y-65836949D01*
X208455060Y-65836948D01*
X208455059Y-65836947D01*
X208427204Y-65817559D01*
X208404709Y-65801902D01*
X208400946Y-65799064D01*
X208353413Y-65760305D01*
X208353406Y-65760300D01*
X208322959Y-65744397D01*
X208316251Y-65740334D01*
X208288049Y-65720705D01*
X208288046Y-65720703D01*
X208288045Y-65720703D01*
X208288041Y-65720701D01*
X208231680Y-65696514D01*
X208227424Y-65694493D01*
X208173057Y-65666094D01*
X208173050Y-65666091D01*
X208173049Y-65666091D01*
X208167008Y-65664362D01*
X208140030Y-65656642D01*
X208132630Y-65654008D01*
X208101057Y-65640459D01*
X208101058Y-65640459D01*
X208040966Y-65628109D01*
X208036391Y-65626986D01*
X207977420Y-65610113D01*
X207977425Y-65610113D01*
X207943158Y-65607503D01*
X207935380Y-65606412D01*
X207901742Y-65599500D01*
X207901741Y-65599500D01*
X207840402Y-65599500D01*
X207835695Y-65599321D01*
X207830121Y-65598896D01*
X207774524Y-65594662D01*
X207754589Y-65597201D01*
X207740440Y-65599003D01*
X207732611Y-65599500D01*
X190825782Y-65599500D01*
X190758743Y-65579815D01*
X190738101Y-65563181D01*
X190476451Y-65301531D01*
X190415061Y-65236949D01*
X190415060Y-65236948D01*
X190415059Y-65236947D01*
X190387204Y-65217559D01*
X190364709Y-65201902D01*
X190360946Y-65199064D01*
X190313413Y-65160305D01*
X190313406Y-65160300D01*
X190282959Y-65144397D01*
X190276251Y-65140334D01*
X190248049Y-65120705D01*
X190248046Y-65120703D01*
X190248045Y-65120703D01*
X190248041Y-65120701D01*
X190191680Y-65096514D01*
X190187424Y-65094493D01*
X190133057Y-65066094D01*
X190133050Y-65066091D01*
X190133049Y-65066091D01*
X190118473Y-65061920D01*
X190100030Y-65056642D01*
X190092630Y-65054008D01*
X190061057Y-65040459D01*
X190061058Y-65040459D01*
X190000966Y-65028109D01*
X189996391Y-65026986D01*
X189937420Y-65010113D01*
X189937425Y-65010113D01*
X189903158Y-65007503D01*
X189895380Y-65006412D01*
X189861742Y-64999500D01*
X189861741Y-64999500D01*
X189800402Y-64999500D01*
X189795695Y-64999321D01*
X189790121Y-64998896D01*
X189734524Y-64994662D01*
X189714589Y-64997201D01*
X189700440Y-64999003D01*
X189692611Y-64999500D01*
X187462717Y-64999500D01*
X187373637Y-64997243D01*
X187373628Y-64997243D01*
X187322476Y-65006412D01*
X187313254Y-65008064D01*
X187308595Y-65008718D01*
X187247564Y-65014925D01*
X187247562Y-65014926D01*
X187214780Y-65025210D01*
X187207156Y-65027081D01*
X187204057Y-65027637D01*
X187173349Y-65033141D01*
X187116381Y-65055895D01*
X187111945Y-65057474D01*
X187053414Y-65075840D01*
X187053410Y-65075842D01*
X187023378Y-65092510D01*
X187016284Y-65095879D01*
X186984380Y-65108624D01*
X186933167Y-65142375D01*
X186929139Y-65144815D01*
X186875502Y-65174588D01*
X186875499Y-65174590D01*
X186849429Y-65196969D01*
X186843160Y-65201696D01*
X186814485Y-65220595D01*
X186814481Y-65220598D01*
X186771116Y-65263962D01*
X186767662Y-65267163D01*
X186721104Y-65307135D01*
X186717495Y-65310932D01*
X186657040Y-65345960D01*
X186627621Y-65349500D01*
X183670808Y-65349500D01*
X183603769Y-65329815D01*
X183583127Y-65313181D01*
X183020434Y-64750488D01*
X183010361Y-64737914D01*
X183010174Y-64738070D01*
X183005201Y-64732059D01*
X182952755Y-64682809D01*
X182947128Y-64677181D01*
X182913643Y-64615858D01*
X182918627Y-64546166D01*
X182960499Y-64490233D01*
X183025963Y-64465816D01*
X183034809Y-64465500D01*
X200843127Y-64465500D01*
X200910166Y-64485185D01*
X200955921Y-64537989D01*
X200961058Y-64551182D01*
X201003853Y-64682894D01*
X201003856Y-64682900D01*
X201098502Y-64846832D01*
X201164939Y-64920617D01*
X201225164Y-64987504D01*
X201378300Y-65098764D01*
X201378305Y-65098767D01*
X201551227Y-65175758D01*
X201551232Y-65175760D01*
X201736389Y-65215116D01*
X201736390Y-65215116D01*
X201925679Y-65215116D01*
X201925681Y-65215116D01*
X202110838Y-65175760D01*
X202283765Y-65098767D01*
X202436906Y-64987504D01*
X202544432Y-64868084D01*
X202603918Y-64831436D01*
X202651600Y-64830073D01*
X202651796Y-64828215D01*
X202658254Y-64828894D01*
X202658255Y-64828894D01*
X202847545Y-64828894D01*
X202847547Y-64828894D01*
X203032704Y-64789538D01*
X203205631Y-64712545D01*
X203358772Y-64601282D01*
X203485434Y-64460610D01*
X203580080Y-64296678D01*
X203638575Y-64116650D01*
X203658361Y-63928394D01*
X203638575Y-63740138D01*
X203614073Y-63664730D01*
X203597044Y-63612318D01*
X203595049Y-63542477D01*
X203631129Y-63482644D01*
X203693830Y-63451816D01*
X203714975Y-63450000D01*
X219800000Y-63450000D01*
X219802386Y-63447613D01*
X219819685Y-63388701D01*
X219872489Y-63342946D01*
X219941647Y-63333002D01*
X220005203Y-63362027D01*
G37*
%TD.AperFunction*%
%TD*%
M02*
