%TF.GenerationSoftware,KiCad,Pcbnew,7.0.9*%
%TF.CreationDate,2023-12-17T15:39:31+01:00*%
%TF.ProjectId,ws2812-clock,77733238-3132-42d6-936c-6f636b2e6b69,rev?*%
%TF.SameCoordinates,Original*%
%TF.FileFunction,Soldermask,Top*%
%TF.FilePolarity,Negative*%
%FSLAX46Y46*%
G04 Gerber Fmt 4.6, Leading zero omitted, Abs format (unit mm)*
G04 Created by KiCad (PCBNEW 7.0.9) date 2023-12-17 15:39:31*
%MOMM*%
%LPD*%
G01*
G04 APERTURE LIST*
G04 Aperture macros list*
%AMRoundRect*
0 Rectangle with rounded corners*
0 $1 Rounding radius*
0 $2 $3 $4 $5 $6 $7 $8 $9 X,Y pos of 4 corners*
0 Add a 4 corners polygon primitive as box body*
4,1,4,$2,$3,$4,$5,$6,$7,$8,$9,$2,$3,0*
0 Add four circle primitives for the rounded corners*
1,1,$1+$1,$2,$3*
1,1,$1+$1,$4,$5*
1,1,$1+$1,$6,$7*
1,1,$1+$1,$8,$9*
0 Add four rect primitives between the rounded corners*
20,1,$1+$1,$2,$3,$4,$5,0*
20,1,$1+$1,$4,$5,$6,$7,0*
20,1,$1+$1,$6,$7,$8,$9,0*
20,1,$1+$1,$8,$9,$2,$3,0*%
%AMFreePoly0*
4,1,6,1.000000,0.000000,0.500000,-0.750000,-0.500000,-0.750000,-0.500000,0.750000,0.500000,0.750000,1.000000,0.000000,1.000000,0.000000,$1*%
%AMFreePoly1*
4,1,6,0.500000,-0.750000,-0.650000,-0.750000,-0.150000,0.000000,-0.650000,0.750000,0.500000,0.750000,0.500000,-0.750000,0.500000,-0.750000,$1*%
%AMFreePoly2*
4,1,6,0.500000,-0.850000,-0.500000,-0.850000,-0.500000,0.550000,-0.200000,0.850000,0.500000,0.850000,0.500000,-0.850000,0.500000,-0.850000,$1*%
G04 Aperture macros list end*
%ADD10R,1.230000X1.360000*%
%ADD11O,2.000000X4.600000*%
%ADD12O,4.600000X2.000000*%
%ADD13R,1.150000X1.780000*%
%ADD14C,0.650000*%
%ADD15O,2.100000X1.000000*%
%ADD16O,1.800000X1.000000*%
%ADD17R,1.150000X0.600000*%
%ADD18R,1.150000X0.300000*%
%ADD19R,1.500000X0.900000*%
%ADD20R,0.900000X1.500000*%
%ADD21FreePoly0,90.000000*%
%ADD22FreePoly1,90.000000*%
%ADD23RoundRect,0.135000X-0.185000X0.135000X-0.185000X-0.135000X0.185000X-0.135000X0.185000X0.135000X0*%
%ADD24RoundRect,0.225000X0.250000X-0.225000X0.250000X0.225000X-0.250000X0.225000X-0.250000X-0.225000X0*%
%ADD25RoundRect,0.225000X0.225000X0.250000X-0.225000X0.250000X-0.225000X-0.250000X0.225000X-0.250000X0*%
%ADD26RoundRect,0.218750X0.218750X0.256250X-0.218750X0.256250X-0.218750X-0.256250X0.218750X-0.256250X0*%
%ADD27RoundRect,0.225000X-0.250000X0.225000X-0.250000X-0.225000X0.250000X-0.225000X0.250000X0.225000X0*%
%ADD28RoundRect,0.225000X-0.225000X-0.250000X0.225000X-0.250000X0.225000X0.250000X-0.225000X0.250000X0*%
%ADD29RoundRect,0.140000X0.170000X-0.140000X0.170000X0.140000X-0.170000X0.140000X-0.170000X-0.140000X0*%
%ADD30RoundRect,0.150000X-0.587500X-0.150000X0.587500X-0.150000X0.587500X0.150000X-0.587500X0.150000X0*%
%ADD31R,1.700000X1.700000*%
%ADD32O,1.700000X1.700000*%
%ADD33RoundRect,0.140000X0.140000X0.170000X-0.140000X0.170000X-0.140000X-0.170000X0.140000X-0.170000X0*%
%ADD34RoundRect,0.135000X0.185000X-0.135000X0.185000X0.135000X-0.185000X0.135000X-0.185000X-0.135000X0*%
%ADD35RoundRect,0.135000X0.135000X0.185000X-0.135000X0.185000X-0.135000X-0.185000X0.135000X-0.185000X0*%
%ADD36RoundRect,0.218750X-0.218750X-0.256250X0.218750X-0.256250X0.218750X0.256250X-0.218750X0.256250X0*%
%ADD37FreePoly1,0.000000*%
%ADD38FreePoly0,0.000000*%
%ADD39R,1.220000X0.650000*%
%ADD40RoundRect,0.150000X0.150000X-0.587500X0.150000X0.587500X-0.150000X0.587500X-0.150000X-0.587500X0*%
%ADD41RoundRect,0.135000X-0.135000X-0.185000X0.135000X-0.185000X0.135000X0.185000X-0.135000X0.185000X0*%
%ADD42C,2.000000*%
%ADD43O,0.570000X1.950000*%
%ADD44RoundRect,0.140000X-0.170000X0.140000X-0.170000X-0.140000X0.170000X-0.140000X0.170000X0.140000X0*%
%ADD45O,0.770000X0.360000*%
%ADD46R,0.550000X0.250000*%
%ADD47FreePoly2,180.000000*%
%ADD48R,2.000000X1.500000*%
%ADD49R,2.000000X3.800000*%
%ADD50FreePoly0,270.000000*%
%ADD51FreePoly1,270.000000*%
%ADD52RoundRect,0.150000X0.825000X0.150000X-0.825000X0.150000X-0.825000X-0.150000X0.825000X-0.150000X0*%
%ADD53C,0.600000*%
%ADD54R,3.800000X3.800000*%
G04 APERTURE END LIST*
D10*
%TO.C,SW6*%
X228230000Y-51500000D03*
X232590000Y-51500000D03*
%TD*%
%TO.C,SW5*%
X159010000Y-51550000D03*
X163370000Y-51550000D03*
%TD*%
D11*
%TO.C,DC1*%
X38950000Y-176400000D03*
X32750000Y-176400000D03*
D12*
X35950000Y-181100000D03*
%TD*%
D10*
%TO.C,SW7*%
X221370000Y-51525000D03*
X225730000Y-51525000D03*
%TD*%
%TO.C,SW2*%
X165870000Y-51550000D03*
X170230000Y-51550000D03*
%TD*%
D13*
%TO.C,BZ1*%
X198780000Y-95280000D03*
X192820000Y-102880000D03*
X198780000Y-102880000D03*
X192820000Y-95280000D03*
%TD*%
D14*
%TO.C,USBC1*%
X31457500Y-162265000D03*
X31457500Y-168045000D03*
D15*
X31957500Y-160835000D03*
D16*
X27777500Y-160835000D03*
X27777500Y-169475000D03*
D15*
X31957500Y-169475000D03*
D17*
X32517500Y-161955000D03*
X32517500Y-162755000D03*
D18*
X32517500Y-163905000D03*
X32517500Y-164905000D03*
X32517500Y-165405000D03*
X32517500Y-166405000D03*
D17*
X32517500Y-168355000D03*
X32517500Y-167555000D03*
D18*
X32517500Y-166905000D03*
X32517500Y-165905000D03*
X32517500Y-164405000D03*
X32517500Y-163405000D03*
%TD*%
D19*
%TO.C,D73*%
X117600000Y-133100000D03*
X117600000Y-136400000D03*
X122500000Y-136400000D03*
X122500000Y-133100000D03*
%TD*%
%TO.C,D4*%
X42450000Y-93810000D03*
X42450000Y-97110000D03*
X47350000Y-97110000D03*
X47350000Y-93810000D03*
%TD*%
D20*
%TO.C,D51*%
X62920000Y-71550000D03*
X66220000Y-71550000D03*
X66220000Y-66650000D03*
X62920000Y-66650000D03*
%TD*%
%TO.C,D81*%
X124800000Y-190000000D03*
X128100000Y-190000000D03*
X128100000Y-185100000D03*
X124800000Y-185100000D03*
%TD*%
D19*
%TO.C,D155*%
X273999999Y-169560000D03*
X273999999Y-166260000D03*
X269099999Y-166260000D03*
X269099999Y-169560000D03*
%TD*%
%TO.C,D46*%
X106500000Y-90499999D03*
X106500000Y-87199999D03*
X101600000Y-87199999D03*
X101600000Y-90499999D03*
%TD*%
%TO.C,D43*%
X106500001Y-110359999D03*
X106500001Y-107059999D03*
X101600001Y-107059999D03*
X101600001Y-110359999D03*
%TD*%
D21*
%TO.C,JP5*%
X227600000Y-58225000D03*
D22*
X227600000Y-56775000D03*
%TD*%
D19*
%TO.C,D198*%
X285050000Y-166200000D03*
X285050000Y-169500000D03*
X289950000Y-169500000D03*
X289950000Y-166200000D03*
%TD*%
D23*
%TO.C,R14*%
X162052000Y-55370000D03*
X162052000Y-56390000D03*
%TD*%
D24*
%TO.C,C100*%
X174800000Y-101600000D03*
X174800000Y-100050000D03*
%TD*%
D20*
%TO.C,D192*%
X338590000Y-130800001D03*
X341890000Y-130800001D03*
X341890000Y-125900001D03*
X338590000Y-125900001D03*
%TD*%
D19*
%TO.C,D200*%
X285067500Y-179417500D03*
X285067500Y-182717500D03*
X289967500Y-182717500D03*
X289967500Y-179417500D03*
%TD*%
D25*
%TO.C,C172*%
X239865000Y-73510000D03*
X238315000Y-73510000D03*
%TD*%
D19*
%TO.C,D94*%
X181740000Y-149720000D03*
X181740000Y-146420000D03*
X176840000Y-146420000D03*
X176840000Y-149720000D03*
%TD*%
D25*
%TO.C,C232*%
X340875000Y-73600000D03*
X339325000Y-73600000D03*
%TD*%
D23*
%TO.C,R5*%
X37120000Y-154790000D03*
X37120000Y-155810000D03*
%TD*%
D25*
%TO.C,C243*%
X210579000Y-72136000D03*
X209029000Y-72136000D03*
%TD*%
D20*
%TO.C,D227*%
X305540000Y-71700001D03*
X308840000Y-71700001D03*
X308840000Y-66800001D03*
X305540000Y-66800001D03*
%TD*%
D26*
%TO.C,D239*%
X231187500Y-53940000D03*
X229612500Y-53940000D03*
%TD*%
D19*
%TO.C,D194*%
X285050000Y-139720000D03*
X285050000Y-143020000D03*
X289950000Y-143020000D03*
X289950000Y-139720000D03*
%TD*%
D20*
%TO.C,D111*%
X164580000Y-71600000D03*
X167880000Y-71600000D03*
X167880000Y-66700000D03*
X164580000Y-66700000D03*
%TD*%
D24*
%TO.C,C40*%
X99568000Y-137173000D03*
X99568000Y-135623000D03*
%TD*%
%TO.C,C97*%
X174800000Y-121425000D03*
X174800000Y-119875000D03*
%TD*%
D25*
%TO.C,C135*%
X259725000Y-132625000D03*
X258175000Y-132625000D03*
%TD*%
D20*
%TO.C,D134*%
X250200001Y-130800000D03*
X253500001Y-130800000D03*
X253500001Y-125900000D03*
X250200001Y-125900000D03*
%TD*%
%TO.C,D84*%
X144660001Y-190000000D03*
X147960001Y-190000000D03*
X147960001Y-185100000D03*
X144660001Y-185100000D03*
%TD*%
D27*
%TO.C,C115*%
X203700000Y-115425000D03*
X203700000Y-116975000D03*
%TD*%
D24*
%TO.C,C209*%
X342300000Y-181575000D03*
X342300000Y-180025000D03*
%TD*%
D19*
%TO.C,D125*%
X209912500Y-100462500D03*
X209912500Y-103762500D03*
X214812500Y-103762500D03*
X214812500Y-100462500D03*
%TD*%
D28*
%TO.C,C72*%
X170615000Y-132590000D03*
X172165000Y-132590000D03*
%TD*%
D29*
%TO.C,C241*%
X206248000Y-73914000D03*
X206248000Y-72954000D03*
%TD*%
D19*
%TO.C,D41*%
X106500000Y-123600000D03*
X106500000Y-120300000D03*
X101600000Y-120300000D03*
X101600000Y-123600000D03*
%TD*%
D28*
%TO.C,C25*%
X51803000Y-183134000D03*
X53353000Y-183134000D03*
%TD*%
D24*
%TO.C,C42*%
X99568000Y-114834000D03*
X99568000Y-113284000D03*
%TD*%
D27*
%TO.C,C121*%
X216675000Y-74825000D03*
X216675000Y-76375000D03*
%TD*%
%TO.C,C23*%
X49276000Y-173456000D03*
X49276000Y-175006000D03*
%TD*%
D20*
%TO.C,D203*%
X305490001Y-189900000D03*
X308790001Y-189900000D03*
X308790001Y-185000000D03*
X305490001Y-185000000D03*
%TD*%
D19*
%TO.C,D128*%
X209900000Y-120300000D03*
X209900000Y-123600000D03*
X214800000Y-123600000D03*
X214800000Y-120300000D03*
%TD*%
%TO.C,D138*%
X209900000Y-139720000D03*
X209900000Y-143020000D03*
X214800000Y-143020000D03*
X214800000Y-139720000D03*
%TD*%
D28*
%TO.C,C31*%
X91427000Y-183134000D03*
X92977000Y-183134000D03*
%TD*%
D25*
%TO.C,C68*%
X147550000Y-132600000D03*
X146000000Y-132600000D03*
%TD*%
D19*
%TO.C,D137*%
X209900000Y-133100000D03*
X209900000Y-136400000D03*
X214800000Y-136400000D03*
X214800000Y-133100000D03*
%TD*%
%TO.C,D218*%
X349100000Y-116980000D03*
X349100000Y-113680000D03*
X344200000Y-113680000D03*
X344200000Y-116980000D03*
%TD*%
D20*
%TO.C,D207*%
X331970001Y-189900000D03*
X335270001Y-189900000D03*
X335270001Y-185000000D03*
X331970001Y-185000000D03*
%TD*%
D24*
%TO.C,C90*%
X174800000Y-174025000D03*
X174800000Y-172475000D03*
%TD*%
D20*
%TO.C,D149*%
X243580000Y-189999999D03*
X246880000Y-189999999D03*
X246880000Y-185099999D03*
X243580000Y-185099999D03*
%TD*%
D24*
%TO.C,C157*%
X267275000Y-155425000D03*
X267275000Y-153875000D03*
%TD*%
D25*
%TO.C,C66*%
X134350000Y-132600000D03*
X132800000Y-132600000D03*
%TD*%
%TO.C,C69*%
X154175000Y-132600000D03*
X152625000Y-132600000D03*
%TD*%
D19*
%TO.C,D77*%
X117600000Y-159580000D03*
X117600000Y-162880000D03*
X122500000Y-162880000D03*
X122500000Y-159580000D03*
%TD*%
D24*
%TO.C,C223*%
X342400000Y-82975000D03*
X342400000Y-81425000D03*
%TD*%
D19*
%TO.C,D2*%
X42450000Y-80570000D03*
X42450000Y-83870000D03*
X47350000Y-83870000D03*
X47350000Y-80570000D03*
%TD*%
D24*
%TO.C,C41*%
X99568000Y-121425000D03*
X99568000Y-119875000D03*
%TD*%
%TO.C,C101*%
X174800000Y-94975000D03*
X174800000Y-93425000D03*
%TD*%
D19*
%TO.C,D215*%
X349100001Y-142979999D03*
X349100001Y-139679999D03*
X344200001Y-139679999D03*
X344200001Y-142979999D03*
%TD*%
D20*
%TO.C,D52*%
X69539999Y-71550000D03*
X72839999Y-71550000D03*
X72839999Y-66650000D03*
X69539999Y-66650000D03*
%TD*%
%TO.C,D71*%
X164520001Y-130800000D03*
X167820001Y-130800000D03*
X167820001Y-125900000D03*
X164520001Y-125900000D03*
%TD*%
D25*
%TO.C,C171*%
X233225000Y-73525000D03*
X231675000Y-73525000D03*
%TD*%
D19*
%TO.C,D6*%
X42450000Y-107050000D03*
X42450000Y-110350000D03*
X47350000Y-110350000D03*
X47350000Y-107050000D03*
%TD*%
D27*
%TO.C,C144*%
X216600000Y-180400000D03*
X216600000Y-181950000D03*
%TD*%
D19*
%TO.C,D119*%
X197100000Y-133200000D03*
X197100000Y-136500000D03*
X202000000Y-136500000D03*
X202000000Y-133200000D03*
%TD*%
D28*
%TO.C,C82*%
X133525000Y-183300000D03*
X135075000Y-183300000D03*
%TD*%
D30*
%TO.C,Q3*%
X189725000Y-89750000D03*
X189725000Y-91650000D03*
X191600000Y-90700000D03*
%TD*%
D31*
%TO.C,J2*%
X206880000Y-96770000D03*
D32*
X206880000Y-94230000D03*
X206880000Y-91690000D03*
X206880000Y-89150000D03*
%TD*%
D27*
%TO.C,C193*%
X291800000Y-134525000D03*
X291800000Y-136075000D03*
%TD*%
D24*
%TO.C,C168*%
X267250000Y-76450000D03*
X267250000Y-74900000D03*
%TD*%
D27*
%TO.C,C140*%
X216625000Y-153800000D03*
X216625000Y-155350000D03*
%TD*%
%TO.C,C24*%
X49276000Y-180327000D03*
X49276000Y-181877000D03*
%TD*%
D19*
%TO.C,D124*%
X209912500Y-93842500D03*
X209912500Y-97142500D03*
X214812500Y-97142500D03*
X214812500Y-93842500D03*
%TD*%
D25*
%TO.C,C189*%
X321575000Y-132600000D03*
X320025000Y-132600000D03*
%TD*%
D19*
%TO.C,D223*%
X349100000Y-83880001D03*
X349100000Y-80580001D03*
X344200000Y-80580001D03*
X344200000Y-83880001D03*
%TD*%
D24*
%TO.C,C93*%
X174800000Y-154175000D03*
X174800000Y-152625000D03*
%TD*%
D33*
%TO.C,C235*%
X38834000Y-152400000D03*
X37874000Y-152400000D03*
%TD*%
D19*
%TO.C,D209*%
X349100000Y-182700000D03*
X349100000Y-179400000D03*
X344200000Y-179400000D03*
X344200000Y-182700000D03*
%TD*%
%TO.C,D140*%
X209900000Y-152960000D03*
X209900000Y-156260000D03*
X214800000Y-156260000D03*
X214800000Y-152960000D03*
%TD*%
D25*
%TO.C,C190*%
X328175000Y-132600000D03*
X326625000Y-132600000D03*
%TD*%
%TO.C,C226*%
X301775000Y-73500000D03*
X300225000Y-73500000D03*
%TD*%
D27*
%TO.C,C5*%
X49276000Y-101346000D03*
X49276000Y-102896000D03*
%TD*%
D25*
%TO.C,C231*%
X334875000Y-73500000D03*
X333325000Y-73500000D03*
%TD*%
D24*
%TO.C,C46*%
X99600000Y-88400000D03*
X99600000Y-86850000D03*
%TD*%
D25*
%TO.C,C132*%
X239850000Y-132625000D03*
X238300000Y-132625000D03*
%TD*%
D28*
%TO.C,C236*%
X180581000Y-66548000D03*
X182131000Y-66548000D03*
%TD*%
D24*
%TO.C,C166*%
X267250000Y-89725000D03*
X267250000Y-88175000D03*
%TD*%
D19*
%TO.C,D75*%
X117600000Y-146340000D03*
X117600000Y-149640000D03*
X122500000Y-149640000D03*
X122500000Y-146340000D03*
%TD*%
D20*
%TO.C,D31*%
X89370001Y-189950000D03*
X92670001Y-189950000D03*
X92670001Y-185050000D03*
X89370001Y-185050000D03*
%TD*%
D19*
%TO.C,D98*%
X181700001Y-116980000D03*
X181700001Y-113680000D03*
X176800001Y-113680000D03*
X176800001Y-116980000D03*
%TD*%
D28*
%TO.C,C149*%
X245675000Y-183300000D03*
X247225000Y-183300000D03*
%TD*%
D24*
%TO.C,C242*%
X207518000Y-73914000D03*
X207518000Y-72364000D03*
%TD*%
D27*
%TO.C,C57*%
X124350000Y-75925000D03*
X124350000Y-77475000D03*
%TD*%
%TO.C,C141*%
X216600000Y-160475000D03*
X216600000Y-162025000D03*
%TD*%
D25*
%TO.C,C71*%
X167375000Y-132600000D03*
X165825000Y-132600000D03*
%TD*%
%TO.C,C176*%
X265125000Y-73510000D03*
X263575000Y-73510000D03*
%TD*%
D19*
%TO.C,D221*%
X349100000Y-97120000D03*
X349100000Y-93820000D03*
X344200000Y-93820000D03*
X344200000Y-97120000D03*
%TD*%
D28*
%TO.C,C146*%
X225825000Y-183275000D03*
X227375000Y-183275000D03*
%TD*%
D27*
%TO.C,C18*%
X49276000Y-140703000D03*
X49276000Y-142253000D03*
%TD*%
D24*
%TO.C,C156*%
X267275000Y-162075000D03*
X267275000Y-160525000D03*
%TD*%
D20*
%TO.C,D229*%
X318780000Y-71700001D03*
X322080000Y-71700001D03*
X322080000Y-66800001D03*
X318780000Y-66800001D03*
%TD*%
D28*
%TO.C,C83*%
X140100000Y-183300000D03*
X141650000Y-183300000D03*
%TD*%
D19*
%TO.C,D123*%
X209912500Y-87222500D03*
X209912500Y-90522500D03*
X214812500Y-90522500D03*
X214812500Y-87222500D03*
%TD*%
%TO.C,D141*%
X209900000Y-159580000D03*
X209900000Y-162880000D03*
X214800000Y-162880000D03*
X214800000Y-159580000D03*
%TD*%
D27*
%TO.C,C139*%
X216625000Y-147150000D03*
X216625000Y-148700000D03*
%TD*%
D24*
%TO.C,C154*%
X267250000Y-175275000D03*
X267250000Y-173725000D03*
%TD*%
D19*
%TO.C,D184*%
X285047500Y-120317500D03*
X285047500Y-123617500D03*
X289947500Y-123617500D03*
X289947500Y-120317500D03*
%TD*%
D34*
%TO.C,R8*%
X29740000Y-137960000D03*
X29740000Y-136940000D03*
%TD*%
D26*
%TO.C,D235*%
X35844500Y-128069000D03*
X34269500Y-128069000D03*
%TD*%
D20*
%TO.C,D9*%
X49650000Y-130800000D03*
X52950000Y-130800000D03*
X52950000Y-125900000D03*
X49650000Y-125900000D03*
%TD*%
D19*
%TO.C,D122*%
X209912500Y-80602500D03*
X209912500Y-83902500D03*
X214812500Y-83902500D03*
X214812500Y-80602500D03*
%TD*%
D20*
%TO.C,D12*%
X69510000Y-130800000D03*
X72810000Y-130800000D03*
X72810000Y-125900000D03*
X69510000Y-125900000D03*
%TD*%
%TO.C,D151*%
X256820000Y-190000000D03*
X260120000Y-190000000D03*
X260120000Y-185100000D03*
X256820000Y-185100000D03*
%TD*%
%TO.C,D112*%
X171200000Y-71600000D03*
X174500000Y-71600000D03*
X174500000Y-66700000D03*
X171200000Y-66700000D03*
%TD*%
%TO.C,D82*%
X131420001Y-190000000D03*
X134720001Y-190000000D03*
X134720001Y-185100000D03*
X131420001Y-185100000D03*
%TD*%
D19*
%TO.C,D47*%
X106500001Y-83879999D03*
X106500001Y-80579999D03*
X101600001Y-80579999D03*
X101600001Y-83879999D03*
%TD*%
D28*
%TO.C,C81*%
X126900000Y-183300000D03*
X128450000Y-183300000D03*
%TD*%
D25*
%TO.C,C109*%
X154225000Y-73400000D03*
X152675000Y-73400000D03*
%TD*%
D20*
%TO.C,D228*%
X312160000Y-71700000D03*
X315460000Y-71700000D03*
X315460000Y-66800000D03*
X312160000Y-66800000D03*
%TD*%
D35*
%TO.C,R4*%
X29890000Y-171000000D03*
X30910000Y-171000000D03*
%TD*%
D24*
%TO.C,C98*%
X174800000Y-114825000D03*
X174800000Y-113275000D03*
%TD*%
D20*
%TO.C,D190*%
X325350000Y-130800001D03*
X328650000Y-130800001D03*
X328650000Y-125900001D03*
X325350000Y-125900001D03*
%TD*%
D36*
%TO.C,D238*%
X154922500Y-54040000D03*
X156497500Y-54040000D03*
%TD*%
D19*
%TO.C,D216*%
X349100001Y-136359999D03*
X349100001Y-133059999D03*
X344200001Y-133059999D03*
X344200001Y-136359999D03*
%TD*%
%TO.C,D182*%
X285047500Y-107077500D03*
X285047500Y-110377500D03*
X289947500Y-110377500D03*
X289947500Y-107077500D03*
%TD*%
%TO.C,D159*%
X274000000Y-143080000D03*
X274000000Y-139780000D03*
X269100000Y-139780000D03*
X269100000Y-143080000D03*
%TD*%
D20*
%TO.C,D204*%
X312110001Y-189900001D03*
X315410001Y-189900001D03*
X315410001Y-185000001D03*
X312110001Y-185000001D03*
%TD*%
D37*
%TO.C,JP9*%
X29050000Y-132500000D03*
D38*
X27600000Y-132500000D03*
%TD*%
D20*
%TO.C,D108*%
X144740000Y-71580000D03*
X148040000Y-71580000D03*
X148040000Y-66680000D03*
X144740000Y-66680000D03*
%TD*%
D25*
%TO.C,C174*%
X253090000Y-73530000D03*
X251540000Y-73530000D03*
%TD*%
D24*
%TO.C,C153*%
X267275000Y-181725000D03*
X267275000Y-180175000D03*
%TD*%
D20*
%TO.C,D135*%
X256820001Y-130800000D03*
X260120001Y-130800000D03*
X260120001Y-125900000D03*
X256820001Y-125900000D03*
%TD*%
D38*
%TO.C,JP8*%
X29275000Y-135000000D03*
D37*
X30725000Y-135000000D03*
%TD*%
D19*
%TO.C,D144*%
X209900000Y-179440000D03*
X209900000Y-182740000D03*
X214800000Y-182740000D03*
X214800000Y-179440000D03*
%TD*%
D27*
%TO.C,C116*%
X203750000Y-121150000D03*
X203750000Y-122700000D03*
%TD*%
D19*
%TO.C,D104*%
X181700001Y-77260000D03*
X181700001Y-73960000D03*
X176800001Y-73960000D03*
X176800001Y-77260000D03*
%TD*%
D24*
%TO.C,C37*%
X99568000Y-154204000D03*
X99568000Y-152654000D03*
%TD*%
D19*
%TO.C,D60*%
X117600000Y-93820000D03*
X117600000Y-97120000D03*
X122500000Y-97120000D03*
X122500000Y-93820000D03*
%TD*%
%TO.C,D165*%
X273999999Y-97160000D03*
X273999999Y-93860000D03*
X269099999Y-93860000D03*
X269099999Y-97160000D03*
%TD*%
D39*
%TO.C,Q2*%
X32300000Y-141110000D03*
X32300000Y-139210000D03*
X29680000Y-140160000D03*
%TD*%
D20*
%TO.C,D191*%
X331970000Y-130800001D03*
X335270000Y-130800001D03*
X335270000Y-125900001D03*
X331970000Y-125900001D03*
%TD*%
D28*
%TO.C,C150*%
X252300000Y-183300000D03*
X253850000Y-183300000D03*
%TD*%
%TO.C,C86*%
X160025000Y-183300000D03*
X161575000Y-183300000D03*
%TD*%
%TO.C,C147*%
X232450000Y-183300000D03*
X234000000Y-183300000D03*
%TD*%
%TO.C,C208*%
X340650000Y-183200000D03*
X342200000Y-183200000D03*
%TD*%
%TO.C,C206*%
X327450000Y-183200000D03*
X329000000Y-183200000D03*
%TD*%
D19*
%TO.C,D153*%
X274000000Y-182800000D03*
X274000000Y-179500000D03*
X269100000Y-179500000D03*
X269100000Y-182800000D03*
%TD*%
D24*
%TO.C,C214*%
X342400000Y-148750000D03*
X342400000Y-147200000D03*
%TD*%
D28*
%TO.C,C152*%
X265525000Y-183300000D03*
X267075000Y-183300000D03*
%TD*%
D20*
%TO.C,D150*%
X250200000Y-190000000D03*
X253500000Y-190000000D03*
X253500000Y-185100000D03*
X250200000Y-185100000D03*
%TD*%
D27*
%TO.C,C59*%
X124400000Y-88200000D03*
X124400000Y-89750000D03*
%TD*%
D34*
%TO.C,R2*%
X28200000Y-148710000D03*
X28200000Y-147690000D03*
%TD*%
D27*
%TO.C,C177*%
X291850000Y-74915000D03*
X291850000Y-76465000D03*
%TD*%
%TO.C,C118*%
X187975000Y-139850000D03*
X187975000Y-141400000D03*
%TD*%
%TO.C,C73*%
X124400000Y-134375000D03*
X124400000Y-135925000D03*
%TD*%
D20*
%TO.C,D106*%
X131500000Y-71579999D03*
X134800000Y-71579999D03*
X134800000Y-66679999D03*
X131500000Y-66679999D03*
%TD*%
D19*
%TO.C,D61*%
X117600000Y-100440000D03*
X117600000Y-103740000D03*
X122500000Y-103740000D03*
X122500000Y-100440000D03*
%TD*%
D24*
%TO.C,C44*%
X99568000Y-101613000D03*
X99568000Y-100063000D03*
%TD*%
D19*
%TO.C,D79*%
X117600000Y-172820000D03*
X117600000Y-176120000D03*
X122500000Y-176120000D03*
X122500000Y-172820000D03*
%TD*%
D25*
%TO.C,C229*%
X321675000Y-73500000D03*
X320125000Y-73500000D03*
%TD*%
D20*
%TO.C,D69*%
X151280001Y-130799999D03*
X154580001Y-130799999D03*
X154580001Y-125899999D03*
X151280001Y-125899999D03*
%TD*%
D19*
%TO.C,D193*%
X285050000Y-133100000D03*
X285050000Y-136400000D03*
X289950000Y-136400000D03*
X289950000Y-133100000D03*
%TD*%
D20*
%TO.C,D185*%
X292250000Y-130800000D03*
X295550000Y-130800000D03*
X295550000Y-125900000D03*
X292250000Y-125900000D03*
%TD*%
D19*
%TO.C,D23*%
X42430000Y-172850000D03*
X42430000Y-176150000D03*
X47330000Y-176150000D03*
X47330000Y-172850000D03*
%TD*%
%TO.C,D118*%
X189800000Y-139000000D03*
X189800000Y-142300000D03*
X194700000Y-142300000D03*
X194700000Y-139000000D03*
%TD*%
D25*
%TO.C,C228*%
X315050000Y-73500000D03*
X313500000Y-73500000D03*
%TD*%
D40*
%TO.C,Q4*%
X179400000Y-70375000D03*
X181300000Y-70375000D03*
X180350000Y-68500000D03*
%TD*%
D19*
%TO.C,D217*%
X349100000Y-123600000D03*
X349100000Y-120300000D03*
X344200000Y-120300000D03*
X344200000Y-123600000D03*
%TD*%
D20*
%TO.C,D105*%
X124879999Y-71580001D03*
X128179999Y-71580001D03*
X128179999Y-66680001D03*
X124879999Y-66680001D03*
%TD*%
%TO.C,D55*%
X89380000Y-71550000D03*
X92680000Y-71550000D03*
X92680000Y-66650000D03*
X89380000Y-66650000D03*
%TD*%
D28*
%TO.C,C32*%
X98018000Y-183134000D03*
X99568000Y-183134000D03*
%TD*%
D20*
%TO.C,D54*%
X82780001Y-71550000D03*
X86080001Y-71550000D03*
X86080001Y-66650000D03*
X82780001Y-66650000D03*
%TD*%
D25*
%TO.C,C130*%
X226625000Y-132625000D03*
X225075000Y-132625000D03*
%TD*%
D20*
%TO.C,D136*%
X263440001Y-130800000D03*
X266740001Y-130800000D03*
X266740001Y-125900000D03*
X263440001Y-125900000D03*
%TD*%
D27*
%TO.C,C142*%
X216625000Y-167000000D03*
X216625000Y-168550000D03*
%TD*%
D20*
%TO.C,D230*%
X325400000Y-71700001D03*
X328700000Y-71700001D03*
X328700000Y-66800001D03*
X325400000Y-66800001D03*
%TD*%
D27*
%TO.C,C80*%
X124400000Y-180300000D03*
X124400000Y-181850000D03*
%TD*%
D20*
%TO.C,D13*%
X76130000Y-130800000D03*
X79430000Y-130800000D03*
X79430000Y-125900000D03*
X76130000Y-125900000D03*
%TD*%
D19*
%TO.C,D3*%
X42450000Y-87190000D03*
X42450000Y-90490000D03*
X47350000Y-90490000D03*
X47350000Y-87190000D03*
%TD*%
D20*
%TO.C,D26*%
X56270001Y-189950000D03*
X59570001Y-189950000D03*
X59570001Y-185050000D03*
X56270001Y-185050000D03*
%TD*%
D19*
%TO.C,D212*%
X349100001Y-162839999D03*
X349100001Y-159539999D03*
X344200001Y-159539999D03*
X344200001Y-162839999D03*
%TD*%
D28*
%TO.C,C28*%
X71628000Y-183134000D03*
X73178000Y-183134000D03*
%TD*%
D25*
%TO.C,C56*%
X98075000Y-73350000D03*
X96525000Y-73350000D03*
%TD*%
D19*
%TO.C,D127*%
X209900000Y-113680000D03*
X209900000Y-116980000D03*
X214800000Y-116980000D03*
X214800000Y-113680000D03*
%TD*%
%TO.C,D117*%
X189800000Y-133200000D03*
X189800000Y-136500000D03*
X194700000Y-136500000D03*
X194700000Y-133200000D03*
%TD*%
%TO.C,D33*%
X106500002Y-182719999D03*
X106500002Y-179419999D03*
X101600002Y-179419999D03*
X101600002Y-182719999D03*
%TD*%
D20*
%TO.C,D176*%
X263440000Y-71700001D03*
X266740000Y-71700001D03*
X266740000Y-66800001D03*
X263440000Y-66800001D03*
%TD*%
%TO.C,D188*%
X312110000Y-130800000D03*
X315410000Y-130800000D03*
X315410000Y-125900000D03*
X312110000Y-125900000D03*
%TD*%
D24*
%TO.C,C216*%
X342400000Y-135475000D03*
X342400000Y-133925000D03*
%TD*%
D27*
%TO.C,C120*%
X203825000Y-139875000D03*
X203825000Y-141425000D03*
%TD*%
D25*
%TO.C,C175*%
X259715000Y-73520000D03*
X258165000Y-73520000D03*
%TD*%
D19*
%TO.C,D37*%
X106499999Y-156260000D03*
X106499999Y-152960000D03*
X101599999Y-152960000D03*
X101599999Y-156260000D03*
%TD*%
D20*
%TO.C,D231*%
X332019999Y-71700002D03*
X335319999Y-71700002D03*
X335319999Y-66800002D03*
X332019999Y-66800002D03*
%TD*%
D27*
%TO.C,C117*%
X187975000Y-134150000D03*
X187975000Y-135700000D03*
%TD*%
D24*
%TO.C,C217*%
X342400000Y-122675000D03*
X342400000Y-121125000D03*
%TD*%
D27*
%TO.C,C1*%
X49276000Y-76025000D03*
X49276000Y-77575000D03*
%TD*%
D25*
%TO.C,C106*%
X134425000Y-73400000D03*
X132875000Y-73400000D03*
%TD*%
D19*
%TO.C,D196*%
X285050000Y-152960000D03*
X285050000Y-156260000D03*
X289950000Y-156260000D03*
X289950000Y-152960000D03*
%TD*%
D25*
%TO.C,C107*%
X141025000Y-73400000D03*
X139475000Y-73400000D03*
%TD*%
D24*
%TO.C,C39*%
X99568000Y-140983000D03*
X99568000Y-139433000D03*
%TD*%
D27*
%TO.C,C2*%
X49276000Y-81508000D03*
X49276000Y-83058000D03*
%TD*%
D19*
%TO.C,D178*%
X285100000Y-80620000D03*
X285100000Y-83920000D03*
X290000000Y-83920000D03*
X290000000Y-80620000D03*
%TD*%
D25*
%TO.C,C230*%
X328275000Y-73500000D03*
X326725000Y-73500000D03*
%TD*%
D24*
%TO.C,C167*%
X267275000Y-83025000D03*
X267275000Y-81475000D03*
%TD*%
D19*
%TO.C,D90*%
X181700000Y-176180000D03*
X181700000Y-172880000D03*
X176800000Y-172880000D03*
X176800000Y-176180000D03*
%TD*%
%TO.C,D93*%
X181740000Y-156340000D03*
X181740000Y-153040000D03*
X176840000Y-153040000D03*
X176840000Y-156340000D03*
%TD*%
D41*
%TO.C,R18*%
X183590000Y-71550000D03*
X184610000Y-71550000D03*
%TD*%
D26*
%TO.C,D234*%
X35822000Y-133039002D03*
X34247000Y-133039002D03*
%TD*%
D27*
%TO.C,C182*%
X291760000Y-107965000D03*
X291760000Y-109515000D03*
%TD*%
D24*
%TO.C,C219*%
X342400000Y-109475000D03*
X342400000Y-107925000D03*
%TD*%
D20*
%TO.C,D206*%
X325350001Y-189900000D03*
X328650001Y-189900000D03*
X328650001Y-185000000D03*
X325350001Y-185000000D03*
%TD*%
D24*
%TO.C,C159*%
X267275000Y-142125000D03*
X267275000Y-140575000D03*
%TD*%
D27*
%TO.C,C20*%
X49276000Y-153924000D03*
X49276000Y-155474000D03*
%TD*%
D28*
%TO.C,C207*%
X334050000Y-183200000D03*
X335600000Y-183200000D03*
%TD*%
D19*
%TO.C,D36*%
X106500000Y-162860000D03*
X106500000Y-159560000D03*
X101600000Y-159560000D03*
X101600000Y-162860000D03*
%TD*%
D20*
%TO.C,D85*%
X151280001Y-190000000D03*
X154580001Y-190000000D03*
X154580001Y-185100000D03*
X151280001Y-185100000D03*
%TD*%
D24*
%TO.C,C38*%
X99568000Y-147587000D03*
X99568000Y-146037000D03*
%TD*%
D19*
%TO.C,D19*%
X42430000Y-146370000D03*
X42430000Y-149670000D03*
X47330000Y-149670000D03*
X47330000Y-146370000D03*
%TD*%
%TO.C,D76*%
X117600000Y-152960000D03*
X117600000Y-156260000D03*
X122500000Y-156260000D03*
X122500000Y-152960000D03*
%TD*%
D24*
%TO.C,C155*%
X267250000Y-168700000D03*
X267250000Y-167150000D03*
%TD*%
D27*
%TO.C,C113*%
X187750000Y-115325000D03*
X187750000Y-116875000D03*
%TD*%
D19*
%TO.C,D160*%
X274000000Y-136459999D03*
X274000000Y-133159999D03*
X269100000Y-133159999D03*
X269100000Y-136459999D03*
%TD*%
D28*
%TO.C,C29*%
X78206000Y-183134000D03*
X79756000Y-183134000D03*
%TD*%
%TO.C,C151*%
X258925000Y-183300000D03*
X260475000Y-183300000D03*
%TD*%
D19*
%TO.C,D121*%
X209912500Y-73982500D03*
X209912500Y-77282500D03*
X214812500Y-77282500D03*
X214812500Y-73982500D03*
%TD*%
D20*
%TO.C,D67*%
X138040001Y-130800000D03*
X141340001Y-130800000D03*
X141340001Y-125900000D03*
X138040001Y-125900000D03*
%TD*%
D19*
%TO.C,D220*%
X349099999Y-103740000D03*
X349099999Y-100440000D03*
X344199999Y-100440000D03*
X344199999Y-103740000D03*
%TD*%
%TO.C,D113*%
X189600000Y-114450000D03*
X189600000Y-117750000D03*
X194500000Y-117750000D03*
X194500000Y-114450000D03*
%TD*%
D34*
%TO.C,R13*%
X188214000Y-91188000D03*
X188214000Y-90168000D03*
%TD*%
D25*
%TO.C,C187*%
X308380000Y-132620000D03*
X306830000Y-132620000D03*
%TD*%
D27*
%TO.C,C122*%
X216700000Y-81600000D03*
X216700000Y-83150000D03*
%TD*%
D19*
%TO.C,D143*%
X209900000Y-172820000D03*
X209900000Y-176120000D03*
X214800000Y-176120000D03*
X214800000Y-172820000D03*
%TD*%
D25*
%TO.C,C16*%
X99075000Y-132900000D03*
X97525000Y-132900000D03*
%TD*%
D19*
%TO.C,D180*%
X285100000Y-93860000D03*
X285100000Y-97160000D03*
X290000000Y-97160000D03*
X290000000Y-93860000D03*
%TD*%
D20*
%TO.C,D15*%
X89370000Y-130800000D03*
X92670000Y-130800000D03*
X92670000Y-125900000D03*
X89370000Y-125900000D03*
%TD*%
D25*
%TO.C,C65*%
X127750000Y-132600000D03*
X126200000Y-132600000D03*
%TD*%
D28*
%TO.C,C202*%
X300900000Y-183200000D03*
X302450000Y-183200000D03*
%TD*%
D25*
%TO.C,C52*%
X72475000Y-73400000D03*
X70925000Y-73400000D03*
%TD*%
D19*
%TO.C,D211*%
X349100001Y-169459999D03*
X349100001Y-166159999D03*
X344200001Y-166159999D03*
X344200001Y-169459999D03*
%TD*%
D41*
%TO.C,R3*%
X30530000Y-159300000D03*
X31550000Y-159300000D03*
%TD*%
D42*
%TO.C,J1*%
X28350000Y-186200000D03*
%TD*%
D25*
%TO.C,C133*%
X246475000Y-132650000D03*
X244925000Y-132650000D03*
%TD*%
%TO.C,C53*%
X79075000Y-73400000D03*
X77525000Y-73400000D03*
%TD*%
D27*
%TO.C,C197*%
X291800000Y-160625000D03*
X291800000Y-162175000D03*
%TD*%
D20*
%TO.C,D232*%
X338640000Y-71700001D03*
X341940000Y-71700001D03*
X341940000Y-66800001D03*
X338640000Y-66800001D03*
%TD*%
D19*
%TO.C,D157*%
X274000000Y-156320000D03*
X274000000Y-153020000D03*
X269100000Y-153020000D03*
X269100000Y-156320000D03*
%TD*%
D27*
%TO.C,C195*%
X291800000Y-147225000D03*
X291800000Y-148775000D03*
%TD*%
D19*
%TO.C,D102*%
X181700001Y-90500000D03*
X181700001Y-87200000D03*
X176800001Y-87200000D03*
X176800001Y-90500000D03*
%TD*%
%TO.C,D8*%
X42450000Y-120290000D03*
X42450000Y-123590000D03*
X47350000Y-123590000D03*
X47350000Y-120290000D03*
%TD*%
D24*
%TO.C,C103*%
X174800000Y-81700000D03*
X174800000Y-80150000D03*
%TD*%
D25*
%TO.C,C169*%
X220000000Y-73525000D03*
X218450000Y-73525000D03*
%TD*%
D27*
%TO.C,C114*%
X187900000Y-121100000D03*
X187900000Y-122650000D03*
%TD*%
D43*
%TO.C,Q5*%
X42350000Y-192670000D03*
X43630000Y-192670000D03*
X44890000Y-192670000D03*
X46160000Y-192670000D03*
X46160000Y-187250000D03*
X44890000Y-187250000D03*
X43630000Y-187250000D03*
X42350000Y-187250000D03*
%TD*%
D25*
%TO.C,C170*%
X226600000Y-73525000D03*
X225050000Y-73525000D03*
%TD*%
D27*
%TO.C,C60*%
X124400000Y-94625000D03*
X124400000Y-96175000D03*
%TD*%
D25*
%TO.C,C67*%
X140975000Y-132600000D03*
X139425000Y-132600000D03*
%TD*%
D24*
%TO.C,C96*%
X174900000Y-134350000D03*
X174900000Y-132800000D03*
%TD*%
D19*
%TO.C,D142*%
X209900000Y-166200000D03*
X209900000Y-169500000D03*
X214800000Y-169500000D03*
X214800000Y-166200000D03*
%TD*%
D20*
%TO.C,D202*%
X298870001Y-189899999D03*
X302170001Y-189899999D03*
X302170001Y-184999999D03*
X298870001Y-184999999D03*
%TD*%
D19*
%TO.C,D183*%
X285047500Y-113697500D03*
X285047500Y-116997500D03*
X289947500Y-116997500D03*
X289947500Y-113697500D03*
%TD*%
%TO.C,D92*%
X181740000Y-162960000D03*
X181740000Y-159660000D03*
X176840000Y-159660000D03*
X176840000Y-162960000D03*
%TD*%
D28*
%TO.C,C145*%
X219175000Y-183275000D03*
X220725000Y-183275000D03*
%TD*%
D20*
%TO.C,D87*%
X164520001Y-190000000D03*
X167820001Y-190000000D03*
X167820001Y-185100000D03*
X164520001Y-185100000D03*
%TD*%
D27*
%TO.C,C124*%
X216650000Y-94700000D03*
X216650000Y-96250000D03*
%TD*%
D24*
%TO.C,C104*%
X174800000Y-75150000D03*
X174800000Y-73600000D03*
%TD*%
D19*
%TO.C,D154*%
X274000002Y-176180000D03*
X274000002Y-172880000D03*
X269100002Y-172880000D03*
X269100002Y-176180000D03*
%TD*%
%TO.C,D100*%
X181700000Y-103740000D03*
X181700000Y-100440000D03*
X176800000Y-100440000D03*
X176800000Y-103740000D03*
%TD*%
D25*
%TO.C,C108*%
X147625000Y-73400000D03*
X146075000Y-73400000D03*
%TD*%
D20*
%TO.C,D225*%
X292300000Y-71700000D03*
X295600000Y-71700000D03*
X295600000Y-66800000D03*
X292300000Y-66800000D03*
%TD*%
D27*
%TO.C,C137*%
X216675000Y-135250000D03*
X216675000Y-136800000D03*
%TD*%
D24*
%TO.C,C48*%
X99600000Y-76575000D03*
X99600000Y-75025000D03*
%TD*%
D19*
%TO.C,D224*%
X349100000Y-77260000D03*
X349100000Y-73960000D03*
X344200000Y-73960000D03*
X344200000Y-77260000D03*
%TD*%
D20*
%TO.C,D11*%
X62890000Y-130799999D03*
X66190000Y-130799999D03*
X66190000Y-125899999D03*
X62890000Y-125899999D03*
%TD*%
D24*
%TO.C,C34*%
X99568000Y-174016000D03*
X99568000Y-172466000D03*
%TD*%
D20*
%TO.C,D226*%
X298920000Y-71700001D03*
X302220000Y-71700001D03*
X302220000Y-66800001D03*
X298920000Y-66800001D03*
%TD*%
D25*
%TO.C,C11*%
X66548000Y-132842000D03*
X64998000Y-132842000D03*
%TD*%
D20*
%TO.C,D186*%
X298870000Y-130800001D03*
X302170000Y-130800001D03*
X302170000Y-125900001D03*
X298870000Y-125900001D03*
%TD*%
D27*
%TO.C,C6*%
X49276000Y-107937000D03*
X49276000Y-109487000D03*
%TD*%
D20*
%TO.C,D201*%
X292250000Y-189900000D03*
X295550000Y-189900000D03*
X295550000Y-185000000D03*
X292250000Y-185000000D03*
%TD*%
%TO.C,D146*%
X223720000Y-190000000D03*
X227020000Y-190000000D03*
X227020000Y-185100000D03*
X223720000Y-185100000D03*
%TD*%
%TO.C,D86*%
X157900001Y-189999999D03*
X161200001Y-189999999D03*
X161200001Y-185099999D03*
X157900001Y-185099999D03*
%TD*%
D19*
%TO.C,D59*%
X117600000Y-87200000D03*
X117600000Y-90500000D03*
X122500000Y-90500000D03*
X122500000Y-87200000D03*
%TD*%
%TO.C,D126*%
X209912500Y-107082500D03*
X209912500Y-110382500D03*
X214812500Y-110382500D03*
X214812500Y-107082500D03*
%TD*%
D27*
%TO.C,C200*%
X291800000Y-180200000D03*
X291800000Y-181750000D03*
%TD*%
D25*
%TO.C,C51*%
X65875000Y-73400000D03*
X64325000Y-73400000D03*
%TD*%
D27*
%TO.C,C238*%
X185230000Y-64505000D03*
X185230000Y-66055000D03*
%TD*%
D25*
%TO.C,C111*%
X167475000Y-73400000D03*
X165925000Y-73400000D03*
%TD*%
D24*
%TO.C,C161*%
X267300000Y-122775000D03*
X267300000Y-121225000D03*
%TD*%
%TO.C,C89*%
X174800000Y-180650000D03*
X174800000Y-179100000D03*
%TD*%
D20*
%TO.C,D56*%
X96000000Y-71550000D03*
X99300000Y-71550000D03*
X99300000Y-66650000D03*
X96000000Y-66650000D03*
%TD*%
D19*
%TO.C,D177*%
X285100000Y-74000000D03*
X285100000Y-77300000D03*
X290000000Y-77300000D03*
X290000000Y-74000000D03*
%TD*%
D27*
%TO.C,C4*%
X49276000Y-94742000D03*
X49276000Y-96292000D03*
%TD*%
%TO.C,C8*%
X49276000Y-121158000D03*
X49276000Y-122708000D03*
%TD*%
D28*
%TO.C,C148*%
X239050000Y-183300000D03*
X240600000Y-183300000D03*
%TD*%
D27*
%TO.C,C22*%
X49276000Y-167132000D03*
X49276000Y-168682000D03*
%TD*%
%TO.C,C199*%
X291800000Y-173725000D03*
X291800000Y-175275000D03*
%TD*%
D19*
%TO.C,D95*%
X181740000Y-143100000D03*
X181740000Y-139800000D03*
X176840000Y-139800000D03*
X176840000Y-143100000D03*
%TD*%
%TO.C,D62*%
X117600000Y-107060000D03*
X117600000Y-110360000D03*
X122500000Y-110360000D03*
X122500000Y-107060000D03*
%TD*%
D20*
%TO.C,D132*%
X236960001Y-130800001D03*
X240260001Y-130800001D03*
X240260001Y-125900001D03*
X236960001Y-125900001D03*
%TD*%
D25*
%TO.C,C70*%
X160750000Y-132600000D03*
X159200000Y-132600000D03*
%TD*%
D20*
%TO.C,D53*%
X76160000Y-71550000D03*
X79460000Y-71550000D03*
X79460000Y-66650000D03*
X76160000Y-66650000D03*
%TD*%
%TO.C,D65*%
X124800000Y-130800000D03*
X128100000Y-130800000D03*
X128100000Y-125900000D03*
X124800000Y-125900000D03*
%TD*%
D38*
%TO.C,JP7*%
X27575000Y-127400000D03*
D37*
X29025000Y-127400000D03*
%TD*%
D19*
%TO.C,D91*%
X181739999Y-169580000D03*
X181739999Y-166280000D03*
X176839999Y-166280000D03*
X176839999Y-169580000D03*
%TD*%
D27*
%TO.C,C64*%
X124400000Y-121050000D03*
X124400000Y-122600000D03*
%TD*%
D28*
%TO.C,C87*%
X166625000Y-183300000D03*
X168175000Y-183300000D03*
%TD*%
D20*
%TO.C,D29*%
X76130001Y-189950000D03*
X79430001Y-189950000D03*
X79430001Y-185050000D03*
X76130001Y-185050000D03*
%TD*%
D27*
%TO.C,C3*%
X49276000Y-88138000D03*
X49276000Y-89688000D03*
%TD*%
D24*
%TO.C,C222*%
X342400000Y-89675000D03*
X342400000Y-88125000D03*
%TD*%
D19*
%TO.C,D63*%
X117600000Y-113680000D03*
X117600000Y-116980000D03*
X122500000Y-116980000D03*
X122500000Y-113680000D03*
%TD*%
D27*
%TO.C,C234*%
X27940000Y-153136000D03*
X27940000Y-154686000D03*
%TD*%
D24*
%TO.C,C164*%
X267275000Y-102925000D03*
X267275000Y-101375000D03*
%TD*%
D26*
%TO.C,D236*%
X35832000Y-129729000D03*
X34257000Y-129729000D03*
%TD*%
D19*
%TO.C,D5*%
X42450000Y-100430000D03*
X42450000Y-103730000D03*
X47350000Y-103730000D03*
X47350000Y-100430000D03*
%TD*%
D20*
%TO.C,D129*%
X217100000Y-130800000D03*
X220400000Y-130800000D03*
X220400000Y-125900000D03*
X217100000Y-125900000D03*
%TD*%
D44*
%TO.C,C237*%
X183960000Y-64810000D03*
X183960000Y-65770000D03*
%TD*%
D19*
%TO.C,D78*%
X117600000Y-166200000D03*
X117600000Y-169500000D03*
X122500000Y-169500000D03*
X122500000Y-166200000D03*
%TD*%
D20*
%TO.C,D208*%
X338590001Y-189900000D03*
X341890001Y-189900000D03*
X341890001Y-185000000D03*
X338590001Y-185000000D03*
%TD*%
D25*
%TO.C,C131*%
X233225000Y-132625000D03*
X231675000Y-132625000D03*
%TD*%
D45*
%TO.C,U5*%
X200550000Y-90270000D03*
X200550000Y-89620000D03*
X200550000Y-88970000D03*
X200550000Y-88310000D03*
X203070000Y-88310000D03*
X203070000Y-88970000D03*
X203070000Y-89620000D03*
X203070000Y-90270000D03*
%TD*%
D19*
%TO.C,D214*%
X349100000Y-149599999D03*
X349100000Y-146299999D03*
X344200000Y-146299999D03*
X344200000Y-149599999D03*
%TD*%
%TO.C,D158*%
X274000000Y-149700000D03*
X274000000Y-146400000D03*
X269100000Y-146400000D03*
X269100000Y-149700000D03*
%TD*%
%TO.C,D57*%
X117600000Y-73960000D03*
X117600000Y-77260000D03*
X122500000Y-77260000D03*
X122500000Y-73960000D03*
%TD*%
D28*
%TO.C,C203*%
X307625000Y-183200000D03*
X309175000Y-183200000D03*
%TD*%
D25*
%TO.C,C110*%
X160850000Y-73400000D03*
X159300000Y-73400000D03*
%TD*%
D27*
%TO.C,C127*%
X216650000Y-114550000D03*
X216650000Y-116100000D03*
%TD*%
D24*
%TO.C,C165*%
X267275000Y-96250000D03*
X267275000Y-94700000D03*
%TD*%
D25*
%TO.C,C105*%
X127775000Y-73400000D03*
X126225000Y-73400000D03*
%TD*%
D46*
%TO.C,U3*%
X196975000Y-88100000D03*
X196975000Y-87600000D03*
X196975000Y-87100000D03*
X196975000Y-86600000D03*
X194625000Y-86600000D03*
X194625000Y-87100000D03*
X194625000Y-87600000D03*
X194625000Y-88100000D03*
D47*
X195800000Y-87350000D03*
%TD*%
D44*
%TO.C,C244*%
X215138000Y-69652000D03*
X215138000Y-70612000D03*
%TD*%
D25*
%TO.C,C227*%
X308400000Y-73500000D03*
X306850000Y-73500000D03*
%TD*%
D20*
%TO.C,D49*%
X49680000Y-71550000D03*
X52980000Y-71550000D03*
X52980000Y-66650000D03*
X49680000Y-66650000D03*
%TD*%
D27*
%TO.C,C19*%
X49276000Y-147294000D03*
X49276000Y-148844000D03*
%TD*%
D20*
%TO.C,D68*%
X144660001Y-130800001D03*
X147960001Y-130800001D03*
X147960001Y-125900001D03*
X144660001Y-125900001D03*
%TD*%
%TO.C,D174*%
X250200001Y-71700001D03*
X253500001Y-71700001D03*
X253500001Y-66800001D03*
X250200001Y-66800001D03*
%TD*%
D19*
%TO.C,D103*%
X181700001Y-83880000D03*
X181700001Y-80580000D03*
X176800001Y-80580000D03*
X176800001Y-83880000D03*
%TD*%
D20*
%TO.C,D145*%
X217100000Y-190000000D03*
X220400000Y-190000000D03*
X220400000Y-185100000D03*
X217100000Y-185100000D03*
%TD*%
D27*
%TO.C,C77*%
X124400000Y-160500000D03*
X124400000Y-162050000D03*
%TD*%
D20*
%TO.C,D205*%
X318730001Y-189899999D03*
X322030001Y-189899999D03*
X322030001Y-184999999D03*
X318730001Y-184999999D03*
%TD*%
%TO.C,D25*%
X49650000Y-189950000D03*
X52950000Y-189950000D03*
X52950000Y-185050000D03*
X49650000Y-185050000D03*
%TD*%
D27*
%TO.C,C76*%
X124400000Y-153825000D03*
X124400000Y-155375000D03*
%TD*%
D36*
%TO.C,D237*%
X160422500Y-54040000D03*
X161997500Y-54040000D03*
%TD*%
D35*
%TO.C,R12*%
X207100000Y-81260000D03*
X206080000Y-81260000D03*
%TD*%
D20*
%TO.C,D107*%
X138120000Y-71580000D03*
X141420000Y-71580000D03*
X141420000Y-66680000D03*
X138120000Y-66680000D03*
%TD*%
%TO.C,D110*%
X157960000Y-71599999D03*
X161260000Y-71599999D03*
X161260000Y-66699999D03*
X157960000Y-66699999D03*
%TD*%
D41*
%TO.C,R6*%
X31770000Y-144770000D03*
X32790000Y-144770000D03*
%TD*%
D24*
%TO.C,C95*%
X174800000Y-140975000D03*
X174800000Y-139425000D03*
%TD*%
D27*
%TO.C,C138*%
X216625000Y-140625000D03*
X216625000Y-142175000D03*
%TD*%
D19*
%TO.C,D101*%
X181700001Y-97120000D03*
X181700001Y-93820000D03*
X176800001Y-93820000D03*
X176800001Y-97120000D03*
%TD*%
D20*
%TO.C,D70*%
X157900001Y-130800000D03*
X161200001Y-130800000D03*
X161200001Y-125900000D03*
X157900001Y-125900000D03*
%TD*%
D19*
%TO.C,D115*%
X196950000Y-114450000D03*
X196950000Y-117750000D03*
X201850000Y-117750000D03*
X201850000Y-114450000D03*
%TD*%
%TO.C,D80*%
X117600000Y-179440000D03*
X117600000Y-182740000D03*
X122500000Y-182740000D03*
X122500000Y-179440000D03*
%TD*%
%TO.C,D213*%
X349100001Y-156219999D03*
X349100001Y-152919999D03*
X344200001Y-152919999D03*
X344200001Y-156219999D03*
%TD*%
D20*
%TO.C,D175*%
X256820000Y-71700001D03*
X260120000Y-71700001D03*
X260120000Y-66800001D03*
X256820000Y-66800001D03*
%TD*%
D25*
%TO.C,C13*%
X79782000Y-132842000D03*
X78232000Y-132842000D03*
%TD*%
%TO.C,C191*%
X334875000Y-132600000D03*
X333325000Y-132600000D03*
%TD*%
D19*
%TO.C,D24*%
X42430000Y-179470000D03*
X42430000Y-182770000D03*
X47330000Y-182770000D03*
X47330000Y-179470000D03*
%TD*%
D25*
%TO.C,C12*%
X73178000Y-132842000D03*
X71628000Y-132842000D03*
%TD*%
D24*
%TO.C,C92*%
X174800000Y-160825000D03*
X174800000Y-159275000D03*
%TD*%
%TO.C,C47*%
X99600000Y-81775000D03*
X99600000Y-80225000D03*
%TD*%
D19*
%TO.C,D39*%
X106500000Y-143020000D03*
X106500000Y-139720000D03*
X101600000Y-139720000D03*
X101600000Y-143020000D03*
%TD*%
D25*
%TO.C,C14*%
X86386000Y-132842000D03*
X84836000Y-132842000D03*
%TD*%
D34*
%TO.C,R10*%
X27660000Y-138170000D03*
X27660000Y-137150000D03*
%TD*%
D19*
%TO.C,D114*%
X189700000Y-120300000D03*
X189700000Y-123600000D03*
X194600000Y-123600000D03*
X194600000Y-120300000D03*
%TD*%
D38*
%TO.C,JP6*%
X27575000Y-129900000D03*
D37*
X29025000Y-129900000D03*
%TD*%
D20*
%TO.C,D173*%
X243580000Y-71700001D03*
X246880000Y-71700001D03*
X246880000Y-66800001D03*
X243580000Y-66800001D03*
%TD*%
D27*
%TO.C,C143*%
X216600000Y-173750000D03*
X216600000Y-175300000D03*
%TD*%
D24*
%TO.C,C224*%
X342400000Y-76375000D03*
X342400000Y-74825000D03*
%TD*%
D20*
%TO.C,D27*%
X62890001Y-189950000D03*
X66190001Y-189950000D03*
X66190001Y-185050000D03*
X62890001Y-185050000D03*
%TD*%
D19*
%TO.C,D167*%
X274000000Y-83920000D03*
X274000000Y-80620000D03*
X269100000Y-80620000D03*
X269100000Y-83920000D03*
%TD*%
D48*
%TO.C,U4*%
X207050000Y-65250000D03*
X207050000Y-67550000D03*
D49*
X213350000Y-67550000D03*
D48*
X207050000Y-69850000D03*
%TD*%
D27*
%TO.C,C7*%
X49276000Y-114554000D03*
X49276000Y-116104000D03*
%TD*%
%TO.C,C58*%
X124400000Y-81500000D03*
X124400000Y-83050000D03*
%TD*%
D24*
%TO.C,C33*%
X99568000Y-180620000D03*
X99568000Y-179070000D03*
%TD*%
D27*
%TO.C,C125*%
X216650000Y-101225000D03*
X216650000Y-102775000D03*
%TD*%
D28*
%TO.C,C204*%
X314200000Y-183200000D03*
X315750000Y-183200000D03*
%TD*%
D35*
%TO.C,R16*%
X228348000Y-54102000D03*
X227328000Y-54102000D03*
%TD*%
D21*
%TO.C,JP3*%
X162100000Y-60350000D03*
D22*
X162100000Y-58900000D03*
%TD*%
D19*
%TO.C,D20*%
X42430000Y-152990000D03*
X42430000Y-156290000D03*
X47330000Y-156290000D03*
X47330000Y-152990000D03*
%TD*%
%TO.C,D181*%
X285047500Y-100457500D03*
X285047500Y-103757500D03*
X289947500Y-103757500D03*
X289947500Y-100457500D03*
%TD*%
D27*
%TO.C,C194*%
X291800000Y-140625000D03*
X291800000Y-142175000D03*
%TD*%
D24*
%TO.C,C212*%
X342400000Y-161975000D03*
X342400000Y-160425000D03*
%TD*%
%TO.C,C213*%
X342400000Y-155450000D03*
X342400000Y-153900000D03*
%TD*%
D19*
%TO.C,D18*%
X42450000Y-139770000D03*
X42450000Y-143070000D03*
X47350000Y-143070000D03*
X47350000Y-139770000D03*
%TD*%
D50*
%TO.C,JP1*%
X35950000Y-184675000D03*
D51*
X35950000Y-186125000D03*
%TD*%
D19*
%TO.C,D222*%
X349100000Y-90500000D03*
X349100000Y-87200000D03*
X344200000Y-87200000D03*
X344200000Y-90500000D03*
%TD*%
D20*
%TO.C,D131*%
X230340001Y-130800000D03*
X233640001Y-130800000D03*
X233640001Y-125900000D03*
X230340001Y-125900000D03*
%TD*%
D33*
%TO.C,C240*%
X194536000Y-84836000D03*
X193576000Y-84836000D03*
%TD*%
D27*
%TO.C,C184*%
X291760000Y-121115000D03*
X291760000Y-122665000D03*
%TD*%
D20*
%TO.C,D50*%
X56299998Y-71550000D03*
X59599998Y-71550000D03*
X59599998Y-66650000D03*
X56299998Y-66650000D03*
%TD*%
D33*
%TO.C,C233*%
X28430000Y-157100000D03*
X27470000Y-157100000D03*
%TD*%
D28*
%TO.C,C88*%
X173225000Y-183300000D03*
X174775000Y-183300000D03*
%TD*%
D19*
%TO.C,D48*%
X106500001Y-77259999D03*
X106500001Y-73959999D03*
X101600001Y-73959999D03*
X101600001Y-77259999D03*
%TD*%
%TO.C,D168*%
X274000000Y-77300000D03*
X274000000Y-74000000D03*
X269100000Y-74000000D03*
X269100000Y-77300000D03*
%TD*%
D28*
%TO.C,C27*%
X65011000Y-183134000D03*
X66561000Y-183134000D03*
%TD*%
D27*
%TO.C,C179*%
X291820000Y-88135000D03*
X291820000Y-89685000D03*
%TD*%
D19*
%TO.C,D139*%
X209900000Y-146340000D03*
X209900000Y-149640000D03*
X214800000Y-149640000D03*
X214800000Y-146340000D03*
%TD*%
%TO.C,D166*%
X274000000Y-90540000D03*
X274000000Y-87240000D03*
X269100000Y-87240000D03*
X269100000Y-90540000D03*
%TD*%
D27*
%TO.C,C198*%
X291800000Y-167150000D03*
X291800000Y-168700000D03*
%TD*%
D41*
%TO.C,R1*%
X31760000Y-145790000D03*
X32780000Y-145790000D03*
%TD*%
D25*
%TO.C,C15*%
X92990000Y-132842000D03*
X91440000Y-132842000D03*
%TD*%
D20*
%TO.C,D171*%
X230340000Y-71700001D03*
X233640000Y-71700001D03*
X233640000Y-66800001D03*
X230340000Y-66800001D03*
%TD*%
D19*
%TO.C,D38*%
X106500000Y-149640000D03*
X106500000Y-146340000D03*
X101600000Y-146340000D03*
X101600000Y-149640000D03*
%TD*%
D25*
%TO.C,C173*%
X246485000Y-73530000D03*
X244935000Y-73530000D03*
%TD*%
D19*
%TO.C,D120*%
X197100000Y-139000000D03*
X197100000Y-142300000D03*
X202000000Y-142300000D03*
X202000000Y-139000000D03*
%TD*%
D20*
%TO.C,D109*%
X151340000Y-71600000D03*
X154640000Y-71600000D03*
X154640000Y-66700000D03*
X151340000Y-66700000D03*
%TD*%
D19*
%TO.C,D219*%
X349100000Y-110360000D03*
X349100000Y-107060000D03*
X344200000Y-107060000D03*
X344200000Y-110360000D03*
%TD*%
%TO.C,D89*%
X181700000Y-182800000D03*
X181700000Y-179500000D03*
X176800000Y-179500000D03*
X176800000Y-182800000D03*
%TD*%
D25*
%TO.C,C54*%
X85700000Y-73400000D03*
X84150000Y-73400000D03*
%TD*%
D24*
%TO.C,C91*%
X174850000Y-167425000D03*
X174850000Y-165875000D03*
%TD*%
%TO.C,C158*%
X267275000Y-148825000D03*
X267275000Y-147275000D03*
%TD*%
D25*
%TO.C,C134*%
X253100000Y-132625000D03*
X251550000Y-132625000D03*
%TD*%
D19*
%TO.C,D21*%
X42430000Y-159610000D03*
X42430000Y-162910000D03*
X47330000Y-162910000D03*
X47330000Y-159610000D03*
%TD*%
D20*
%TO.C,D10*%
X56270000Y-130800000D03*
X59570000Y-130800000D03*
X59570000Y-125900000D03*
X56270000Y-125900000D03*
%TD*%
%TO.C,D152*%
X263440000Y-189999999D03*
X266740000Y-189999999D03*
X266740000Y-185099999D03*
X263440000Y-185099999D03*
%TD*%
D19*
%TO.C,D99*%
X181700003Y-110360000D03*
X181700003Y-107060000D03*
X176800003Y-107060000D03*
X176800003Y-110360000D03*
%TD*%
D20*
%TO.C,D187*%
X305490000Y-130800002D03*
X308790000Y-130800002D03*
X308790000Y-125900002D03*
X305490000Y-125900002D03*
%TD*%
D23*
%TO.C,R15*%
X157988000Y-54100000D03*
X157988000Y-55120000D03*
%TD*%
D27*
%TO.C,C181*%
X291770000Y-101405000D03*
X291770000Y-102955000D03*
%TD*%
D25*
%TO.C,C192*%
X339975000Y-132600000D03*
X338425000Y-132600000D03*
%TD*%
D24*
%TO.C,C35*%
X99568000Y-167412000D03*
X99568000Y-165862000D03*
%TD*%
D27*
%TO.C,C62*%
X124400000Y-108025000D03*
X124400000Y-109575000D03*
%TD*%
%TO.C,C178*%
X291830000Y-81475000D03*
X291830000Y-83025000D03*
%TD*%
D19*
%TO.C,D22*%
X42430000Y-166230000D03*
X42430000Y-169530000D03*
X47330000Y-169530000D03*
X47330000Y-166230000D03*
%TD*%
%TO.C,D44*%
X106500001Y-103739999D03*
X106500001Y-100439999D03*
X101600001Y-100439999D03*
X101600001Y-103739999D03*
%TD*%
D25*
%TO.C,C185*%
X295140000Y-132620000D03*
X293590000Y-132620000D03*
%TD*%
D27*
%TO.C,C128*%
X216625000Y-121025000D03*
X216625000Y-122575000D03*
%TD*%
D19*
%TO.C,D199*%
X285067500Y-172797500D03*
X285067500Y-176097500D03*
X289967500Y-176097500D03*
X289967500Y-172797500D03*
%TD*%
D20*
%TO.C,D30*%
X82750001Y-189949999D03*
X86050001Y-189949999D03*
X86050001Y-185049999D03*
X82750001Y-185049999D03*
%TD*%
D19*
%TO.C,D162*%
X274000000Y-116980000D03*
X274000000Y-113680000D03*
X269100000Y-113680000D03*
X269100000Y-116980000D03*
%TD*%
D25*
%TO.C,C10*%
X59944000Y-132842000D03*
X58394000Y-132842000D03*
%TD*%
D29*
%TO.C,C245*%
X200470000Y-92270000D03*
X200470000Y-91310000D03*
%TD*%
D25*
%TO.C,C55*%
X92275000Y-73400000D03*
X90725000Y-73400000D03*
%TD*%
D27*
%TO.C,C61*%
X124400000Y-101250000D03*
X124400000Y-102800000D03*
%TD*%
%TO.C,C21*%
X49276000Y-160528000D03*
X49276000Y-162078000D03*
%TD*%
D19*
%TO.C,D164*%
X274000002Y-103780000D03*
X274000002Y-100480000D03*
X269100002Y-100480000D03*
X269100002Y-103780000D03*
%TD*%
%TO.C,D195*%
X285050000Y-146340000D03*
X285050000Y-149640000D03*
X289950000Y-149640000D03*
X289950000Y-146340000D03*
%TD*%
D25*
%TO.C,C50*%
X59250000Y-73400000D03*
X57700000Y-73400000D03*
%TD*%
D20*
%TO.C,D148*%
X236960000Y-190000000D03*
X240260000Y-190000000D03*
X240260000Y-185100000D03*
X236960000Y-185100000D03*
%TD*%
D27*
%TO.C,C75*%
X124400000Y-147100000D03*
X124400000Y-148650000D03*
%TD*%
D44*
%TO.C,C239*%
X190500000Y-95278000D03*
X190500000Y-96238000D03*
%TD*%
D41*
%TO.C,R17*%
X183690000Y-68500000D03*
X184710000Y-68500000D03*
%TD*%
D20*
%TO.C,D172*%
X236960000Y-71700001D03*
X240260000Y-71700001D03*
X240260000Y-66800001D03*
X236960000Y-66800001D03*
%TD*%
D19*
%TO.C,D116*%
X197000000Y-120300000D03*
X197000000Y-123600000D03*
X201900000Y-123600000D03*
X201900000Y-120300000D03*
%TD*%
D27*
%TO.C,C123*%
X216675000Y-88000000D03*
X216675000Y-89550000D03*
%TD*%
D24*
%TO.C,C45*%
X99600000Y-95050000D03*
X99600000Y-93500000D03*
%TD*%
D19*
%TO.C,D179*%
X285100000Y-87240000D03*
X285100000Y-90540000D03*
X290000000Y-90540000D03*
X290000000Y-87240000D03*
%TD*%
D28*
%TO.C,C30*%
X84810000Y-183134000D03*
X86360000Y-183134000D03*
%TD*%
D27*
%TO.C,C196*%
X291800000Y-153825000D03*
X291800000Y-155375000D03*
%TD*%
%TO.C,C74*%
X124400000Y-140625000D03*
X124400000Y-142175000D03*
%TD*%
%TO.C,C63*%
X124400000Y-114525000D03*
X124400000Y-116075000D03*
%TD*%
D20*
%TO.C,D66*%
X131420001Y-130799999D03*
X134720001Y-130799999D03*
X134720001Y-125899999D03*
X131420001Y-125899999D03*
%TD*%
%TO.C,D130*%
X223720001Y-130799999D03*
X227020001Y-130799999D03*
X227020001Y-125899999D03*
X223720001Y-125899999D03*
%TD*%
D27*
%TO.C,C180*%
X291820000Y-94725000D03*
X291820000Y-96275000D03*
%TD*%
%TO.C,C78*%
X124400000Y-167100000D03*
X124400000Y-168650000D03*
%TD*%
D20*
%TO.C,D88*%
X171140001Y-190000000D03*
X174440001Y-190000000D03*
X174440001Y-185100000D03*
X171140001Y-185100000D03*
%TD*%
D25*
%TO.C,C188*%
X314975000Y-132600000D03*
X313425000Y-132600000D03*
%TD*%
D28*
%TO.C,C26*%
X58420000Y-183134000D03*
X59970000Y-183134000D03*
%TD*%
%TO.C,C85*%
X153400000Y-183300000D03*
X154950000Y-183300000D03*
%TD*%
D19*
%TO.C,D197*%
X285050000Y-159580000D03*
X285050000Y-162880000D03*
X289950000Y-162880000D03*
X289950000Y-159580000D03*
%TD*%
D20*
%TO.C,D72*%
X171140001Y-130800000D03*
X174440001Y-130800000D03*
X174440001Y-125900000D03*
X171140001Y-125900000D03*
%TD*%
D19*
%TO.C,D64*%
X117600000Y-120300000D03*
X117600000Y-123600000D03*
X122500000Y-123600000D03*
X122500000Y-120300000D03*
%TD*%
D25*
%TO.C,C129*%
X219975000Y-132625000D03*
X218425000Y-132625000D03*
%TD*%
D26*
%TO.C,D233*%
X35827500Y-131390000D03*
X34252500Y-131390000D03*
%TD*%
D19*
%TO.C,D45*%
X106500001Y-97119999D03*
X106500001Y-93819999D03*
X101600001Y-93819999D03*
X101600001Y-97119999D03*
%TD*%
D24*
%TO.C,C218*%
X342400000Y-116050000D03*
X342400000Y-114500000D03*
%TD*%
D21*
%TO.C,JP2*%
X49400000Y-194725000D03*
D22*
X49400000Y-193275000D03*
%TD*%
D20*
%TO.C,D133*%
X243580001Y-130799999D03*
X246880001Y-130799999D03*
X246880001Y-125899999D03*
X243580001Y-125899999D03*
%TD*%
D28*
%TO.C,C205*%
X320825000Y-183200000D03*
X322375000Y-183200000D03*
%TD*%
D19*
%TO.C,D35*%
X106499999Y-169480000D03*
X106499999Y-166180000D03*
X101599999Y-166180000D03*
X101599999Y-169480000D03*
%TD*%
%TO.C,D40*%
X106500000Y-136400000D03*
X106500000Y-133100000D03*
X101600000Y-133100000D03*
X101600000Y-136400000D03*
%TD*%
D25*
%TO.C,C49*%
X52650000Y-73400000D03*
X51100000Y-73400000D03*
%TD*%
D27*
%TO.C,C183*%
X291770000Y-114445000D03*
X291770000Y-115995000D03*
%TD*%
D19*
%TO.C,D17*%
X42450000Y-133150000D03*
X42450000Y-136450000D03*
X47350000Y-136450000D03*
X47350000Y-133150000D03*
%TD*%
D24*
%TO.C,C215*%
X342400000Y-142075000D03*
X342400000Y-140525000D03*
%TD*%
D20*
%TO.C,D189*%
X318730000Y-130800001D03*
X322030000Y-130800001D03*
X322030000Y-125900001D03*
X318730000Y-125900001D03*
%TD*%
D24*
%TO.C,C160*%
X267275000Y-135725000D03*
X267275000Y-134175000D03*
%TD*%
D20*
%TO.C,D14*%
X82750000Y-130799999D03*
X86050000Y-130799999D03*
X86050000Y-125899999D03*
X82750000Y-125899999D03*
%TD*%
D24*
%TO.C,C99*%
X174800000Y-108225000D03*
X174800000Y-106675000D03*
%TD*%
D19*
%TO.C,D156*%
X274000000Y-162940000D03*
X274000000Y-159640000D03*
X269100000Y-159640000D03*
X269100000Y-162940000D03*
%TD*%
D20*
%TO.C,D28*%
X69510001Y-189950000D03*
X72810001Y-189950000D03*
X72810001Y-185050000D03*
X69510001Y-185050000D03*
%TD*%
D34*
%TO.C,R7*%
X28700000Y-137950000D03*
X28700000Y-136930000D03*
%TD*%
D27*
%TO.C,C126*%
X216650000Y-108025000D03*
X216650000Y-109575000D03*
%TD*%
D20*
%TO.C,D147*%
X230340000Y-190000000D03*
X233640000Y-190000000D03*
X233640000Y-185100000D03*
X230340000Y-185100000D03*
%TD*%
D19*
%TO.C,D97*%
X181700000Y-123600000D03*
X181700000Y-120300000D03*
X176800000Y-120300000D03*
X176800000Y-123600000D03*
%TD*%
D28*
%TO.C,C84*%
X146725000Y-183300000D03*
X148275000Y-183300000D03*
%TD*%
D24*
%TO.C,C211*%
X342400000Y-168675000D03*
X342400000Y-167125000D03*
%TD*%
D20*
%TO.C,D16*%
X95990000Y-130800000D03*
X99290000Y-130800000D03*
X99290000Y-125900000D03*
X95990000Y-125900000D03*
%TD*%
D19*
%TO.C,D42*%
X106500001Y-116979999D03*
X106500001Y-113679999D03*
X101600001Y-113679999D03*
X101600001Y-116979999D03*
%TD*%
D24*
%TO.C,C163*%
X267275000Y-109400000D03*
X267275000Y-107850000D03*
%TD*%
%TO.C,C43*%
X99568000Y-108217000D03*
X99568000Y-106667000D03*
%TD*%
D27*
%TO.C,C17*%
X49250000Y-134775000D03*
X49250000Y-136325000D03*
%TD*%
%TO.C,C119*%
X203850000Y-134025000D03*
X203850000Y-135575000D03*
%TD*%
D24*
%TO.C,C36*%
X99568000Y-160795000D03*
X99568000Y-159245000D03*
%TD*%
D20*
%TO.C,D32*%
X95990001Y-189950000D03*
X99290001Y-189950000D03*
X99290001Y-185050000D03*
X95990001Y-185050000D03*
%TD*%
D25*
%TO.C,C225*%
X295250000Y-73500000D03*
X293700000Y-73500000D03*
%TD*%
D24*
%TO.C,C102*%
X174800000Y-88375000D03*
X174800000Y-86825000D03*
%TD*%
D19*
%TO.C,D58*%
X117600000Y-80580000D03*
X117600000Y-83880000D03*
X122500000Y-83880000D03*
X122500000Y-80580000D03*
%TD*%
D52*
%TO.C,U2*%
X34975000Y-156045000D03*
X34975000Y-154775000D03*
X34975000Y-153505000D03*
X34975000Y-152235000D03*
X34975000Y-150965000D03*
X34975000Y-149695000D03*
X34975000Y-148425000D03*
X34975000Y-147155000D03*
X30025000Y-147155000D03*
X30025000Y-148425000D03*
X30025000Y-149695000D03*
X30025000Y-150965000D03*
X30025000Y-152235000D03*
X30025000Y-153505000D03*
X30025000Y-154775000D03*
X30025000Y-156045000D03*
%TD*%
D19*
%TO.C,D96*%
X181740000Y-136400000D03*
X181740000Y-133100000D03*
X176840000Y-133100000D03*
X176840000Y-136400000D03*
%TD*%
D20*
%TO.C,D83*%
X138040001Y-190000000D03*
X141340001Y-190000000D03*
X141340001Y-185100000D03*
X138040001Y-185100000D03*
%TD*%
%TO.C,D169*%
X217100000Y-71700000D03*
X220400000Y-71700000D03*
X220400000Y-66800000D03*
X217100000Y-66800000D03*
%TD*%
D21*
%TO.C,JP4*%
X157900000Y-60325000D03*
D22*
X157900000Y-58875000D03*
%TD*%
D27*
%TO.C,C79*%
X124400000Y-173725000D03*
X124400000Y-175275000D03*
%TD*%
D24*
%TO.C,C220*%
X342400000Y-102750000D03*
X342400000Y-101200000D03*
%TD*%
D25*
%TO.C,C112*%
X173075000Y-73440000D03*
X171525000Y-73440000D03*
%TD*%
D19*
%TO.C,D7*%
X42450000Y-113670000D03*
X42450000Y-116970000D03*
X47350000Y-116970000D03*
X47350000Y-113670000D03*
%TD*%
D24*
%TO.C,C162*%
X267300000Y-116175000D03*
X267300000Y-114625000D03*
%TD*%
D20*
%TO.C,D170*%
X223720000Y-71700001D03*
X227020000Y-71700001D03*
X227020000Y-66800001D03*
X223720000Y-66800001D03*
%TD*%
D19*
%TO.C,D1*%
X42450000Y-73950000D03*
X42450000Y-77250000D03*
X47350000Y-77250000D03*
X47350000Y-73950000D03*
%TD*%
%TO.C,U1*%
X187050000Y-64750000D03*
X187050000Y-66020000D03*
X187050000Y-67290000D03*
X187050000Y-68560000D03*
X187050000Y-69830000D03*
X187050000Y-71100000D03*
X187050000Y-72370000D03*
X187050000Y-73640000D03*
X187050000Y-74910000D03*
X187050000Y-76180000D03*
X187050000Y-77450000D03*
X187050000Y-78720000D03*
X187050000Y-79990000D03*
X187050000Y-81260000D03*
D20*
X190090000Y-82510000D03*
X191360000Y-82510000D03*
X192630000Y-82510000D03*
X193900000Y-82510000D03*
X195170000Y-82510000D03*
X196440000Y-82510000D03*
X197710000Y-82510000D03*
X198980000Y-82510000D03*
X200250000Y-82510000D03*
X201520000Y-82510000D03*
D19*
X204550000Y-81260000D03*
X204550000Y-79990000D03*
X204550000Y-78720000D03*
X204550000Y-77450000D03*
X204550000Y-76180000D03*
X204550000Y-74910000D03*
X204550000Y-73640000D03*
X204550000Y-72370000D03*
X204550000Y-71100000D03*
X204550000Y-69830000D03*
X204550000Y-68560000D03*
X204550000Y-67290000D03*
X204550000Y-66020000D03*
X204550000Y-64750000D03*
D53*
X192900000Y-71770000D03*
X192900000Y-73170000D03*
X193600000Y-71070000D03*
X193600000Y-72470000D03*
X193600000Y-73870000D03*
X194275000Y-71770000D03*
X194275000Y-73170000D03*
D54*
X194300000Y-72470000D03*
D53*
X195000000Y-71070000D03*
X195000000Y-72470000D03*
X195000000Y-73870000D03*
X195700000Y-71770000D03*
X195700000Y-73170000D03*
%TD*%
D24*
%TO.C,C210*%
X342400000Y-175250000D03*
X342400000Y-173700000D03*
%TD*%
D25*
%TO.C,C9*%
X53340000Y-132842000D03*
X51790000Y-132842000D03*
%TD*%
%TO.C,C186*%
X301755000Y-132620000D03*
X300205000Y-132620000D03*
%TD*%
D19*
%TO.C,D161*%
X274000000Y-123600000D03*
X274000000Y-120300000D03*
X269100000Y-120300000D03*
X269100000Y-123600000D03*
%TD*%
D24*
%TO.C,C94*%
X174800000Y-147550000D03*
X174800000Y-146000000D03*
%TD*%
%TO.C,C221*%
X342400000Y-96250000D03*
X342400000Y-94700000D03*
%TD*%
D19*
%TO.C,D34*%
X106500000Y-176100000D03*
X106500000Y-172800000D03*
X101600000Y-172800000D03*
X101600000Y-176100000D03*
%TD*%
%TO.C,D74*%
X117600000Y-139720000D03*
X117600000Y-143020000D03*
X122500000Y-143020000D03*
X122500000Y-139720000D03*
%TD*%
D34*
%TO.C,R9*%
X26570000Y-138170000D03*
X26570000Y-137150000D03*
%TD*%
D19*
%TO.C,D163*%
X274000000Y-110400000D03*
X274000000Y-107100000D03*
X269100000Y-107100000D03*
X269100000Y-110400000D03*
%TD*%
%TO.C,D210*%
X349100001Y-176079999D03*
X349100001Y-172779999D03*
X344200001Y-172779999D03*
X344200001Y-176079999D03*
%TD*%
D28*
%TO.C,C136*%
X263585000Y-132600000D03*
X265135000Y-132600000D03*
%TD*%
D39*
%TO.C,Q1*%
X36910000Y-141140000D03*
X36910000Y-139240000D03*
X34290000Y-140190000D03*
%TD*%
D41*
%TO.C,R11*%
X181100000Y-64262000D03*
X182120000Y-64262000D03*
%TD*%
D28*
%TO.C,C201*%
X294400000Y-183200000D03*
X295950000Y-183200000D03*
%TD*%
M02*
