%TF.GenerationSoftware,KiCad,Pcbnew,7.0.9*%
%TF.CreationDate,2023-12-17T15:39:31+01:00*%
%TF.ProjectId,ws2812-clock,77733238-3132-42d6-936c-6f636b2e6b69,rev?*%
%TF.SameCoordinates,Original*%
%TF.FileFunction,Legend,Bot*%
%TF.FilePolarity,Positive*%
%FSLAX46Y46*%
G04 Gerber Fmt 4.6, Leading zero omitted, Abs format (unit mm)*
G04 Created by KiCad (PCBNEW 7.0.9) date 2023-12-17 15:39:31*
%MOMM*%
%LPD*%
G01*
G04 APERTURE LIST*
%ADD10C,0.150000*%
%ADD11C,0.120000*%
%ADD12O,2.000000X4.600000*%
%ADD13O,4.600000X2.000000*%
%ADD14C,0.650000*%
%ADD15O,2.100000X1.000000*%
%ADD16O,1.800000X1.000000*%
%ADD17R,1.700000X1.700000*%
%ADD18O,1.700000X1.700000*%
%ADD19C,2.000000*%
G04 APERTURE END LIST*
D10*
X40179475Y-128524819D02*
X40179475Y-127524819D01*
X40179475Y-127524819D02*
X39941380Y-127524819D01*
X39941380Y-127524819D02*
X39798523Y-127572438D01*
X39798523Y-127572438D02*
X39703285Y-127667676D01*
X39703285Y-127667676D02*
X39655666Y-127762914D01*
X39655666Y-127762914D02*
X39608047Y-127953390D01*
X39608047Y-127953390D02*
X39608047Y-128096247D01*
X39608047Y-128096247D02*
X39655666Y-128286723D01*
X39655666Y-128286723D02*
X39703285Y-128381961D01*
X39703285Y-128381961D02*
X39798523Y-128477200D01*
X39798523Y-128477200D02*
X39941380Y-128524819D01*
X39941380Y-128524819D02*
X40179475Y-128524819D01*
X39227094Y-127620057D02*
X39179475Y-127572438D01*
X39179475Y-127572438D02*
X39084237Y-127524819D01*
X39084237Y-127524819D02*
X38846142Y-127524819D01*
X38846142Y-127524819D02*
X38750904Y-127572438D01*
X38750904Y-127572438D02*
X38703285Y-127620057D01*
X38703285Y-127620057D02*
X38655666Y-127715295D01*
X38655666Y-127715295D02*
X38655666Y-127810533D01*
X38655666Y-127810533D02*
X38703285Y-127953390D01*
X38703285Y-127953390D02*
X39274713Y-128524819D01*
X39274713Y-128524819D02*
X38655666Y-128524819D01*
X38322332Y-127524819D02*
X37703285Y-127524819D01*
X37703285Y-127524819D02*
X38036618Y-127905771D01*
X38036618Y-127905771D02*
X37893761Y-127905771D01*
X37893761Y-127905771D02*
X37798523Y-127953390D01*
X37798523Y-127953390D02*
X37750904Y-128001009D01*
X37750904Y-128001009D02*
X37703285Y-128096247D01*
X37703285Y-128096247D02*
X37703285Y-128334342D01*
X37703285Y-128334342D02*
X37750904Y-128429580D01*
X37750904Y-128429580D02*
X37798523Y-128477200D01*
X37798523Y-128477200D02*
X37893761Y-128524819D01*
X37893761Y-128524819D02*
X38179475Y-128524819D01*
X38179475Y-128524819D02*
X38274713Y-128477200D01*
X38274713Y-128477200D02*
X38322332Y-128429580D01*
X36798523Y-127524819D02*
X37274713Y-127524819D01*
X37274713Y-127524819D02*
X37322332Y-128001009D01*
X37322332Y-128001009D02*
X37274713Y-127953390D01*
X37274713Y-127953390D02*
X37179475Y-127905771D01*
X37179475Y-127905771D02*
X36941380Y-127905771D01*
X36941380Y-127905771D02*
X36846142Y-127953390D01*
X36846142Y-127953390D02*
X36798523Y-128001009D01*
X36798523Y-128001009D02*
X36750904Y-128096247D01*
X36750904Y-128096247D02*
X36750904Y-128334342D01*
X36750904Y-128334342D02*
X36798523Y-128429580D01*
X36798523Y-128429580D02*
X36846142Y-128477200D01*
X36846142Y-128477200D02*
X36941380Y-128524819D01*
X36941380Y-128524819D02*
X37179475Y-128524819D01*
X37179475Y-128524819D02*
X37274713Y-128477200D01*
X37274713Y-128477200D02*
X37322332Y-128429580D01*
X40169475Y-133454819D02*
X40169475Y-132454819D01*
X40169475Y-132454819D02*
X39931380Y-132454819D01*
X39931380Y-132454819D02*
X39788523Y-132502438D01*
X39788523Y-132502438D02*
X39693285Y-132597676D01*
X39693285Y-132597676D02*
X39645666Y-132692914D01*
X39645666Y-132692914D02*
X39598047Y-132883390D01*
X39598047Y-132883390D02*
X39598047Y-133026247D01*
X39598047Y-133026247D02*
X39645666Y-133216723D01*
X39645666Y-133216723D02*
X39693285Y-133311961D01*
X39693285Y-133311961D02*
X39788523Y-133407200D01*
X39788523Y-133407200D02*
X39931380Y-133454819D01*
X39931380Y-133454819D02*
X40169475Y-133454819D01*
X39217094Y-132550057D02*
X39169475Y-132502438D01*
X39169475Y-132502438D02*
X39074237Y-132454819D01*
X39074237Y-132454819D02*
X38836142Y-132454819D01*
X38836142Y-132454819D02*
X38740904Y-132502438D01*
X38740904Y-132502438D02*
X38693285Y-132550057D01*
X38693285Y-132550057D02*
X38645666Y-132645295D01*
X38645666Y-132645295D02*
X38645666Y-132740533D01*
X38645666Y-132740533D02*
X38693285Y-132883390D01*
X38693285Y-132883390D02*
X39264713Y-133454819D01*
X39264713Y-133454819D02*
X38645666Y-133454819D01*
X38312332Y-132454819D02*
X37693285Y-132454819D01*
X37693285Y-132454819D02*
X38026618Y-132835771D01*
X38026618Y-132835771D02*
X37883761Y-132835771D01*
X37883761Y-132835771D02*
X37788523Y-132883390D01*
X37788523Y-132883390D02*
X37740904Y-132931009D01*
X37740904Y-132931009D02*
X37693285Y-133026247D01*
X37693285Y-133026247D02*
X37693285Y-133264342D01*
X37693285Y-133264342D02*
X37740904Y-133359580D01*
X37740904Y-133359580D02*
X37788523Y-133407200D01*
X37788523Y-133407200D02*
X37883761Y-133454819D01*
X37883761Y-133454819D02*
X38169475Y-133454819D01*
X38169475Y-133454819D02*
X38264713Y-133407200D01*
X38264713Y-133407200D02*
X38312332Y-133359580D01*
X36836142Y-132788152D02*
X36836142Y-133454819D01*
X37074237Y-132407200D02*
X37312332Y-133121485D01*
X37312332Y-133121485D02*
X36693285Y-133121485D01*
X40159475Y-130164819D02*
X40159475Y-129164819D01*
X40159475Y-129164819D02*
X39921380Y-129164819D01*
X39921380Y-129164819D02*
X39778523Y-129212438D01*
X39778523Y-129212438D02*
X39683285Y-129307676D01*
X39683285Y-129307676D02*
X39635666Y-129402914D01*
X39635666Y-129402914D02*
X39588047Y-129593390D01*
X39588047Y-129593390D02*
X39588047Y-129736247D01*
X39588047Y-129736247D02*
X39635666Y-129926723D01*
X39635666Y-129926723D02*
X39683285Y-130021961D01*
X39683285Y-130021961D02*
X39778523Y-130117200D01*
X39778523Y-130117200D02*
X39921380Y-130164819D01*
X39921380Y-130164819D02*
X40159475Y-130164819D01*
X39207094Y-129260057D02*
X39159475Y-129212438D01*
X39159475Y-129212438D02*
X39064237Y-129164819D01*
X39064237Y-129164819D02*
X38826142Y-129164819D01*
X38826142Y-129164819D02*
X38730904Y-129212438D01*
X38730904Y-129212438D02*
X38683285Y-129260057D01*
X38683285Y-129260057D02*
X38635666Y-129355295D01*
X38635666Y-129355295D02*
X38635666Y-129450533D01*
X38635666Y-129450533D02*
X38683285Y-129593390D01*
X38683285Y-129593390D02*
X39254713Y-130164819D01*
X39254713Y-130164819D02*
X38635666Y-130164819D01*
X38302332Y-129164819D02*
X37683285Y-129164819D01*
X37683285Y-129164819D02*
X38016618Y-129545771D01*
X38016618Y-129545771D02*
X37873761Y-129545771D01*
X37873761Y-129545771D02*
X37778523Y-129593390D01*
X37778523Y-129593390D02*
X37730904Y-129641009D01*
X37730904Y-129641009D02*
X37683285Y-129736247D01*
X37683285Y-129736247D02*
X37683285Y-129974342D01*
X37683285Y-129974342D02*
X37730904Y-130069580D01*
X37730904Y-130069580D02*
X37778523Y-130117200D01*
X37778523Y-130117200D02*
X37873761Y-130164819D01*
X37873761Y-130164819D02*
X38159475Y-130164819D01*
X38159475Y-130164819D02*
X38254713Y-130117200D01*
X38254713Y-130117200D02*
X38302332Y-130069580D01*
X36826142Y-129164819D02*
X37016618Y-129164819D01*
X37016618Y-129164819D02*
X37111856Y-129212438D01*
X37111856Y-129212438D02*
X37159475Y-129260057D01*
X37159475Y-129260057D02*
X37254713Y-129402914D01*
X37254713Y-129402914D02*
X37302332Y-129593390D01*
X37302332Y-129593390D02*
X37302332Y-129974342D01*
X37302332Y-129974342D02*
X37254713Y-130069580D01*
X37254713Y-130069580D02*
X37207094Y-130117200D01*
X37207094Y-130117200D02*
X37111856Y-130164819D01*
X37111856Y-130164819D02*
X36921380Y-130164819D01*
X36921380Y-130164819D02*
X36826142Y-130117200D01*
X36826142Y-130117200D02*
X36778523Y-130069580D01*
X36778523Y-130069580D02*
X36730904Y-129974342D01*
X36730904Y-129974342D02*
X36730904Y-129736247D01*
X36730904Y-129736247D02*
X36778523Y-129641009D01*
X36778523Y-129641009D02*
X36826142Y-129593390D01*
X36826142Y-129593390D02*
X36921380Y-129545771D01*
X36921380Y-129545771D02*
X37111856Y-129545771D01*
X37111856Y-129545771D02*
X37207094Y-129593390D01*
X37207094Y-129593390D02*
X37254713Y-129641009D01*
X37254713Y-129641009D02*
X37302332Y-129736247D01*
X40200475Y-131805819D02*
X40200475Y-130805819D01*
X40200475Y-130805819D02*
X39962380Y-130805819D01*
X39962380Y-130805819D02*
X39819523Y-130853438D01*
X39819523Y-130853438D02*
X39724285Y-130948676D01*
X39724285Y-130948676D02*
X39676666Y-131043914D01*
X39676666Y-131043914D02*
X39629047Y-131234390D01*
X39629047Y-131234390D02*
X39629047Y-131377247D01*
X39629047Y-131377247D02*
X39676666Y-131567723D01*
X39676666Y-131567723D02*
X39724285Y-131662961D01*
X39724285Y-131662961D02*
X39819523Y-131758200D01*
X39819523Y-131758200D02*
X39962380Y-131805819D01*
X39962380Y-131805819D02*
X40200475Y-131805819D01*
X39248094Y-130901057D02*
X39200475Y-130853438D01*
X39200475Y-130853438D02*
X39105237Y-130805819D01*
X39105237Y-130805819D02*
X38867142Y-130805819D01*
X38867142Y-130805819D02*
X38771904Y-130853438D01*
X38771904Y-130853438D02*
X38724285Y-130901057D01*
X38724285Y-130901057D02*
X38676666Y-130996295D01*
X38676666Y-130996295D02*
X38676666Y-131091533D01*
X38676666Y-131091533D02*
X38724285Y-131234390D01*
X38724285Y-131234390D02*
X39295713Y-131805819D01*
X39295713Y-131805819D02*
X38676666Y-131805819D01*
X38343332Y-130805819D02*
X37724285Y-130805819D01*
X37724285Y-130805819D02*
X38057618Y-131186771D01*
X38057618Y-131186771D02*
X37914761Y-131186771D01*
X37914761Y-131186771D02*
X37819523Y-131234390D01*
X37819523Y-131234390D02*
X37771904Y-131282009D01*
X37771904Y-131282009D02*
X37724285Y-131377247D01*
X37724285Y-131377247D02*
X37724285Y-131615342D01*
X37724285Y-131615342D02*
X37771904Y-131710580D01*
X37771904Y-131710580D02*
X37819523Y-131758200D01*
X37819523Y-131758200D02*
X37914761Y-131805819D01*
X37914761Y-131805819D02*
X38200475Y-131805819D01*
X38200475Y-131805819D02*
X38295713Y-131758200D01*
X38295713Y-131758200D02*
X38343332Y-131710580D01*
X37390951Y-130805819D02*
X36771904Y-130805819D01*
X36771904Y-130805819D02*
X37105237Y-131186771D01*
X37105237Y-131186771D02*
X36962380Y-131186771D01*
X36962380Y-131186771D02*
X36867142Y-131234390D01*
X36867142Y-131234390D02*
X36819523Y-131282009D01*
X36819523Y-131282009D02*
X36771904Y-131377247D01*
X36771904Y-131377247D02*
X36771904Y-131615342D01*
X36771904Y-131615342D02*
X36819523Y-131710580D01*
X36819523Y-131710580D02*
X36867142Y-131758200D01*
X36867142Y-131758200D02*
X36962380Y-131805819D01*
X36962380Y-131805819D02*
X37248094Y-131805819D01*
X37248094Y-131805819D02*
X37343332Y-131758200D01*
X37343332Y-131758200D02*
X37390951Y-131710580D01*
X191281904Y-71116819D02*
X190710476Y-71116819D01*
X190996190Y-72116819D02*
X190996190Y-71116819D01*
X190377142Y-72116819D02*
X190377142Y-71116819D01*
X190377142Y-71116819D02*
X189996190Y-71116819D01*
X189996190Y-71116819D02*
X189900952Y-71164438D01*
X189900952Y-71164438D02*
X189853333Y-71212057D01*
X189853333Y-71212057D02*
X189805714Y-71307295D01*
X189805714Y-71307295D02*
X189805714Y-71450152D01*
X189805714Y-71450152D02*
X189853333Y-71545390D01*
X189853333Y-71545390D02*
X189900952Y-71593009D01*
X189900952Y-71593009D02*
X189996190Y-71640628D01*
X189996190Y-71640628D02*
X190377142Y-71640628D01*
X189472380Y-71116819D02*
X188853333Y-71116819D01*
X188853333Y-71116819D02*
X189186666Y-71497771D01*
X189186666Y-71497771D02*
X189043809Y-71497771D01*
X189043809Y-71497771D02*
X188948571Y-71545390D01*
X188948571Y-71545390D02*
X188900952Y-71593009D01*
X188900952Y-71593009D02*
X188853333Y-71688247D01*
X188853333Y-71688247D02*
X188853333Y-71926342D01*
X188853333Y-71926342D02*
X188900952Y-72021580D01*
X188900952Y-72021580D02*
X188948571Y-72069200D01*
X188948571Y-72069200D02*
X189043809Y-72116819D01*
X189043809Y-72116819D02*
X189329523Y-72116819D01*
X189329523Y-72116819D02*
X189424761Y-72069200D01*
X189424761Y-72069200D02*
X189472380Y-72021580D01*
X194661904Y-73656819D02*
X194090476Y-73656819D01*
X194376190Y-74656819D02*
X194376190Y-73656819D01*
X193757142Y-74656819D02*
X193757142Y-73656819D01*
X193757142Y-73656819D02*
X193376190Y-73656819D01*
X193376190Y-73656819D02*
X193280952Y-73704438D01*
X193280952Y-73704438D02*
X193233333Y-73752057D01*
X193233333Y-73752057D02*
X193185714Y-73847295D01*
X193185714Y-73847295D02*
X193185714Y-73990152D01*
X193185714Y-73990152D02*
X193233333Y-74085390D01*
X193233333Y-74085390D02*
X193280952Y-74133009D01*
X193280952Y-74133009D02*
X193376190Y-74180628D01*
X193376190Y-74180628D02*
X193757142Y-74180628D01*
X192233333Y-74656819D02*
X192804761Y-74656819D01*
X192519047Y-74656819D02*
X192519047Y-73656819D01*
X192519047Y-73656819D02*
X192614285Y-73799676D01*
X192614285Y-73799676D02*
X192709523Y-73894914D01*
X192709523Y-73894914D02*
X192804761Y-73942533D01*
X197461904Y-76156819D02*
X196890476Y-76156819D01*
X197176190Y-77156819D02*
X197176190Y-76156819D01*
X196557142Y-77156819D02*
X196557142Y-76156819D01*
X196557142Y-76156819D02*
X196176190Y-76156819D01*
X196176190Y-76156819D02*
X196080952Y-76204438D01*
X196080952Y-76204438D02*
X196033333Y-76252057D01*
X196033333Y-76252057D02*
X195985714Y-76347295D01*
X195985714Y-76347295D02*
X195985714Y-76490152D01*
X195985714Y-76490152D02*
X196033333Y-76585390D01*
X196033333Y-76585390D02*
X196080952Y-76633009D01*
X196080952Y-76633009D02*
X196176190Y-76680628D01*
X196176190Y-76680628D02*
X196557142Y-76680628D01*
X195604761Y-76252057D02*
X195557142Y-76204438D01*
X195557142Y-76204438D02*
X195461904Y-76156819D01*
X195461904Y-76156819D02*
X195223809Y-76156819D01*
X195223809Y-76156819D02*
X195128571Y-76204438D01*
X195128571Y-76204438D02*
X195080952Y-76252057D01*
X195080952Y-76252057D02*
X195033333Y-76347295D01*
X195033333Y-76347295D02*
X195033333Y-76442533D01*
X195033333Y-76442533D02*
X195080952Y-76585390D01*
X195080952Y-76585390D02*
X195652380Y-77156819D01*
X195652380Y-77156819D02*
X195033333Y-77156819D01*
D11*
%TO.C,TP3*%
X191220000Y-73660000D02*
G75*
G03*
X191220000Y-73660000I-1200000J0D01*
G01*
%TO.C,TP1*%
X194600000Y-76200000D02*
G75*
G03*
X194600000Y-76200000I-1200000J0D01*
G01*
%TO.C,TP2*%
X197400000Y-78700000D02*
G75*
G03*
X197400000Y-78700000I-1200000J0D01*
G01*
%TD*%
%LPC*%
D12*
%TO.C,DC1*%
X38950000Y-176400000D03*
X32750000Y-176400000D03*
D13*
X35950000Y-181100000D03*
%TD*%
D14*
%TO.C,USBC1*%
X31457500Y-162265000D03*
X31457500Y-168045000D03*
D15*
X31957500Y-160835000D03*
D16*
X27777500Y-160835000D03*
X27777500Y-169475000D03*
D15*
X31957500Y-169475000D03*
%TD*%
D17*
%TO.C,J2*%
X206880000Y-96770000D03*
D18*
X206880000Y-94230000D03*
X206880000Y-91690000D03*
X206880000Y-89150000D03*
%TD*%
D19*
%TO.C,J1*%
X28350000Y-186200000D03*
%TD*%
%TO.C,TP3*%
X190020000Y-73660000D03*
%TD*%
%TO.C,TP1*%
X193400000Y-76200000D03*
%TD*%
%TO.C,TP2*%
X196200000Y-78700000D03*
%TD*%
%LPD*%
M02*
